<svg xmlns="http://www.w3.org/2000/svg" viewBox="0 0 323.73 299.31"><defs><style>.cls-1{fill:#ed7ca9;stroke:#ed7ca9;stroke-miterlimit:10;stroke-width:5px;}</style></defs><g id="Layer_2" data-name="Layer 2"><g id="Layer_1-2" data-name="Layer 1"><g id="SvgjsG1370"><path class="cls-1" d="M169.91,2.56a591,591,0,0,0-61.11,8.9A183,183,0,0,1,86.56,14.3a91.11,91.11,0,0,0-10.94,1.11c-3.38,1.38-4,7.83-2.41,25.14a238.25,238.25,0,0,0,6.59,41,547.28,547.28,0,0,0,14.68,56.31c1.73,3.6,5.38,8.18,6.44,8.18a47.41,47.41,0,0,0,.41-8.67v-8.59l-6-18.37C82.91,72.66,79.8,61.5,77.48,46.51c-2.09-12.28-2.75-24.91-1.6-27.18l.8-1.42h8.45a193.29,193.29,0,0,0,25.45-1.52c34.56-3.51,36-3.55,53.68-3.51s21.49.44,33.1,3.47c7.47,2,8.36,2,10,.67a8.21,8.21,0,0,0,3-7c-.17-4.67-.89-5.25-8.49-6.27A274.64,274.64,0,0,0,169.91,2.56Z"/><path class="cls-1" d="M225.42,9.29A315.12,315.12,0,0,0,196.82,29c-9.61,7.52-54.22,49.77-58.18,55.2a28,28,0,0,0-4.76,10.27c0,1,.93,1.16,1.42.31a20.92,20.92,0,0,1,4.45-2.44c6.23-2.94,9.65-6,20.86-18.51,15-16.85,28.24-31.13,35.9-38.47,14.27-13.83,32.69-27,36-25.67a42.93,42.93,0,0,1,4.67,7.74,214.31,214.31,0,0,0,12.33,18.91c11.92,16.59,25.93,36.52,27.22,39,.62,1.2,3.73,6.94,6.89,12.67a88.91,88.91,0,0,1,10.68,25.4,33.5,33.5,0,0,0,3,8.1c2.31,2.4,7.78,1.64,11.25-1.47,1.74-1.65,1.56-3.16-1.06-9.34-8.54-20-19.09-35.59-44.48-66.28-17.13-20.55-18.33-22.24-23.13-29.71a42.39,42.39,0,0,0-5-6.63C233,6.58,230,6.89,225.42,9.29Z"/><path class="cls-1" d="M57.64,39.67a178.07,178.07,0,0,0-16.23,24.2,492.31,492.31,0,0,0-25.58,61.78c-2.18,6.49-6.32,16.41-8.9,21.88C1.24,159,1.24,159.19,5.73,162.92a202,202,0,0,0,29.49,14.86c13.35,5.74,73.13,23.79,81.71,24.68,5.65.63,13.57-1.15,10.41-2.31a22.55,22.55,0,0,1-3.6-2.36c-5.7-4.44-9.25-5.42-30.56-10-36-7.56-48.31-10.67-60-14.94-17.39-6.19-27.13-11.21-28-14.1,0-.81,1-3.16,4-8.06a183.42,183.42,0,0,0,9.57-18.54C34.07,98.2,37.4,91.35,46,77A94.21,94.21,0,0,1,63.2,53.86c5.69-6,6.23-6.67,6.23-8.9a6.8,6.8,0,0,0-4-6.31C61.82,36.42,60.31,36.56,57.64,39.67Z"/><path class="cls-1" d="M199.62,97.14c-5.07.84-5.07,1.11,0,4.44,7.47,4.94,9.3,5.48,30.29,10,37.76,7.92,49.24,10.81,62.67,15.79,14.81,5.6,25.71,11.39,25.71,13.74a39.33,39.33,0,0,1-4.09,7.48A178.5,178.5,0,0,0,305.66,165c-18.28,40.39-19.35,42.57-28.87,58.27a106.5,106.5,0,0,1-18.28,24.19c-4.89,5.07-5.29,5.92-4,9.43a10.8,10.8,0,0,0,7.74,5.21c1.51,0,2.23-.49,4.45-3.29a186,186,0,0,0,17.08-26.69,441.62,441.62,0,0,0,22-53.73,236,236,0,0,1,11-26.69,65.46,65.46,0,0,0,4.45-10.41c0-2.85-4.45-6.45-14.82-11.34-20-9.79-26.37-12.19-57-21.35C212.12,97.54,206,96.2,199.62,97.14Z"/><path class="cls-1" d="M153.72,127.61c-3.7,1.33-5.74,2.62-5.74,3.55s-1.25,1.65-2.76,2.85a17.06,17.06,0,0,0-6.67,11.48c-.8,3.95-.8,4.44,0,6.27a9,9,0,0,1,.93,3.24,16.49,16.49,0,0,0,4.45,10.19,14.7,14.7,0,0,0,8.54,5.69,32.86,32.86,0,0,1,5.25,1.43,15.93,15.93,0,0,0,12.5-.49,35,35,0,0,0,13.65-13.88,15.57,15.57,0,0,0,.71-10.63,6.57,6.57,0,0,1-.88-3,15.7,15.7,0,0,0-.94-4.45c-1.56-4.45-8.36-11.12-11.52-11.12a12.43,12.43,0,0,1-4-1.16A21.07,21.07,0,0,0,153.72,127.61Z"/><path class="cls-1" d="M222.33,161.68v8.89l6,18.11c5.78,17.39,12.1,37.8,14.54,46.65,4.19,15.44,7,40,5.16,45l-.62,1.51-8.32-.31a128,128,0,0,0-21.61,1c-40,4.05-38.26,4-57.83,3.78s-20.06,0-33-3.33c-7.91-2-8.31-2-9.69-1.16a7.83,7.83,0,0,0-3.43,6.32c-.35,3.51.45,5.65,2.36,6.31a165.74,165.74,0,0,0,26.69,2.32c16,0,31.89-1.92,69.39-8.59a196.26,196.26,0,0,1,25.44-3.29c10.85-.62,11.79-1,13.34-5.2s0-23-2.44-40.66c-1-7-7.08-33.45-13-57.16-4.44-17.79-6.31-22.59-10.09-26.68a9.44,9.44,0,0,0-2.45-2.09A44.31,44.31,0,0,0,222.33,161.68Z"/><path class="cls-1" d="M17.12,177.87c-3.83,2.18-4.18,3.2-2.58,7.56a173,173,0,0,0,13.34,26.42,485,485,0,0,0,40,52A238.51,238.51,0,0,1,82.55,283c2.62,4.09,4.94,7.43,5.56,8.09,1.87,2,5.2,1.74,10-.75a292.79,292.79,0,0,0,34.51-24.51c10.81-9.88,47.77-45.1,51.24-49.55a25.49,25.49,0,0,0,5.43-10.37c.36-2.13.27-2.18-.71-1.33s-3.38,1.91-6.1,3.29c-6,2.94-8.4,5.16-25.22,24-6.62,7.38-16.32,18-21.7,23.7-17.79,18.91-41.19,36.57-44.88,34a74.36,74.36,0,0,1-4.45-7.83,217.39,217.39,0,0,0-12.1-18.68C63.78,248.81,51.9,232,48.92,227.2c-1.24-2-5.2-8.9-8.89-15.57a107.87,107.87,0,0,1-11.7-29c-.94-4.45-2.49-5.83-5.65-6.14A7.8,7.8,0,0,0,17.12,177.87Z"/></g></g></g></svg>