<svg id="Layer_1" data-name="Layer 1" xmlns="http://www.w3.org/2000/svg" viewBox="0 0 1484.22 703.06"><defs><style>.cls-1{fill:#edba60;}.cls-2{fill:#a8a9ad;}.cls-3{fill:#6d6e72;}.cls-4{fill:#ed625b;}.cls-5{fill:#49557e;}.cls-6{fill:#28aa90;}.cls-7{fill:#4ea5c3;}.cls-8{fill:#e8d3be;}.cls-9{fill:#f292b4;}.cls-10{fill:#d0d1d3;}.cls-11{fill:#e6bd92;}.cls-12{fill:#ec6361;}.cls-13{fill:#486d82;}.cls-14{fill:#6b518d;}.cls-15{fill:#e5e6e8;}.cls-16{fill:#2e3a62;}.cls-17{fill:#77b5cc;}.cls-18{fill:#69aba0;}.cls-19{fill:#ef986e;}.cls-20{fill:#dd875c;}.cls-21{fill:#fbacac;}.cls-22{fill:#939498;}.cls-23{fill:#f68587;}.cls-24{fill:#bdbdc0;}.cls-25{fill:#d1d9e3;}.cls-26{fill:#58595c;}.cls-27{fill:#82d0a9;}.cls-28{fill:#fcfcfb;}.cls-29{fill:#97dcdd;}</style></defs><g id="Layer_2" data-name="Layer 2"><g id="Layer_1-2" data-name="Layer 1-2"><path class="cls-1" d="M275,444.56c.14,5.54.7,11.11.29,16.6-.29,3.78.09,6.06,3.95,7.78,7.71,3.43,15.11,7.57,22.78,11.12,1.35.63,3.55.22,5-.43,3.62-1.56,7-3.55,10.56-5.36l1.06-.11c2,4.59,4,5.25,8.15,2.94a52.1,52.1,0,0,1,6.13-2.55c3.68,1.83,7.79,3.1,10.93,5.6,6.59,5.22,12.67,11.09,19,16.69,13,13.83,21.72,30.49,31.07,46.74l-3.23,6.26-25.75-29.19c-2.81-3.21-5.48-6.54-8.22-9.81l-1.78,1.34c3.35,35.61,6.69,71.22,10.11,107.56H283.12c.75-9.84,1.22-19.25,2.23-28.59q3-28,6.58-56c1.32-10.55,2.87-21.08,4.58-31.58.68-4.11.28-7-3.49-9.83-8.16-6-16-12.56-23.62-19.24-1.86-1.63-3.66-4.71-3.52-7,.49-7.68,1.86-15.3,2.89-22.95Z" transform="translate(1049.88 -21.24)"/><path class="cls-2" d="M-913.18,541.56c8.7,14.53,10.32,29.74,7.22,46.5-3,16.58-3.43,33.64-5.19,50.47-1.23,11.72-2.77,23.4-4.29,35.08-.13,1-1.08,2-1.65,3l-14.65-.66c-.78-1.5-2.17-3-2.25-4.49-1.18-21.56-2.18-43.13-3.24-64.69-.37-7.72-.79-15.44-1.23-24.14-14.71,21-28.69,41.32-31.69,66.89-.83,7.08-1.12,14.23-1.93,21.32-.23,2-1.39,3.9-2.12,5.85l-14.57-.91c-.81-1.87-2.41-3.8-2.31-5.62,1.16-21.07,2-42.19,4.25-63.15.77-7.08,4.84-14,8.35-20.55,4.42-8.17,9.86-15.79,14.76-23.71,3.82-6.16,4.83-13,4.6-20.13,3.31.11,3-2.19,3-4.41q0-35.37,0-70.72l7.1-1.76v30.63h24.81V465.79l7.24,1q0,35.19-.08,70.39C-917.08,540-917,542.38-913.18,541.56Z" transform="translate(1049.88 -21.24)"/><path class="cls-3" d="M-24.06,702.09c-14.59,3.12-29.1,6.75-43.8,9.17-8.8,1.45-17.93.87-26.89,1.51-3.83.27-5.22-1.37-6.13-4.79-5.32-20-8.93-40.26-9-61v-7.85L-154.06,635c0,10.5.36,21-.1,31.38s-1.72,20.82-2.63,31.23h-8.48l-.15-1.75c-.09-.37-.18-.73-.26-1.1-4.11-22.76-8.3-45.48-12.2-68.22-1.43-8.23,1.22-12.46,9.56-14q14-2.44,28.17-3.47c4.76-.39,6.38-2.54,6.34-7-.15-13.14-.19-26.28-.27-39.41l26.82-12.91c0,1.5.1,3,0,4.5q-.94,22.9-2,45.82c-.12,2.55,0,4.41,3.45,4.57,10.78.48,21.55,1.3,32.32,2-.06,26.39-2.56,52.49-9.13,78.13-.45,1.75-.83,3.53-1.1,4.67l60.55,4.2C-23.43,696.45-23.75,699.24-24.06,702.09Z" transform="translate(1049.88 -21.24)"/><path class="cls-4" d="M-775.29,97.67c3.66,0,7.47-.63,10.94.19,4.19,1,9.17,2.22,11.93,5.12,10.31,10.86,22.29,19.4,34.83,27.32q10.32,6.52,20.61,13.1l-3.15,6.2-47.42-18.5c-.54,17.13-1.12,35.32-1.69,53.51l-63.87,18.95a29.55,29.55,0,0,1-.62-3.86c-.8-28.63-1.53-57.27-2.39-85.9a14.17,14.17,0,0,0-1.58-5.62C-824.13,95-830.76,82-837.08,68.75c-.91-1.89-1.41-4.82-.59-6.57,4.22-9,8.93-17.78,13.47-26.64l6.63,3.15a16.24,16.24,0,0,1-.49,4.17c-1.61,4.18-2.91,8.62-5.33,12.31-4.18,6.39-2.87,11,2.15,16.37,6.45,6.89,12,14.62,17.76,22.15,2.19,2.88,4.47,4.51,8.29,4.08,3.62-.41,7.3-.19,11-.24Z" transform="translate(1049.88 -21.24)"/><path class="cls-4" d="M246.22,435.39c.36,1,1.08,2,1,2.93-.66,8.94-1.25,17.9-2.37,26.78a8.91,8.91,0,0,1-3.8,5.68c-8.53,5.14-17.24,10-26,14.65-3,1.56-4.21,3.26-4.44,6.76-1.55,23-3.42,46-5.19,69l-62.41.22c-1.35-15.13-2.71-30.27-4.19-46.81-3.19,4.39-5.86,7.68-8.12,11.23-6.31,9.93-12.44,20-18.68,29.95-.86,1.39-1.93,2.64-2.9,4l-6.26-3.16c7-18.57,11.79-38.08,23.55-54.68,4.88-6.88,8.79-14.44,13.11-21.71a18.34,18.34,0,0,1,16-9.43c5.15-.19,10.31-.11,15.47-.14l9.14-.16c9,.64,17.79.51,26.53-2.13,7.6-2.3,15.35-4.13,23.1-5.9,3.48-.79,5.29-2.1,5.53-6.08.38-6.26,1.54-12.48,2.49-18.69a11.38,11.38,0,0,1,1.34-3Z" transform="translate(1049.88 -21.24)"/><path class="cls-1" d="M-1001.34,204.69c-3.17.22-3.77-1.39-3.62-4.29q1.5-30.6,2.8-61.22a6.66,6.66,0,0,0-.57-1.48c-8.34-.34-16.94-.77-25.55-1-3.62-.1-5,1.82-3.17,5.12,2,3.59,4.34,7,6.53,10.49l-3.36,4.55c-6.31-5.49-13-10.62-18.77-16.62-4.25-4.5-2.92-8.65,3.12-10.59a162.52,162.52,0,0,1,21.23-4.92c12.52-2.21,25.11-4,37.67-6l8.63-2.22h12.6l24.24,7.11c9.27,1.62,18.52,3.37,27.83,4.78,3.41.51,4.66-1.82,3.41-4.74-1.75-4.08-4-8-6-11.91l4.36-3.39c5.94,6.39,12.22,12.5,17.67,19.27,3,3.67,1.41,7.39-3.6,8.76a93.16,93.16,0,0,1-18.63,3c-8.08.5-16.21.13-23.46.13v54.12q.18,3.75,0,7.49c-.13,1.23-1.15,2.37-1.76,3.55Z" transform="translate(1049.88 -21.24)"/><path class="cls-5" d="M143,561.43l62.41-.22a438.89,438.89,0,0,1-2.75,67.32c-2.81,25-5.15,50-7.69,75l-9.06-1q-1.47-27.91-2.92-55.83-1.12-21.94-2.09-43.9c-.2-4.3-2.21-7-6.56-7.3-3.67-.26-6.34,2.79-6.56,7.24q-2.46,50.38-4.85,100.76l-9-.94c-1.61-14.72-3.28-29.44-4.82-44.17-1.9-18.19-4.15-36.37-5.38-54.61C142.78,589.77,143.18,575.58,143,561.43Z" transform="translate(1049.88 -21.24)"/><path class="cls-6" d="M73.6,109.11c3.63,2.62,7.17,5.37,10.91,7.83,5.81,3.83,7.14,9.33,5.93,15.67a110.4,110.4,0,0,1-3.44,14c-1.06,3.25-1,5.21,2.23,7.37s6,5.66,8.94,8.56c-3.11,2-1.93,7.82-7.11,8l-11.14-10h-.15l.22.09q1.35,13,2.72,26l-6.17-.71L74.1,189.7,84,193.77c.7,4.49,1.5,9,2,13.48.11,1-.73,2.06-1.13,3.1-1.82-.1-3.65-.29-5.47-.28q-30.21.17-60.41.38c-.4-1.51-1.13-3-1.15-4.52-.21-16.84,3.58-33,8.53-48.94,3.21-10.3,7.66-20.23,10.73-30.57,3.22-10.82,9.92-17.3,20.71-19.9C62.49,114.69,66.58,115.37,73.6,109.11Z" transform="translate(1049.88 -21.24)"/><path class="cls-7" d="M-813.11,203.56l63.87-18.95c9.35,14,14.16,30,19.14,45.86.9,2.85,1.9,5.68,2.67,8.57a18.38,18.38,0,0,0,8.61,11.12c15.65,9.77,31.21,19.7,46.8,29.57-.68,1.65-1.35,3.31-2,5-19.7-7.6-39.45-15-59-23-3-1.21-5.65-4.11-7.69-6.81-7.51-10-14.75-20.12-22-30.3-2.21-3.13-4.69-5-8.75-4.16s-8.69,1.49-10.11,6.11c-4.11,13.34-8.17,26.71-11.47,40.26a26.66,26.66,0,0,0,.94,13.58c5.88,18.36,12.32,36.55,18.53,54.81a27.89,27.89,0,0,1,.69,3.39H-778C-788.57,319.77-799.22,301-809.52,282a26.34,26.34,0,0,1-3.44-11.7C-813.29,248.09-813.12,225.82-813.11,203.56Z" transform="translate(1049.88 -21.24)"/><path class="cls-8" d="M-237.12,501.61c1.64-4.13.88-7.59-2.21-10.95-4.3-4.66-4.78-10-1.59-15.61s7.46-8.82,14.06-8.53c5.55.24,10.37,5.32,10.54,13,.18,8.74-1,17.51-1.28,26.28-.11,3.53-.38,7.59,1.12,10.54,3.28,6.47,4.19,13,4.51,20.16a175.47,175.47,0,0,0,3.49,25c.55,2.87,2.86,5.4,4.36,8.08,2,4.68,3.94,9.4,6.09,14A58.11,58.11,0,0,1-192.16,610c-.49,16.57-1.56,33.13-1.84,49.7-.08,4.25,1.87,8.54,2.89,12.82l-40.13-.17a33.42,33.42,0,0,0-.47-5.91c-3.5-13.38-.69-24.88,9.58-34.47,3.41-3.19,4.32-14.13,1.6-17.79a4.29,4.29,0,0,0-3.74-1.33c-4.29,1.48-6.39-.79-7.72-4.15-2.51-6.31-5.29-12.59-7-19.13-4.2-15.89-3.51-16.52,10.76-24.73,3-1.71,6-5.44,6.49-8.6.31-2.19-3.5-5.42-6.06-7.42-3.06-2.4-4.5-4.61-3.83-8.79.57-3.58-.52-7.42-.79-11.16s-1.32-7.54-.47-10.95C-231.3,511.51-232.64,506.29-237.12,501.61Z" transform="translate(1049.88 -21.24)"/><path class="cls-6" d="M-1001.34,204.69h61.58c6.66,15.58,12.93,31.34,20.15,46.66,4.13,8.74,5.34,17.21,4.6,26.87-1.54,20-1.66,40.19-2.36,60.29l-7.71-.92c-1.7-21.06-3.26-42.12-5.26-63.15a19.13,19.13,0,0,0-4.06-9.81c-7.29-8.85-15.11-17.27-22.74-25.84-3.61-4-9.68-6-14.39-3.49a11.75,11.75,0,0,0-5.43,6.94c-1.82,8.09-2.78,16.37-4,24.59-1,6.8-4.08,12.27-8.88,17.37-14.36,15.25-28.25,31-42.32,46.49l-6.11-4.32c11-16,21.92-32,33.14-47.84,3.59-5.09,5.1-10.19,4.25-16.29C-1003.74,243.06-1004.66,223.88-1001.34,204.69Z" transform="translate(1049.88 -21.24)"/><path class="cls-2" d="M-489.08,220.57h-68.75c.32,6.73.51,12.82.92,18.89.82,12.11,1.84,24.21,2.64,36.32,1.44,21.9,2.77,43.82,4.14,65.73a8.4,8.4,0,0,1,0,3,14.77,14.77,0,0,1-1.76,3.09c-1-1.08-2.73-2.08-2.87-3.27-.66-5.61-.89-11.27-1.27-16.91q-3-44.57-5.9-89.12c-1.15-17.76-2.09-35.53-3.27-53.3-1.84-27.54-3.83-55.07-5.69-82.62-.85-12.59-1.55-25.19-2.93-37.79q-2.17,18.93-4.37,37.85-3.81,33.42-7.69,66.8-3.64,31.71-7.26,63.41-3.86,33.42-7.76,66.84c-1.7,14.7-3.29,29.4-5.12,44.08-.17,1.43-1.66,2.69-2.53,4-.7-1.57-2.14-3.23-2-4.71,2.37-22.14,4.94-44.26,7.5-66.38,3.23-27.73,6.56-55.45,9.73-83.19,2.85-24.93,5.48-49.89,8.34-74.82,2.78-24.27,5.73-48.51,8.6-72.77.41-3.47.81-6.94,1.17-10.41.27-2.66,1.4-3.44,4-2.37a17.06,17.06,0,0,0,6,1.47q46.49.13,93,0c1.33,0,3,.45,3.93-.18,6.43-4.45,6.14.24,6.35,4.45q.84,16.68,1.73,33.36l-4.08,7.31-3.4,4.23c-1-13.87-1.94-27.74-2.93-41.85H-565c0,3.48-.17,6.61,0,9.73q2.4,39,4.9,78c.32,6.12.6,12.26,1,18.38a35.9,35.9,0,0,0,.91,4.73l1.08,26.9q.51,8,1,16c.31,3.58.76,7.16.9,10.75.3,7.35.23,7.35,7.51,7.29h1.48l7,.08h5.53c.42-1.86.73-3.25,1.07-4.77h5l-.65,1,3.92,3.77h23.45l11.22.82c.23.45.46.89.68,1.34C-489.07,217.37-489.08,219-489.08,220.57Z" transform="translate(1049.88 -21.24)"/><path class="cls-4" d="M-489.06,215.77c-.22-.45-.45-.89-.68-1.34q1.88-14.4,3.74-28.8,3.56-8,7.09-16c6.42-8.83,5.78-18.58,3.42-28.43-.26-1.11-2.23-1.82-3.41-2.72l-21.21-13.92,6-13.06c1.67.64,3.34,1.29,5,1.9,7.38,2.67,14.67,3.34,21.72-1l6.19,5.91c-2.86,5.26-2.69,7.13,1.48,8.1,4,.92,5.53,3.26,6.17,6.81s2.5,4,5.8,3c2.33-.75,5.36-1.19,7.5-.32,5.13,2.06,9,1.69,11.73-3.46.37-.67,1.23-1.08,1.86-1.6q4.82,9.38,9.62,18.77l-11.36,7.2-6.36-7.93a49.68,49.68,0,0,0,1.88,22.36c4.07,13.12,7.64,26.39,11.13,39.68.48,1.81-.71,4.07-1.13,6.12Z" transform="translate(1049.88 -21.24)"/><path class="cls-5" d="M-489.06,215.77l66.28,1.2c-1.87,8.75-3.15,17.68-5.75,26.21-3.93,12.86-6.68,25.65-4.62,39.19,1.87,12.3.37,24.46-1.73,36.66-1.22,7.13-1.06,14.51-1.58,21.77a5.38,5.38,0,0,1-.77,1.75l-10.51-.76c-2.39.64-3.58-.1-3.07-2.71,3.87-19.72-1.71-39.38-.27-59.21.86-11.75-2.33-23.76-3.27-35.68-.46-5.78.22-11.64.05-17.45-.05-1.5-1.37-3-2.11-4.44-.91,1.37-2.49,2.7-2.61,4.13q-1.32,17.16-2.15,34.35c-.59,12.27-.83,24.56-1.43,36.84-.7,14.45-1.61,28.89-2.54,43.33,0,.6-1.24,1.13-1.9,1.7l-8.84-.21c-1.12-1.05-3.19-2.07-3.22-3.14-.51-19.93-1.75-39.91-.78-59.78.68-14.14-1.63-27.4-5.26-40.72-1-3.73-2.06-7.47-3.09-11.21q-.43-3.51-.88-7Z" transform="translate(1049.88 -21.24)"/><path class="cls-9" d="M19,210.41,79.39,210c1.82,0,3.65.18,5.47.28,2.34,10.1-.16,19.73-2.94,29.31-3.45,11.9-8.22,23.52-7.93,36.22.07,3.14.55,6.27.8,9.4,1.3,16.25-1.35,32.05-5.22,47.73-.71,2.88-1.09,5.83-1.62,8.74l-5.58.27c-1.43-11.37-3.1-22.71-4.17-34.11-.45-4.74.85-9.64.54-14.41-.76-11.57-2.09-23.11-3-34.68-.69-8.44-1-16.9-1.74-25.34a56.58,56.58,0,0,0-1.71-7.72H49.85c-.52,3.15-1.81,6.4-1.42,9.43,1.74,13.62-1.49,26.8-2.87,40.15-.58,5.61-1.13,11.39-.42,16.92,2.16,16.8-1.72,33.09-3.33,49.58H36c-2-11.74-4.51-23.42-6-35.23a108.58,108.58,0,0,1-.09-21.78c1.35-16.88-2-32.93-6.69-49C20.85,227.63,20.34,218.9,19,210.41Z" transform="translate(1049.88 -21.24)"/><path class="cls-10" d="M297.78,247.68q0,51.49.14,103c0,3.94-1.07,5.09-5,5.06-27-.17-54-.1-81-.11v-108l.13-.13Zm-41.89,83.91h23c6.59-.06,11-4.36,11-10.9q.09-23,0-45.93c0-7.15-4-11.09-11.11-11.11q-22.71-.09-45.42,0c-7.54,0-11.39,3.84-11.41,11.32q-.06,22.72,0,45.43c0,7.21,3.91,11.14,11,11.2C240.58,331.64,248.24,331.59,255.89,331.59Z" transform="translate(1049.88 -21.24)"/><path class="cls-11" d="M-237.12,501.61c4.48,4.68,5.82,9.9,4.21,16.39-.85,3.41.2,7.29.47,11s1.36,7.58.79,11.16c-.67,4.18.77,6.39,3.83,8.79,2.56,2,6.37,5.23,6.06,7.42-.44,3.16-3.52,6.89-6.49,8.6-14.27,8.21-15,8.84-10.76,24.73,1.73,6.54,4.51,12.82,7,19.13,1.33,3.36,3.43,5.63,7.72,4.15a4.29,4.29,0,0,1,3.74,1.33c2.72,3.66,1.81,14.6-1.6,17.79-10.27,9.59-13.08,21.09-9.58,34.47a33.42,33.42,0,0,1,.47,5.91l-9.88.18h-36c1.62-4.84,2.63-10,5-14.47,8.62-16.4,13.06-33.61,12.31-52.22a123.9,123.9,0,0,1,1.12-20.37c1.21-9.68,4.44-18.72,10.63-26.49s7.41-16.82,5.2-26.41C-245.48,521.45-244.88,510.87-237.12,501.61Z" transform="translate(1049.88 -21.24)"/><path class="cls-12" d="M-408.25,498c4,4.39,8.15,8.74,12.13,13.19a64.36,64.36,0,0,1,4.92,6.25c8.79,12.72,8.34,16.48-3.71,25.8-4.76,3.69-10,6.7-15.11,10l-2.56-5.4-8.58,8.82a3.66,3.66,0,0,1-.81-.18l-2.12-1.1-3.88,4.25-13-2.51v-4.34l-7.73-1.91-9.18-2.13-3.27-1.07-.11.25-2.23-2.76-2.61-17.53c2.54-7.56,7.33-14.53,6-23.09,2.35-1.56,5-2.93,3.09-6.57-.32-.6-.2-2.11.15-2.27,4.9-2.27,5.16-9.87,11.72-10.13,7.45,6.06,9.46,5.94,15-.89C-421.3,486.59-414.68,492.14-408.25,498Zm-4.81,47.85,1.18.48c4.09-4.34,8.31-8.56,12.16-13.1.88-1,1.23-3.88.49-4.69-3.54-3.92-7.54-7.43-12.39-12C-412.16,527.43-412.61,536.64-413.06,545.85Z" transform="translate(1049.88 -21.24)"/><path class="cls-13" d="M-719.76,641.69c-1.39-8.2-2.85-16.39-4.15-24.61-2.38-15.06-.68-29.85,3.16-44.49H-669c4.72,15.26,13.7,28.33,21.54,42l-14,14.67c-6-5.69-12.32-11.13-18-17.16-4.21-4.46-9.17-2.69-13.93-2.78-.58,0-1.54,2.26-1.75,3.56-1.46,9.5-2.78,19-4.15,28.53Z" transform="translate(1049.88 -21.24)"/><path class="cls-14" d="M389.23,263.65c-3.45-2.86-7.22-2.59-11.23-1.4-3.45,1-7,1.71-10.51,2.54a74.52,74.52,0,0,0-7.28-4,22.63,22.63,0,0,0-7.34-2c-2.91-.13-5.87.6-8.81,1-1-.17-2-.28-3-.53-5.81-1.48-6.31-2.84-3-7.71,6.36-9.28,11.31-19.17,13-30.46,3.19,1.81,7.53,2,8,7.27.14,1.43,2.89,2.72,4.6,3.82.7.45,2.4-.12,2.69.36,4.17,6.85,8.51,3.09,12.72.27,5.67,3.37,8.11,2.2,10.15-4.73,7.36-.26,8.94-1.82,7.87-7.52,1.5-1.15,3.23-2,4.29-3.37,3.38-4.37-2.1-10.17,2.14-14.68.48-.5-.73-2.7-1.31-4-.37-.89-1.41-1.63-1.46-2.48-.18-3.13-.07-6.27-.07-9.94l7.11-1.72c7.21,7.82,10.06,17.35,10.82,27.68.19,2.49.14,5,.17,7.49.16,19.11,2.54,25.7,15,40.9-6.6,7.12-15,5.32-23.11,4.78-1.94-.26-3.88-.63-5.83-.75C399.7,264.12,394.46,263.91,389.23,263.65Z" transform="translate(1049.88 -21.24)"/><path class="cls-2" d="M211.89,247.59v35.26l-94.83.57q0-17.87-.08-35.73Zm-57.8,9.5v2.27c6.63,0,13.26,0,19.88-.1.49,0,1-1.38,1.43-2.13a7.28,7.28,0,0,0-2.45-1c-4.3.06-8.6.26-12.9.48-1.93.09-3.93.32-5.93.48Z" transform="translate(1049.88 -21.24)"/><path class="cls-2" d="M211.9,321.48v34.13H119.17a16.34,16.34,0,0,1-2.2-.39V321.67Zm-58.66,10.45H175.6C172.66,328.94,157.55,328.63,153.24,331.93Z" transform="translate(1049.88 -21.24)"/><path class="cls-3" d="M-118.41,166.52l2.71-3.35c.83,1.07,2.19,2.06,2.39,3.24a60.19,60.19,0,0,1,.86,9.94c0,4.43-.6,8.66-7.07,8.17L-100,236.33c41.63-1.89,63,31.44,62.94,56.5-.1,30.87-22.07,55.49-53.12,58.28-27,2.43-58.84-16.71-62-55.41H-163q-1.47-3.15-3-6.3c2.81.14,5.62.37,8.42.38,5.57,0,8.66-5.55,6-10.82l5.53-11.28,2.25-3.3c12.38-13.65,20-30.2,28.6-46.75h-21.63v-5.7a1.43,1.43,0,0,0,.5-.18H-115c-3.22-8.62-6.47-16.77-9.28-25.07-1.65-4.85-3.86-9.09-8.23-12,3.75.3,7.59,1.2,11.23.69,2.49-.34,5.69-2.11,6.82-4.19C-113,168.54-115.57,166.88-118.41,166.52Zm-3.22,76.72,16.14-6.24-5.93-15.83-10.87,21.33-.47,1Zm-23.61,51c-1.16,26.1,22.44,50.87,50.68,50.69,27.09-.18,51.2-21.27,51.21-50.9,0-29-22.58-51.28-51.46-51.21C-123.39,242.83-146.3,266.55-145.24,294.24Z" transform="translate(1049.88 -21.24)"/><path class="cls-2" d="M211.9,286.36v32.2l-94.82-.11V285.79Zm-35.68,8H153C157.58,297.36,172.12,297.24,176.22,294.36Z" transform="translate(1049.88 -21.24)"/><path class="cls-5" d="M-422,556.5a3.66,3.66,0,0,0,.81.18l1,2c.15,1.49.72,3.09.38,4.46a48.2,48.2,0,0,1-3,8.84c-1.71,3.64-3.26,7.66-6,10.49-4.54,4.76-10.29,8.37-14.82,13.15-3,3.19-5.2,7.39-7.06,11.45-2.24,4.89-3.75,10.12-5.58,15.2l-3.83,4.41-13.15,14.93c-3,3.46-5.58,7.1-4.83,12.06l-.33,1.69q-2.79,6.71-5.56,13.41c-3.54,10-10.18,16.47-20.62,19.08-3.35.83-7,1.89-9.56,4-2.88,2.38-5.94,5.8-6.66,9.23-1.25,6-4.44,10.32-8.5,14.23a13.52,13.52,0,0,1-19.1-.84,13.51,13.51,0,0,1,.84-19.1,13.52,13.52,0,0,1,19.1.84h0a13.21,13.21,0,0,1,1.75,2.39c.81,1.41,1.31,3,2.47,5.73.94-13,9.92-16.64,19.56-19.2s15.45-8.78,18.48-17.87c2.26-6.77,4.14-13.67,6.2-20.51l6.91-10.79,8.79-9.3,3.65-4c2.41-4.82,5.94-9.42,7-14.52,1.45-7.29,5-12.31,10.71-16.66a125.57,125.57,0,0,0,14-12.68c2-2.11,2.85-5.37,4.22-8.12a65.32,65.32,0,0,0-12.7,6.23c-8.58,5.22-15.85,11.66-19,21.62a32.22,32.22,0,0,1-13,17.15l-11.85,10.76-2.27,3.24-17.27-11.52,13.57-15.65c8.23-4,12.17-11.26,15.08-19.37,2.56-2.28,5.1-4.58,7.68-6.83,2.12-1.84,4.61-3.36,6.35-5.49,3.64-4.44,6.92-9.17,10.28-13.83a8.1,8.1,0,0,0,.8-2.29l4.06,1.8.44,1.76,1.56-1.12,13,2.51,2.63-.06,2.2-2Z" transform="translate(1049.88 -21.24)"/><path class="cls-3" d="M-180,295h-22.71c-1.82,22.21-11.51,39-30.72,49.47-14.31,7.8-29.51,9-45,3.91-30.85-10.11-47.12-44.28-35.67-74.69,11.22-29.78,46-46.85,79.71-31.1q6.5-12.17,13-24.46L-235,215.24l-.15-1.49,6-3.07,13.07,7.85-13.73,26.71c16,10.7,24.86,25.59,26.91,44.6H-179Zm-131.26-1.56c-.08,28.82,21.92,50.94,50.46,51.36a50.84,50.84,0,0,0,51.54-50.09v-.46c.45-28.19-23.07-51.6-51.21-51.63a51,51,0,0,0-50.79,50.82Z" transform="translate(1049.88 -21.24)"/><path class="cls-7" d="M-73.44,606.62c-10.77-.69-21.54-1.51-32.32-2-3.5-.16-3.57-2-3.45-4.57q1-22.92,2-45.82c.06-1.5,0-3,0-4.5,5.59-3.76,11.56-7.07,16.66-11.4,6-5.05,12.39-10.4,9.62-19.9,6.37,4.6,8.41,11.55,9.83,18.69a43.62,43.62,0,0,1,.75,10.39C-71.34,567.24-72.42,586.92-73.44,606.62Z" transform="translate(1049.88 -21.24)"/><path class="cls-10" d="M211.89,247.59l-94.9.1-.3-26.73L212,220.9v26.56Zm-57.77-18.28a16.7,16.7,0,0,0,.07,1.87c7.17.55,14.34,1.08,21.47-.28v-1.59Z" transform="translate(1049.88 -21.24)"/><path class="cls-15" d="M-241.12,672.61l9.88-.18,40.13.17a17.25,17.25,0,0,0,2.49,0c4.3-.67,5.76.92,5.62,5.43-.33,11-.25,21.93,0,32.89.08,3.73-1.07,4.83-4.8,4.79-17.77-.18-35.54-.1-53.32-.11Z" transform="translate(1049.88 -21.24)"/><path class="cls-2" d="M-853.88,341.13v5.11a27,27,0,0,1,5,.31,18.57,18.57,0,0,1,3.81,1.9c-1.35.66-2.67,1.83-4,1.89-5.16.23-10.33.09-15.49.09-3.17,0-6.35.18-9.49-.08-1.24-.11-2.4-1.17-3.6-1.8a16.37,16.37,0,0,1,3.37-2c1-.34,2.29-.07,4.09-.07l.31-5.57c-1.69-.17-3-.38-4.25-.41-3.54-.09-5-1.91-5-5.39q.06-47.73,0-95.47c0-3.54,1.6-5.17,5.16-5.14,7.67.07,15.33,0,23,0,5.58,0,6.66,1,6.68,6.74.06,11.83,0,23.66,0,35.49v52.51C-844.34,339.37-844.34,339.37-853.88,341.13Zm-8.07-73.65c-8.29,0-14.21,5.83-14.26,14A14.57,14.57,0,0,0-862,296.37h.09c7.52.12,14.68-7.2,14.56-14.9a14.48,14.48,0,0,0-14.64-14Zm-14.26,51.19a14.41,14.41,0,0,0,14,14.82h.19c7.59.16,14.8-6.94,14.75-14.52a14.62,14.62,0,0,0-14.21-14.39c-8.37-.13-14.65,5.87-14.71,14.09Zm14.33-59a6.61,6.61,0,0,0,6.69-6.53h0a6.44,6.44,0,0,0-6.27-6.61h-.25a6.85,6.85,0,0,0-7.11,6.56v.15c.06,3.24,3.53,6.46,6.94,6.42Z" transform="translate(1049.88 -21.24)"/><path class="cls-16" d="M-445.13,485.57c-6.56.26-6.82,7.86-11.72,10.13-.35.16-.47,1.67-.15,2.27,1.89,3.64-.74,5-3.09,6.57l-11.79-1.3c-3.71-3.12-2.4-6.41,0-9.65-2.64-3.16-5-6.09-2.29-10.36.65-1-.31-3.17-.69-4.77-1.8-7.68.22-11.23,7.07-15,2.56-1.42,4.55-4.46,6-7.19,1.58-3,2.46-6,6.78-6.21,1.32,0,2.91-2,3.77-3.44,4.26-7.15,9.75-9.5,17.63-7.36a12.1,12.1,0,0,0,3.88.45c8-.46,12.9,3.37,13.78,11.59.61,5.67,3.67,10.89,4.41,15.84,1.12,7.46,6.94,14.37,3.51,22.66-1,2.36-.15,5.48-.16,8.25-6.43-5.86-13-11.41-21.88-13.32-.66-1.39-2.11-3-1.83-4.13.73-2.94,1.71-6.08,3.53-8.42,6.3-8.13,6-13.57-1.8-19.91-1.26-1-2.39-2.22-3.32-3.11-2.23,1.07-4.36,2.46-6.7,3.14-4.12,1.19-5.41,3.69-5.19,7.81.14,2.71-.78,5.45-1,8.19a5.42,5.42,0,0,0,.88,3.52C-441.8,476.33-442.08,480.88-445.13,485.57Z" transform="translate(1049.88 -21.24)"/><path class="cls-16" d="M-426.6,130.81c-.63.52-1.49.93-1.86,1.6-2.78,5.15-6.6,5.52-11.73,3.46-2.14-.87-5.17-.43-7.5.32-3.3,1.06-5.16.58-5.8-3s-2.22-5.89-6.17-6.81c-4.17-1-4.34-2.84-1.48-8.1,2.41-2,3.31-4.2,2.27-7.44a8.35,8.35,0,0,1,.54-5.63c5.59-11.62,4.2-18-5.9-25.8l4.08-7.31c5.09-.87,10.16-2.28,15.26-2.38,2.23,0,4.6,2.47,6.73,4s3.77,4,6.07,5.06c3.62,1.69,5.84,4,5.32,8-.44,3.4.66,5.46,4,6.33s3.89,3.13,3.37,6.22a13.65,13.65,0,0,0,.11,5.83c1.2,4,1.46,7.71-1,11.41a6.68,6.68,0,0,0-.67,4.28C-420,128.41-419.88,128.4-426.6,130.81Z" transform="translate(1049.88 -21.24)"/><path class="cls-15" d="M212,247.46V220.89l81.87-.19c0,3,.58,5.47,4.06,6.06q-.06,10.45-.13,20.92Zm77.54-12.22h-7.71C285.72,239.64,286.64,239.61,289.56,235.24Zm-39-.24c4.21,4.71,5.91,4.54,7.59,0Zm-31,0c4.09,4.71,5.81,4.54,7.57,0Z" transform="translate(1049.88 -21.24)"/><path class="cls-5" d="M-216.09,218.5l-13.07-7.85c-5.39-4.4-7.16-10.65-6.58-16.93.69-7.47,3-14.79,4.53-22.17,1.26.37,2.53.71,3.79,1.1l35.36,11a14.34,14.34,0,0,0,12,5.91l7.06,2q-6,13.55-11.92,27.1c-1.06,4-3.74,4.81-7.45,4.11C-200.29,221.3-208.19,219.93-216.09,218.5Z" transform="translate(1049.88 -21.24)"/><path class="cls-15" d="M407.93,184.35l-7.11,1.72c0,3.67-.11,6.81.07,9.94,0,.85,1.09,1.59,1.46,2.48.58,1.34,1.79,3.54,1.31,4-4.24,4.51,1.24,10.31-2.14,14.68-1.06,1.37-2.79,2.22-4.29,3.37,1.07,5.7-.51,7.26-7.87,7.52-2,6.93-4.48,8.1-10.15,4.73-4.21,2.82-8.55,6.58-12.72-.27-.29-.48-2,.09-2.69-.36-1.71-1.1-4.46-2.39-4.6-3.82-.52-5.22-4.86-5.46-8-7.27-.42-4.62-1.29-9.25-1.14-13.85.16-5,1.28-9.9,2-14.85,10.1-1.78,20.23-3.42,30.3-5.37,8.4-1.63,16.74-3.62,25.1-5.46Z" transform="translate(1049.88 -21.24)"/><path class="cls-2" d="M293.85,220.7l-81.87.19-95.29.07-5.6-.41v-9.76h7.09a30.08,30.08,0,0,0,4.82.78q39.34.08,78.7,0a21.78,21.78,0,0,0,4.22-.85h12.31c-2.06-2.25-4.28-4-5.6-6.34-1.22-2.13-1.47-4.81-2.38-8.08h31.4c.36,6-2.43,10.38-8.17,14.35h53.86l5.51.11c-.41,1.55-.83,3.1-1.27,4.7l2.69,4Z" transform="translate(1049.88 -21.24)"/><path class="cls-4" d="M-220.34,144.24c-14.86-6.67-20.81-21.16-13.83-35.83,2.86-6,7.23-11.54,11.79-16.47,7.63-8.23,17.17-10.1,27.84-6.25,8.39,3,16.88,5.79,25.33,8.68l1.27,1.29c.94.66,1.88,1.32,2.81,2h0c1.27,2.39,2.64,4.73,3.8,7.17,4.11,8.6,5.15,17.24,0,25.86-.89-2.27-1.79-4.53-2.68-6.79,3-10.9-1.75-21-12.41-26.44-10.08-5.09-20-3.39-26,6.83S-212.28,125.9-217,136.8c-.09.21.21.58.55,1.41,12.13,1.93,24.11.24,35.92-3.55l2.43,4.47C-191.71,145.08-205.88,146-220.34,144.24Z" transform="translate(1049.88 -21.24)"/><path class="cls-16" d="M318.68,474.16l-1.06.11c-.62-3.25-1.29-6.5-1.83-9.76a4.72,4.72,0,0,1,.2-2.9c1.93-3.16,1.29-6-.59-8.86a3.28,3.28,0,0,1-.53-2.36c1.62-4.94,2.24-10.8,5.39-14.49,3.41-4,9.14-6,14-8.66.88-.47,2.57.37,3.8.82,6.19,2.3,13.37,1.73,17.18,9.86,1.74,3.73,4.56,6.37,3.08,10.84s-.11,7.51,4.79,8.4c3.34.61,4.13,2.51,3.73,5.78-.15,1.23,1.44,3.55,2.66,3.9,3.63,1,4.2,3.16,2.67,6-1.92,3.55-1.13,6,1.67,8.78,1,1,1.19,4.43.3,5.36-3.45,3.6-7.49,6.63-11.31,9.87-6.29-5.6-12.37-11.47-19-16.69-3.14-2.5-7.25-3.77-10.93-5.6-.55-1.15-1.8-2.5-1.53-3.39a40.83,40.83,0,0,1,3.51-8.15c4.6-8.21,2.76-16.47,1.2-25.07-13.53,5.46-16.76,12.42-12.78,21.7a8.31,8.31,0,0,1-.16,5.69A82.81,82.81,0,0,1,318.68,474.16Z" transform="translate(1049.88 -21.24)"/><path class="cls-14" d="M-913.18,541.56c-3.87.82-3.9-1.59-3.89-4.36q.11-35.19.08-70.39c5.63.33,10.61,2.41,13.75,7,15.33,22.57,30.43,45.29,45.55,68,.43.66.13,1.8.18,2.71l-6.4,4.41-3.69,2.63-40-50.46-1.59.66Q-911.21,521.68-913.18,541.56Z" transform="translate(1049.88 -21.24)"/><path class="cls-10" d="M-241.12,672.61v43h-42.61v-43Z" transform="translate(1049.88 -21.24)"/><path class="cls-14" d="M407.39,181.58c-8.36,1.84-16.7,3.83-25.1,5.46-10.07,2-20.2,3.59-30.3,5.37-.64-2.57-1.29-5.15-1.93-7.72,6.67-6.19,13.57-12.16,20-18.64,4.94-5,8.84-11,9.21-18.27.13-2.54-1.14-6.07-3-7.59-2.67-2.14-6-.82-8.34,1.9-1.71,2-3.28,4.17-4.84,6.3q-8.5,11.63-17,23.28-1.87-4.5-3.76-9-1.63-8.19-3.28-16.38l4.66-5c.76,4.92,3.85,7.24,8.6,7.18,8-.12,13.72-6.87,12.81-14.91,6.4-1,12,1,16.93,4.93,3.24,5,6.71,9.81,9.69,14.93C397.12,162.71,402.17,172.18,407.39,181.58Z" transform="translate(1049.88 -21.24)"/><path class="cls-17" d="M-81,518.44c2.77,9.5-3.67,14.85-9.62,19.9-5.1,4.33-11.07,7.64-16.66,11.4l-26.82,12.91h-1.59l-1.4,1h.12c-4.87,1.72-9.55,1-14.14-1.06a112.23,112.23,0,0,1-31.1-23.22l2.36-4.51,34.7,15.66c1.68,3.25,4.13,3.86,6.84,1.49,1.67-1.48,2.84-3.53,4.24-5.32l6.05-6,25.16-20.22.81-.89-.06.07,14.25-7.32,5.8,4.25a6.78,6.78,0,0,0,.1,1h-.11l1,1Z" transform="translate(1049.88 -21.24)"/><path class="cls-18" d="M-714.54,550.69l-1.77-17.4c.45-1.42.92-2.83,1.33-4.26,2.54-9,2.71-17.93-.94-26.72l6.69-1.91c2.3,6.71,7.55,9.73,14.09,9.83,6.87.1,12.61-2.64,15.09-9.83l6.2,1.51a49.78,49.78,0,0,0,.78,31.92q-.9,8.45-1.81,16.89Z" transform="translate(1049.88 -21.24)"/><path class="cls-7" d="M-220.34,144.24c14.48,1.8,28.63.84,42.16-5.15,2,3.41,3.68,7,5.89,10.18,2.82,4.12,3.57,7.82-.73,11.35l-15,17.82-4.06,5.22-35.36-11c-1.26-.39-2.53-.73-3.79-1.1Z" transform="translate(1049.88 -21.24)"/><path class="cls-19" d="M-422.12,630.61q-15.33,25.1-30.67,50.2c-1.21,2-2.52,3.9-3.78,5.85l-3.42-2.07q10.88-28.89,21.73-57.76c.33-1.68.65-3.36,1-5q5.08-13.59,10.18-27.16h0l1-1c1.24-2.49,2.39-5,3.74-7.45,3.13-5.64,8.94-7.84,14.16-5.48,5.71,2.58,8.25,8.25,6.39,14.36-.67,2.2-1.49,4.35-2.24,6.52Q-413.1,616.1-422.12,630.61Z" transform="translate(1049.88 -21.24)"/><path class="cls-14" d="M-956.14,467.46q0,35.35,0,70.72c0,2.22.28,4.52-3,4.41-1-8.21-2-16.43-3.19-25.92-2.9,6.56-5.54,12-7.74,17.64-1.74,4.46-4.48,7-9.39,7.64-6.47.83-12.77,2.29-19.16,3.29-1.13.19-2.39-.37-3.59-.59,1.76-3.18,2.17-6.08-1.65-8.13,2.62-1.82,5-4.17,7.89-5.37,10.65-4.46,16.92-11.61,18.17-23.64.81-7.84,3.57-15.51,5.75-23.17C-969.64,476.1-964.94,469.81-956.14,467.46Z" transform="translate(1049.88 -21.24)"/><path class="cls-16" d="M-976.4,116.48-985,118.7c-.1-10.25-1-20.57-.06-30.73.84-9.26,6.35-14,13.76-14.44,8.11-.5,14.5,4.22,17.2,12.87,3.53,11.32,11.68,16.84,23.25,18.2.2,7.94-4,13.59-8.71,19l-24.21-7.1c-3.27-5.06-3.41-9.79,0-15.17,2.13-3.34,2.61-7.72,4-12h-22.65c1.65,4.74,2.17,9.27,4.54,12.39C-974.13,106.64-974.38,111.29-976.4,116.48Z" transform="translate(1049.88 -21.24)"/><path class="cls-16" d="M382,138.48c-5-3.94-10.53-5.91-16.93-4.93-1-.07-2-.09-3-.23-8.54-1.19-11.56-4.88-11.35-13.49,0-1.32-.43-3.42-1.32-3.87-5.17-2.63-10.53-4.87-16-7.3-2.34,7.87.1,13.87,6.38,16.94a10,10,0,0,1,6.14,9.22c-7.91-4.07-13.63-9.88-15.68-18.89-1.67-7.33.34-13.69,6.73-17.22,2.8-1.55,6.57-1.24,9.65-2.41,4-1.53,5.92,1.4,8.79,2.86,2.54,1.29,6.09,1.37,9,.91,3.78-.59,6.4-.19,8.28,3.49a12.37,12.37,0,0,0,4,4.23c2.48,1.72,4.22,3.26,3.64,6.86-.25,1.53,1.58,3.75,3,5.1,2.22,2.11,2.67,3.62.62,6.29-1.18,1.53-1,4.15-1.29,6.3S382.25,136.43,382,138.48Z" transform="translate(1049.88 -21.24)"/><path class="cls-2" d="M-754.59,592c-2.42-10-5.66-19.84-7.11-30-5-35-2.58-69.4,9.73-102.74,6.16-16.7,14.54-32.18,28.54-43.84,19.2-16,41.75-15.06,59.8,2.29,15,14.41,23.31,32.58,29.41,52s8.62,39.7,8.58,60c0,19.76-1.05,39.57-6.2,58.86a28.52,28.52,0,0,1-1.24,3.22l-2.12-.66c7.37-33,8.8-66.19,3.1-99.54C-636.18,467.65-644,445.2-659.48,426c-19.16-23.89-45.67-25.34-67.18-3.74-9.22,9.27-15.65,20.34-20.35,32.32-17.65,45-18.4,90.7-5.1,136.88Z" transform="translate(1049.88 -21.24)"/><path class="cls-19" d="M344.06,259.81c2.94-.36,5.9-1.09,8.81-1a22.63,22.63,0,0,1,7.34,2,74.52,74.52,0,0,1,7.28,4c-3.74,4.87-7.45,9.76-11.23,14.6-3.18,4.08-3.94,8.61-1.45,13,8.51,15.14,9.18,31.25,6.47,47.86-.29,1.8-.38,3.63-.56,5.45h-4.81c-5.79-19-11.75-38-17.24-57.13a23.83,23.83,0,0,1,.09-11.17C340.12,271.44,342.25,265.66,344.06,259.81Z" transform="translate(1049.88 -21.24)"/><path class="cls-20" d="M-422.12,630.61q9-14.52,18-29l3,8.12v8.9c-.29,2.73-.58,5.46-.88,8.17l-8.2,86.74H-414c-1.64-16.47-3.34-32.93-4.92-49.41-1-10.2-1.78-20.43-2.67-30.65-.17-1-.35-1.91-.52-2.86Z" transform="translate(1049.88 -21.24)"/><path class="cls-6" d="M-835.17,596.58c-.48,10.42-.83,20.84-1.6,31.24-.09,1.34-2.34,3.57-3.66,3.62-9.07.32-18.17.36-27.24,0-1.35-.05-3.62-2.56-3.74-4.08-.84-10.25-1.21-20.54-1.73-30.82C-860.49,599.54-847.83,599-835.17,596.58Z" transform="translate(1049.88 -21.24)"/><path class="cls-19" d="M389.23,263.65c5.23.26,10.47.47,15.7.8,2,.12,3.89.49,5.83.75-2.11,6.64-4.12,13.31-6.38,19.9-1,2.85-1.1,5.25,1.71,7,8.28,5,12.89,12.85,16,21.59,3.26,9.06,6,18.3,9,27.46l-3.29,1.5c-11.48-14.65-23.06-29.22-34.31-44a18.2,18.2,0,0,1-3.18-9C389.68,280.93,389.58,272.24,389.23,263.65Z" transform="translate(1049.88 -21.24)"/><path class="cls-19" d="M-719.76,641.69l20.49-.29c0,8.15.08,8.24,8.08,9.12,15.38,1.69,30.74,3.47,46.13,5,3.77.38,5.47,1.86,5,5.71-.36,3-.33,6-.89,8.93-.71,3.72-3.91,5.06-6.52,2.36-2.76-2.86-4.58-6.63-7.5-11.06-4.61.39-10.69.79-16.75,1.44-10.41,1.13-20.79,2.55-31.2,3.61-8.83.9-13.06-2.34-14.73-11.06C-718.53,650.91-719.07,646.29-719.76,641.69Z" transform="translate(1049.88 -21.24)"/><path class="cls-19" d="M294.66,619.72h22.53q-4.2,40.65-8.42,81.3c-.14,1.3-.52,2.58-.78,3.88l-4.06-.18q-2.43-22.5-4.87-45Q296.87,639.74,294.66,619.72Z" transform="translate(1049.88 -21.24)"/><path class="cls-19" d="M333.68,619.71h22.6q-4.47,42.91-9,85.82l-4.29-.72q-4-37.87-8.08-75.76C334.62,626,334.12,622.84,333.68,619.71Z" transform="translate(1049.88 -21.24)"/><path class="cls-21" d="M205.92,210.72a21.78,21.78,0,0,1-4.22.85q-39.34.08-78.7,0a30.26,30.26,0,0,1-4.82-.78l.27-7.35c2.43-2.19,5.31-4.06,7.19-6.66,3.22-4.42,5.35-4.81,8.13-.46,2.29,3.57,4.26,2.55,6.72.09a9.86,9.86,0,0,1,4.32-1.94c2.91,5.1,5.25,2.32,8.13-.09a6.7,6.7,0,0,1,5.38-1.16c.9.26,1.19,3,1.55,4.68.46,2.09.19,4.52,1.2,6.23.91,1.55,3.19,3.3,4.72,3.18s3-2.36,4-4c1.07-1.8,1.2-4.16,2.32-5.92,1.29-2,3.18-3.15,4.86-.06,2,3.68,3.6,2.36,5.26-.37a52.16,52.16,0,0,1,3.36-4.47l1.5.21c.4,1.73.76,3.47,1.2,5.19s1,3.68,1.58,5.53c1.22-1.37,2.55-2.67,3.64-4.14s2-3.12,3-4.69l1.32.19c.36,1.29,1.17,2.64,1,3.86-.71,5.64,2.36,6.56,6.89,5.88C205.77,206.59,205.84,208.66,205.92,210.72Z" transform="translate(1049.88 -21.24)"/><path class="cls-19" d="M-754.59,592l2.48-.44c2-5.34,4.67-10.55,6-16.06C-740.85,553-734.6,531-723,510.92c1.83-3.17,4.7-5.75,7.08-8.61,3.65,8.79,3.48,17.72.94,26.72-.41,1.43-.88,2.84-1.33,4.26-6.58,12.76-13.19,25.5-19.71,38.3-1.64,3.23-3.47,6.52-4.26,10-.64,2.79.16,5.92.32,8.9-3.44-.36-5.89.93-7.1,4.27Z" transform="translate(1049.88 -21.24)"/><path class="cls-16" d="M61,102.76c-3.42-.77-5.94-3.83-10.55-2.14-1.87.69-5.83-4-8.67-6.5a2.94,2.94,0,0,1-.35-2.78A60.47,60.47,0,0,1,45.47,86c1.25-1.65,2.45-3.33,3.93-5.36.52-7.6,7.42-10.75,13-13.77,10.43-5.6,20.53.35,22.57,12.26.06.33,0,.85.16,1,5.19,3.22,3,8.88,4.41,13.34,1.76,5.61-1.7,9.21-7.5,8.55-2-.23-4.09.67-6.12,1.16-1.69.41-3.34,1-5,1.46-.43-4.74.53-8.83,4.6-11.94a11.43,11.43,0,0,0,3.09-4.45c2.56-5.85,1.61-7.32-4.77-7.71-1.82-.12-3.66-.14-5.49-.08-9.5.33-10.49,2-6.67,10.89a7.5,7.5,0,0,0,.42.91C64.34,96,63.47,99.47,61,102.76Z" transform="translate(1049.88 -21.24)"/><path class="cls-22" d="M287.34,210.62h-24.6a12.45,12.45,0,0,1-6-12.26c.21-2.63,0-5.3,0-8,.13-3.85.34-7.62-3.34-10.3-.63-.45-.55-1.88-1.06-3.92,11.91,9.18,24.62,3.62,36.52,5,1.29.15,2.76-1.45,4.19-2.14s2.67-1.15,4-1.72c-.43,1.41-.85,2.83-1.28,4.24h0l-1.06,1h.06l-1.55,1.07c0,3.06-.07,6.12-.11,9.18C292.84,199.24,294.56,206.43,287.34,210.62Z" transform="translate(1049.88 -21.24)"/><path class="cls-19" d="M-635.2,591.16l2.12.66-11.07,3.67c1.26-4.21-1.76-4.94-4.67-5.76-1.22-5.06-1.65-10.48-3.81-15.09-6.45-13.77-13.58-27.22-20.44-40.8a49.81,49.81,0,0,1-.78-31.93c1.77,1.93,4.05,3.59,5.22,5.84,4.37,8.41,9.25,16.71,12.35,25.6,6.22,17.86,11.48,36,16.88,54.18C-638.65,590.07-637.83,591.36-635.2,591.16Z" transform="translate(1049.88 -21.24)"/><path class="cls-19" d="M346,171.67q8.47-11.64,17-23.28c1.56-2.13,3.13-4.28,4.84-6.3,2.29-2.72,5.67-4,8.34-1.9,1.89,1.52,3.16,5,3,7.59-.37,7.27-4.27,13.26-9.21,18.27-6.38,6.48-13.28,12.45-20,18.64q-16.75,6-33.49,12.05c-3.25,1.18-6.41,2.63-9.62,4l-5-7.11c1.66-.4,3.31-.83,5-1.18,2.38-.5,4.94-.56,7.14-1.48,7-2.91,14.19-5.64,20.76-9.39C339,179.11,342.32,175,346,171.67Z" transform="translate(1049.88 -21.24)"/><path class="cls-19" d="M-661.44,629.24l14-14.67c6,8.82,4,11.11,15.59,3.29,8.68-5.85,17.51-11.48,26.12-17.43,3.11-2.16,5.38-2,7.63,1,1.6,2.12,3.48,4,4.92,6.27.81,1.26,1.83,3.51,1.29,4.29-1,1.42-3.15,3-4.68,2.86-3.52-.31-7-1.6-11.22-2.7l-26.43,25a54.47,54.47,0,0,1-4.06,3.69c-4.92,3.76-7.82,3.64-12.24-.62C-654.24,636.62-657.81,632.9-661.44,629.24Z" transform="translate(1049.88 -21.24)"/><path class="cls-19" d="M-714.54,550.69h39.66l5.88,21.88h-51.75Z" transform="translate(1049.88 -21.24)"/><path class="cls-23" d="M205.69,204.52c-4.53.68-7.6-.24-6.89-5.88.15-1.22-.66-2.57-1-3.86l-1.32-.19c-1,1.57-1.85,3.22-2.95,4.69s-2.42,2.77-3.64,4.14c-.53-1.85-1.09-3.68-1.58-5.53s-.8-3.46-1.2-5.19l-1.5-.21a52.16,52.16,0,0,0-3.36,4.47c-1.66,2.73-3.26,4-5.26.37-1.68-3.09-3.57-2-4.86.06-1.12,1.76-1.25,4.12-2.32,5.92-1,1.64-2.55,3.89-4,4s-3.81-1.63-4.72-3.18c-1-1.71-.74-4.14-1.2-6.23-.36-1.67-.65-4.42-1.55-4.68a6.7,6.7,0,0,0-5.38,1.16c-2.88,2.41-5.22,5.19-8.13.09a9.86,9.86,0,0,0-4.32,1.94c-2.46,2.46-4.43,3.48-6.72-.09-2.78-4.35-4.91-4-8.13.46-1.88,2.6-4.76,4.47-7.19,6.66-.11-2.11-.37-4.23-.33-6.34.18-7.47,4-10.29,13.93-10.42l59.84-.08a49,49,0,0,1,5,.17c5.67.56,8.93,4,9.07,9.83C206,199.24,205.78,201.88,205.69,204.52Z" transform="translate(1049.88 -21.24)"/><path class="cls-19" d="M-173,160.62c4.3-3.53,3.55-7.23.73-11.35-2.21-3.22-3.94-6.77-5.89-10.18l-2.43-4.47-2.38-6.38,18.94-4.33,2.68,6.78q1.43,5.64,2.83,11.26,1.23,6.08,2.48,12.15c1,2.56,2.09,5.11,3.13,7.67.65.89,1.16,2.39,2,2.58,4.27,1,8.61,1.68,12.92,2.47l6.06,1.62c4.82,1.55,9.58,2.64,13.57-1.87,2.84.36,5.4,2,3.94,4.71-1.13,2.08-4.33,3.85-6.82,4.19-3.64.51-7.48-.39-11.23-.69-7-.42-13.94-1-20.92-1.2-4.59-.14-8.12-1.38-9.63-6.15S-167.69,159.9-173,160.62Z" transform="translate(1049.88 -21.24)"/><path class="cls-24" d="M-390,626.71c.7,9.75,1.26,19.51,2.14,29.25,1.08,12,2.47,24.08,3.63,36.12.81,8.43,1.53,16.86,2.06,25.3.08,1.29-1.09,2.66-1.68,4-.8-1.25-2.15-2.44-2.3-3.76-1.44-12.52-2.68-25.06-4-37.59-.84-8.3-1.64-16.59-3.63-24.91-.49,5-.94,10-1.47,14.91q-2.65,25-5.37,49.93l-4.77-3.09c1.06-7.45,2.32-14.87,3.16-22.34q2.06-18.27,3.67-36.6c.91-10.39,1.5-20.81,2.23-31.22Z" transform="translate(1049.88 -21.24)"/><path class="cls-23" d="M-471.88,503.24l11.79,1.33c1.29,8.56-3.5,15.53-6,23.09-7.62,7.72-6.69,13.94,2.61,17.53l2.23,2.76c-8.51-2.12-17-4.31-25.56-6.25-1-.23-2.28.91-3.43,1.41-4.79-3.79-2.32-7.79,0-11.43C-484.3,522.09-478,512.68-471.88,503.24Z" transform="translate(1049.88 -21.24)"/><path class="cls-12" d="M-988.77,675.75l14.57.91c-.37,11-.63,22-1.17,32.92-.14,2.75-.41,6.17-2.07,7.93-1,1.13-4.75-.33-7.27-.4-.91,0-1.83.83-2.77.88-4.92.23-9.87.54-14.78.31-1.19-.06-2.29-2.06-3.43-3.16,1.11-1,2.06-2.34,3.36-3,1.89-1,4.08-1.38,6.05-2.25,4-1.74,6.31-4.65,6.46-9.2C-989.55,692.37-989.13,684.06-988.77,675.75Z" transform="translate(1049.88 -21.24)"/><path class="cls-14" d="M-924.23,465.79v30.54H-949V465.7l5.77-1c.9,3.77,3.79,4.76,7.1,4.79s6.23-.88,7.22-4.63Z" transform="translate(1049.88 -21.24)"/><path class="cls-11" d="M191.89,186.6l-59.84.08c.23-2.84.46-5.68.67-8.51,3.17,1.11,4.89-.41,6.39-3.09,1-1.87,2.79-3.35,5-5.92l1.43,7.24,1.19.39,4.34-6.85,3,4.11c2.27-2.58,4.07-4.64,6.37-7.27,3.11,5.91-.79,13.06,5.14,16.37,8.43-2.43-.28-9.89,5.58-14.53.6,4.36,1,7.6,1.52,11,3.53.43,4.63-14,9.33-.75l3.34-5,6.46,3.66Z" transform="translate(1049.88 -21.24)"/><path class="cls-12" d="M-931.74,675.92l14.65.66c0,7,.19,13.95,0,20.92-.11,4.11.82,7.42,4.29,10a8.09,8.09,0,0,1,2.69,4c1.3,4.54.07,6-4.67,6h-11.45c-5.87,0-7.25-2-6.88-8C-932.41,698.36-932.17,687.13-931.74,675.92Z" transform="translate(1049.88 -21.24)"/><path class="cls-2" d="M-736.71,700.49h21.3a28.12,28.12,0,0,0,.49-2.89c.35-6.12,3.77-8.68,9.56-6.59a6,6,0,0,1,3,4.37c.38,5,.06,10,.16,15,.07,3.64-1.92,4.6-5.08,4.41s-7.11,1-7.6-4.07c-.18-1.78,0-3.59,0-6-6.85,0-13.14-.19-19.4.19-1,.06-2.68,2.72-2.58,4.07.41,5.42-2.56,5.81-6.81,5.88-4.59.07-5.78-1.94-5.56-6.06.24-4.32.14-8.66,0-13s2.54-5.15,6.17-5.12,6.39.54,6,5.12A36.81,36.81,0,0,0-736.71,700.49Z" transform="translate(1049.88 -21.24)"/><path class="cls-24" d="M-401.11,618.6v-8.9c5.12-11.7,2.71-23-3.2-33.33-3.62-6.3-7.15-12.26-7.74-19.6h1c15,9.85,22.91,23.58,22.91,41.69,0,6.66.14,13.31.21,20Z" transform="translate(1049.88 -21.24)"/><path class="cls-19" d="M-428.34,156.78l11.36-7.2c6.51,10.56,9.33,22.44,10.46,34.45.92,9.82-.13,19.87-.82,29.78-.18,2.55-2.13,5.1-3.69,7.36a3.67,3.67,0,0,1-3.48.76c-.78-.36-1-2.09-1.33-3.25-.44-1.56-.76-3.15-1.28-5.38,7.69-4,6.68-11.09,4-18.7-1.14-3.27-3-6.85-2.55-10,1.35-10.26-4.25-17.14-10.17-24.1A37.18,37.18,0,0,1-428.34,156.78Z" transform="translate(1049.88 -21.24)"/><path class="cls-21" d="M145.06,157.69c-.09-5.71-1-11.63,4-16.06l6.63-.16,9.08,1.22c3.69,5,8.53,2.89,13.15,2.12q.42,6.44.85,12.86c-3.12,0-4,7-8.64,1.91-.14,1.88-.22,3-.3,4.08h-22C147.54,161.39,149.12,158.24,145.06,157.69Z" transform="translate(1049.88 -21.24)"/><path class="cls-19" d="M293.25,192.83c0-3.06.07-6.12.11-9.18l1.55-1.07h-.06l1.06-1h0c1.54-.66,3.36-1,4.58-2,12.91-11,25.72-22.18,38.56-33.3q1.63,8.19,3.28,16.38c-10.09,9.79-22.7,15.5-34.94,21.84C302.5,187,297.94,190,293.25,192.83Z" transform="translate(1049.88 -21.24)"/><path class="cls-2" d="M-488.21,227.59c1,3.74,2,7.48,3.09,11.21-1,7.54-2.1,15.09-3,22.65q-4,34.16-7.87,68.33c-.47,4.13-.58,8.32-1.36,12.38-.37,1.93-1.94,3.63-3,5.44-.61-1.81-1.89-3.68-1.72-5.42,1.26-13.23,2.76-26.44,4.26-39.64,1.88-16.51,3.72-33,5.77-49.51C-490.94,244.53-489.48,236.07-488.21,227.59Z" transform="translate(1049.88 -21.24)"/><path class="cls-7" d="M-151.13,562.61c4.59,2,9.27,2.78,14.14,1.06-4.25,4.14-8.31,8.51-12.86,12.28-1.55,1.29-4.41,1.67-6.57,1.45-13-1.34-25.46-4.62-37-10.83.41-1.65.83-3.3,1.25-4.93,12,1.28,24,2.33,36,4C-153,566.06-151.95,565.06-151.13,562.61Z" transform="translate(1049.88 -21.24)"/><path class="cls-22" d="M147.82,163.69h22a32.8,32.8,0,0,0,4,4.33c4,3,10,1,11.21-3.57,5.87,1.91,7.07,4.21,6.8,13l-6.46-3.66-3.34,5c-4.7-13.23-5.8,1.18-9.33.75-.47-3.36-.92-6.6-1.52-11-5.86,4.64,2.85,12.1-5.58,14.53-5.93-3.31-2-10.46-5.14-16.37-2.3,2.63-4.1,4.69-6.37,7.27l-3-4.11-4.34,6.85-1.19-.39-1.43-7.24c-2.22,2.57-4,4-5,5.92-1.5,2.68-3.22,4.2-6.39,3.09-1.48-4.66-.14-8.72,2.66-12.47C140,167.64,144,166.5,147.82,163.69Z" transform="translate(1049.88 -21.24)"/><path class="cls-19" d="M346,134.82a10,10,0,0,0-6.14-9.22c-6.28-3.07-8.72-9.07-6.38-16.94,5.43,2.43,10.79,4.67,16,7.3.89.45,1.35,2.55,1.32,3.87-.21,8.61,2.81,12.3,11.35,13.49,1,.14,2,.16,3,.23.91,8-4.78,14.79-12.81,14.91-4.75.06-7.84-2.26-8.6-7.18C344.46,139.13,345.22,137,346,134.82Z" transform="translate(1049.88 -21.24)"/><path class="cls-2" d="M122,176.37c2.35,7.37-4,14.09-10,15.46-4.82,1.11-10.06.38-15.11.46l-8.66-6.87-.66-11.26Z" transform="translate(1049.88 -21.24)"/><path class="cls-21" d="M-108.1,508.49c-1-6.49-3.2-12-8.08-17s-5-12.07-1.91-18.7a77.54,77.54,0,0,1,8.35-.39c8.14.45,13,6.12,12.35,14-.15,1.79-.43,3.56-.65,5.33-3.92,5.56.79,11.06.11,16.6ZM-115.73,487l-.89,2c2.24,1.09,4.52,3.09,6.72,3,2.85-.09,4.86-2.39,4.4-6.17Z" transform="translate(1049.88 -21.24)"/><path class="cls-1" d="M301.92,193.59l5,7.11c1.74,5.09,3.3,10.26,5.28,15.26.82,2.07,2.77,3.69,3.75,5.73.79,1.65,1.62,3.91,1.05,5.35-.42,1-3.43.75-4.73,1.76-5.63,4.41-9.58-1.63-14.39-2-3.48-.59-4.1-3.11-4.06-6.06l.42-1.31c1.21-3.85,2.94-7.63,3.5-11.58.46-3.27-.44-6.74-.74-10.13Z" transform="translate(1049.88 -21.24)"/><path class="cls-12" d="M-952.41,440c-2-10.58,10.46-21.52,20.59-18.06.77.27,1.87.56,2.15,1.15,3.23,7,10.53,8.35,17.55,12.27l-12.08,6.18c-2.48-.73-4.94-1.51-7.43-2.2-3.27-.9-6.56-1.74-9.83-2.6Z" transform="translate(1049.88 -21.24)"/><path class="cls-3" d="M-1049.25,383.51c1.24.17,2.68,0,3.7.57,8.54,4.77,13.47,12.63,17.42,21.17,8.07,17.4,11.58,36,13.67,54.87,1.77,15.83,2.38,31.79,3.51,47.69a.7.7,0,0,0,0,.71l.18,27.84-2.57.93q-.43-22.32-.88-44.63a19.77,19.77,0,0,0-.08-2.18c-.29-1.61-.72-3.2-.85-4.81-.71-8.44-1-16.92-2-25.31-2.25-18.18-5.46-36.18-13.06-53-3.8-8.41-8.5-16.23-16.9-21Z" transform="translate(1049.88 -21.24)"/><path class="cls-19" d="M-941.46,436.76c3.27.86,6.56,1.7,9.83,2.6,2.49.69,5,1.47,7.43,2.2a17.81,17.81,0,0,1-2.86,13c-1.7,2.76-1.33,6.8-1.89,10.27-1,3.75-3.92,4.66-7.22,4.63s-6.2-1-7.1-4.79c.62-3.84,2-7.81-1.81-10.92-.32-2.28-.63-4.56-1-6.84-.23-1.51-.49-3-.74-4.53h4.52C-942,440.63-941.74,438.7-941.46,436.76Zm14.58,13.48-.74-1.46-6.33.33-.4,1.49c1.35.68,2.71,1.9,4.06,1.89C-929.16,452.52-928,451.09-926.88,450.24Z" transform="translate(1049.88 -21.24)"/><path class="cls-16" d="M-165.18,86.36c-1.9-4.94-4-9.82-5.57-14.86-.38-1.23,1-3,1.57-4.64l-2.5-.69c1.92-6.58,9.8-10,16.49-9.1,5,.64,9.07,1.79,12.31,5.54,2.51,2.92,3.12,5.87-.38,8.58-1.31-.16-2.62-.41-3.93-.47-2.27-.11-5-.88-6.68.1-1.45.83-1.71,3.71-2.89,6.65-1-2.1-1.77-3.62-3-6.07-1,1.67-2.49,3.07-2.21,3.8C-160.15,79.87-163.46,82.85-165.18,86.36Z" transform="translate(1049.88 -21.24)"/><path class="cls-16" d="M-98,491.76c.22-1.77.5-3.54.65-5.33.7-7.9-4.21-13.57-12.35-14a77.54,77.54,0,0,0-8.35.39c-5.54-2.92-6.74-6.71-4.38-13.55,7.5,1.6,15.11,2.8,22.46,4.89,10.78,3.07,13.13,10,7.16,19.6C-94.53,486.45-96.31,489.09-98,491.76Z" transform="translate(1049.88 -21.24)"/><path class="cls-24" d="M-472.14,583.14c-2.91,8.11-6.85,15.41-15.08,19.37-1.86-12,1.59-22.79,8.38-32.34,3.38-4.75,8.36-8.37,12.61-12.51l2.44,1.05-.09,1.89a8.3,8.3,0,0,1-.14,1q-2.19,5.74-4.36,11.49C-469.65,576.44-470.88,579.79-472.14,583.14Z" transform="translate(1049.88 -21.24)"/><path class="cls-7" d="M-108.1,508.49l10.17-.13,3.11,1.07-7.32,10.22.06-.07-.81.89L-128,540.69c-.11-8.74,3.32-16.48,6.85-24.19h0l2.07-2v0l2-1.9Z" transform="translate(1049.88 -21.24)"/><path class="cls-16" d="M166.68,457.24c-4-5.47-9-10.51-11.89-16.55-2.73-5.81.79-10.5,7.13-12.21l17.78-4.76c4.05,5.74,4.24,9.07.13,13.81L172.51,439c-8.17,1.57-10.7,6.36-7.42,14.05C165.67,454.4,166.12,455.81,166.68,457.24Z" transform="translate(1049.88 -21.24)"/><path class="cls-19" d="M166.68,457.24c-.53-1.39-1-2.8-1.59-4.17-3.28-7.69-.75-12.48,7.42-14.05,2.45-.47,4.88-1,7.32-1.49,3.23,4.23,5.62,8.65,3,14.12-.16-1,0-2.37-.56-2.79a7.36,7.36,0,0,0-4-1.48c-.46,0-1.65,2.64-1.29,3.08a7.82,7.82,0,0,0,3.75,2.09c.57.17,1.44-.61,2.17-1-.08,1,.21,2.23-.29,2.83-4.15,4.89-2.72,10.57-2.52,16.09l-9.14.16C170.93,465.71,171.25,460.68,166.68,457.24Z" transform="translate(1049.88 -21.24)"/><path class="cls-19" d="M61,102.76c2.49-3.29,3.36-6.76,1.16-10.57a7.5,7.5,0,0,1-.42-.91c-3.82-8.94-2.83-10.56,6.67-10.89,1.83-.06,3.67,0,5.49.08,6.38.39,7.33,1.86,4.77,7.71a11.43,11.43,0,0,1-3.09,4.45c-4.07,3.11-5,7.2-4.6,11.94l2.64,4.54c-7,6.26-11.11,5.58-15.8-2.63Z" transform="translate(1049.88 -21.24)"/><path class="cls-3" d="M-1009.16,649.61v70.63l-6.23.28V649.64Z" transform="translate(1049.88 -21.24)"/><path class="cls-6" d="M-834.12,583.47l-1.2,12.11-37.81.06h-.09c.74-.66,1.53-1.93,2.22-1.88,4.1.3,8.17,1.31,12.25,1.31,7.27,0,14.54-.56,21.8-.88,0-.61,0-1.22-.08-1.83h-36.46c-.12-.57-.25-1.15-.38-1.72.09-.11.28-.25.26-.33a5.06,5.06,0,0,0-.36-.74q0-3-.1-6.1Z" transform="translate(1049.88 -21.24)"/><path class="cls-16" d="M-788.38,84.78c-3.58-4.26-7.89-8.1-10.55-12.87-3.35-6,0-11.77,7.22-14.18,2.51-.84,5.19-1.21,7.7-2,2.32-.77,4.53-1.89,6.8-2.86,4.33,5.27,4.67,9,1.2,13.6-2.57.57-5.13,1.18-7.71,1.69-6.31,1.24-9,6.3-6.46,12.09C-789.52,81.7-789,83.24-788.38,84.78Z" transform="translate(1049.88 -21.24)"/><path class="cls-19" d="M-165.18,86.36c1.72-3.51,5-6.49,3.24-11.16-.28-.73,1.2-2.13,2.21-3.8,1.2,2.45,2,4,3,6.07,1.18-2.94,1.44-5.82,2.89-6.65,1.69-1,4.41-.21,6.68-.1,1.31.06,2.62.31,3.93.47,1.11,4.89.37,8-3.08,12.44l-6.31-2.26c.77,2.68,1.31,4.58,2.06,7.22-6.5.31-7.89,6.17-10.73,10.68l-3.84-1.65h0l-2.81-2-1.27-1.29Z" transform="translate(1049.88 -21.24)"/><path class="cls-2" d="M269,78.68,271.66,74c1.39,1.94,2.33,3.25,3.26,4.57q.07,3,.14,6.09-.72,15.39-1.43,30.78c0,.32,0,.82.23,1,7.91,4.88,2.09,12.35,4.56,18.76H266.05v-14a2.79,2.79,0,0,1,1-2.17c5.07-2.28,3.92-6.78,3.7-10.7-.44-7.9-1.27-15.79-1.94-23.68C268.9,82.64,269,80.66,269,78.68Z" transform="translate(1049.88 -21.24)"/><path class="cls-2" d="M-779.82,710c-1.45,2.54-2.11,5.46-3.8,6.27-4,1.93-6.47-.18-6.54-4.75,0-2.32.1-4.65,0-7-.19-3.15.21-5.63,4.25-5.71,3.78-.07,4.95,2,4.85,5.32a7.23,7.23,0,0,0,.56,1.62H-766c1.41-2.6-.15-7,4.79-6.94,3.17.06,4.87,1,5.06,4.57.62,11.59.26,12.73-4.13,13.21-5.19.57-5-3-5.17-6.62Z" transform="translate(1049.88 -21.24)"/><path class="cls-19" d="M-788.38,84.78c-.6-1.53-1.14-3.08-1.8-4.58-2.56-5.79.15-10.85,6.46-12.09,2.58-.51,5.14-1.12,7.71-1.69,4.47,6,4.76,11.93,1.25,18.89-1.7,3.36-.45,8.2-.53,12.36l-9-.14C-784.88,93-784.41,88.24-788.38,84.78Zm13.71-6-1.06-1.33-9.19,2-.31,1.67c2.05.74,4.28,2.36,6.08,2s3-2.77,4.48-4.31Z" transform="translate(1049.88 -21.24)"/><path class="cls-25" d="M211.9,286.36l-94.83-.57v-2.36l94.83-.58Z" transform="translate(1049.88 -21.24)"/><path class="cls-2" d="M252,84.65c-.66,9.72-1.38,19.44-1.86,29.17,0,1,1.24,2.14,2.12,3a12.19,12.19,0,0,1,1.7,15.49c-2.71,4-7.06,4.15-9.9.38a12.29,12.29,0,0,1,1.48-15.88c.9-.83,2.18-2,2.13-3-.49-9.73-1.22-19.45-1.88-29.17,0-2,.09-4,.14-6l3-4.74,3,4.75Z" transform="translate(1049.88 -21.24)"/><path class="cls-2" d="M223,79.93c1-1.74,2.09-3.48,3.7-6.14,1.36,2.26,2.17,3.59,3,4.93l.15,5.88q-1,15.35-1.92,30.69c0,.31.09.8.3.92,8.27,4.63,2.66,12.37,5,18.72H227V122.45H225.8V135h-1.68V122.4h-1.51v13.84c-3.17-6.32-2.12-15.55,1.3-19.16A3.44,3.44,0,0,0,225,115c-.4-10.11-.91-20.21-1.39-30.32C223.44,83.11,223.23,81.52,223,79.93Z" transform="translate(1049.88 -21.24)"/><path class="cls-21" d="M122,176.37l-34.39-2.21,3.49-3.64c5.18-.15,4-6,7.11-8,6.56-2.26,12.8-.77,18.3,2.67,2.14,1.34,3,4.86,4.27,7.45A25.8,25.8,0,0,1,122,176.37Z" transform="translate(1049.88 -21.24)"/><path class="cls-2" d="M-1009.16,649.61h-6.23l-1.73-1.06c.33-1.06.65-2.12,1-3.18l-.66-.24-2.24,2.44c-3.54-3.21-4.1-7.27-2.5-11.4,1.31-3.36,3.73-6,7.94-5.6.86-1,1.72-2.05,2.59-3.07a17.87,17.87,0,0,0,3.11,3.33c3.71,2.43,6.17,5.5,5.68,10.15A9.41,9.41,0,0,1-1009.16,649.61Zm-3-8.88-1-.75-2.13,3.65.94.55Z" transform="translate(1049.88 -21.24)"/><path class="cls-24" d="M-484,668.73q2.77-6.71,5.56-13.41c-.28,8.9-.23,17.84-.93,26.71-.9,11.4-2.34,22.77-3.76,34.13-.17,1.38-1.65,2.6-2.53,3.9-.55-1.51-1.67-3.07-1.55-4.53,1.21-13.72,2.67-27.41,3.92-41.13C-483.08,672.55-483.71,670.62-484,668.73Z" transform="translate(1049.88 -21.24)"/><path class="cls-25" d="M117.05,318.45l94.82.11v2.93l-94.94.18Z" transform="translate(1049.88 -21.24)"/><path class="cls-26" d="M-24.06,702.09c.31-2.82.63-5.64.94-8.47,17.31-.28,14.88-1.63,14.8,14,0,2.29-1.63,4.57-2.5,6.85-2.59-1.07-5.77-1.53-7.6-3.35C-20.88,708.63-22.23,705.13-24.06,702.09Z" transform="translate(1049.88 -21.24)"/><path class="cls-26" d="M-165.29,697.53h8.48c0,3.63.37,7.35-.3,10.87a6.37,6.37,0,0,1-4.16,4.11c-3.88.6-7.91.29-11.88.17-4.65-.14-6.9-4-3.74-7.26S-169.21,700.11-165.29,697.53Z" transform="translate(1049.88 -21.24)"/><path class="cls-23" d="M-463.79,558.71l-2.44-1.05c-8.38-3.09-16.66-6.38-23-13.11a38.68,38.68,0,0,1,6.36.4c9.62,2.2,19.2,4.58,28.79,6.89l1,3.79c-1.11,4.13-3.71,4.79-7.41,3.36A11.8,11.8,0,0,0-463.79,558.71Z" transform="translate(1049.88 -21.24)"/><path class="cls-7" d="M-165.16,97.62l3.84,1.62c11.44,11.22,12.44,26.4,2.78,42.66q-1.41-5.62-2.83-11.26c5.16-8.61,4.12-17.25,0-25.85C-162.52,102.35-163.88,100-165.16,97.62Z" transform="translate(1049.88 -21.24)"/><path class="cls-26" d="M185.89,702.61l9.06,1c3.1,1.79,6.44,3.28,9.18,5.52,1.16.94,1.73,3.66,1.26,5.16-.34,1.1-2.78,2-4.38,2.16-2.93.34-5.94,0-8.91.12-4.61.19-6.77-2-6.59-6.52C185.61,707.53,185.76,705.07,185.89,702.61Z" transform="translate(1049.88 -21.24)"/><path class="cls-2" d="M-401.11,618.6l13.19-.15c4,0,8-.35,11.92.23,1.79.27,3.28,2.42,4.91,3.72-1.65,1.44-3.17,3.89-5,4.13-4.57.59-9.27.18-13.91.18h-6.28l-5.74.07Z" transform="translate(1049.88 -21.24)"/><path class="cls-26" d="M153.93,702.64l9,.94a106.24,106.24,0,0,1,10,6.09c.93.7,1.36,3.22.84,4.39s-2.42,1.82-3.85,2.38a8.4,8.4,0,0,1-3,0C153.27,716.49,153.27,716.49,153.93,702.64Z" transform="translate(1049.88 -21.24)"/><path class="cls-26" d="M36,341.83h5.8c3.67,2.09,7.52,3.94,10.9,6.42,1,.76,1.54,3.59,1,4.84s-2.85,1.58-4.42,2.23a4.09,4.09,0,0,1-1.48,0C36,355.13,34.63,358.18,36,341.83Z" transform="translate(1049.88 -21.24)"/><path class="cls-23" d="M164.75,142.69l-9.08-1.22q-1.42-2.26-2.86-4.53c.16-1.69.31-3.38.46-5.06l5.1,1.36c.68-2.34,1.42-4.92,2.17-7.5l1.84.13c.39,2.17.78,4.34,1.26,7.06l7-5.72v6.14c-.08.25-.16.5-.25.75l.71-.29c5.47,1,2.34,3.47,1,5.64Z" transform="translate(1049.88 -21.24)"/><path class="cls-26" d="M62.37,342l5.58-.27a125,125,0,0,1,11.32,6.55c1,.72,1.5,3.55.91,4.78s-2.82,1.62-4.39,2.23a5.6,5.6,0,0,1-2,0C61.32,355.32,60.92,354.85,62.37,342Z" transform="translate(1049.88 -21.24)"/><path class="cls-16" d="M-180,295l.93-5.21,4.56-6.09,7.68,4c.27.56.54,1.13.8,1.69q1.49,3.15,3,6.3l1.56,7.76a63,63,0,0,1-7.54-2.53C-172.77,299.14-176.33,297-180,295Z" transform="translate(1049.88 -21.24)"/><path class="cls-2" d="M-1014.25,490.48a19.77,19.77,0,0,0,.08,2.18c-1,2.22-2.41,4.35-2.82,6.67-1.64,9.27-3.25,18.57-4.32,27.92-1.73,15.24.7,30,6,44.35.27.71,1.18,1.18,1.78,1.76q1.23,3.1,2.44,6.21v10.11c-.19-2.28-.39-4.55-.5-5.84-.67,2.72-1.54,6.27-2.41,9.82,1.29-10.58-3.12-19.91-5.85-29.78-5.62-20.36-4.81-41.14.32-61.56,1.71-6.81,3.22-13.07-1.07-19.3.21-.21.43-.41.65-.6Q-1017.05,486.44-1014.25,490.48Z" transform="translate(1049.88 -21.24)"/><path class="cls-26" d="M-778,338.63h5.17c.16,2.79.47,5.58.42,8.37,0,1-.83,2.93-1.37,3-5.48.35-11,.39-16.45.51,0-1.91-.75-5,.13-5.55C-786.38,342.42-782.13,340.66-778,338.63Z" transform="translate(1049.88 -21.24)"/><path class="cls-26" d="M-674,284.69c.67-1.65,1.34-3.31,2-5,11.54,3,13.93,11.11,5.7,19.83-2.46,2.61-5.46,1.58-6.22-1.39C-673.65,293.83-673.6,289.24-674,284.69Z" transform="translate(1049.88 -21.24)"/><path class="cls-24" d="M-478.07,653.63c-.75-5,1.8-8.6,4.83-12.06a6.87,6.87,0,0,1,1.06,2.09c1.43,13.91,2.79,27.82,4.17,41.72l-4.86.48c-.78-9.44-1.45-18.88-2.44-28.29C-475.46,656.18-477.11,654.94-478.07,653.63Z" transform="translate(1049.88 -21.24)"/><path class="cls-16" d="M245.22,420l5.61-.52c.33,1.38.61,2.61,1,4.3l-6.33,1.31-5.72.83c-3.29.06-6.23.25-8.61,3.42-2,2.66-5.36,2.52-8,.28s-3.18-5.07-1.14-8,4.92-3.52,8.27-1.92a37.41,37.41,0,0,0,5.26,1.68C239.35,424.62,242.55,424.06,245.22,420Z" transform="translate(1049.88 -21.24)"/><path class="cls-22" d="M-189.4,529.77-192.88,516l-6.37.75c-.7-2.82-1.36-5.47-2.15-8.62l15.11-3.82c.85,3,1.59,5.62,2.42,8.57l-6.2,2.32c1.24,4.69,2.48,9.42,3.73,14.16l-.39,1.69Z" transform="translate(1049.88 -21.24)"/><path class="cls-10" d="M-892.88,195.34c6.47-8.09,15.34-12.4,25.5-13.58,14.19-1.64,26,4,36.12,13.27l-.81,1.74c-1.87-1.11-3.68-2.32-5.61-3.31-5.14-2.63-10.1-6-15.55-7.59-12.92-3.82-24.51-.25-34.78,8.15-1.25,1-2.67,1.83-4,2.74Z" transform="translate(1049.88 -21.24)"/><path class="cls-2" d="M-1049.25,383.51l2.14,2.84c3.86,18.6,6.84,37.44,11.86,55.73,3.78,13.81,10.15,26.92,15.37,40.34-.22.19-.44.39-.65.6-3.92-8.57-8.29-17-11.65-25.73-8.57-22.42-13.7-45.72-16.89-69.48-.16-1.14-.54-2.25-.81-3.37l.73-.9Z" transform="translate(1049.88 -21.24)"/><path class="cls-16" d="M271,436.24l-6.67-2.5c.32-1.31.63-2.6,1.06-4.39l5.71,1.89c2.54,2.33,4.52,6.63,8.93,2.62,1.67-.16,3.45,0,5-.54,3.63-1.29,6.78-.28,7.71,3.08a8.5,8.5,0,0,1-2.18,7.17c-2.69,2.43-5.59,1-8.19-1.62-1.87-1.88-4.66-2.85-7-4.23Z" transform="translate(1049.88 -21.24)"/><path class="cls-19" d="M-863.88,549l6.4-4.41c2.53,3,5.34,5.89,7.5,9.17,1.48,2.25,2,5.1,3,7.69-.11.59-.21,1.19-.31,1.78l-4.8,3.91-3.06-4.07.8-2.65-3.91-.67Q-861.09,554.35-863.88,549Z" transform="translate(1049.88 -21.24)"/><path class="cls-26" d="M-475.88,342.44l8.82.21c0,10.57,1,10.61-10.56,10.43-2.47,0-4.94-.13-7.41-.29-.39,0-.74-.56-2-1.55Z" transform="translate(1049.88 -21.24)"/><path class="cls-26" d="M-1038.28,326.35l6.11,4.32c1,2.75,2.32,5.45,2.73,8.29a5.56,5.56,0,0,1-2.14,4.42c-.84.58-3.17-.11-4.29-1C-1047,334-1045.78,336.42-1038.28,326.35Z" transform="translate(1049.88 -21.24)"/><path class="cls-26" d="M-447.74,341.79l10.51.76c-1.13,10.53-1.13,10.55-11.67,10.52-2.38,0-4.76-.22-7.15-.34l-.81-1.66c2.41-1.94,4.92-3.78,7.19-5.87C-448.76,344.36-448.37,343-447.74,341.79Z" transform="translate(1049.88 -21.24)"/><path class="cls-26" d="M-925.08,337.58l7.71.92c2.38,1.66,5.23,2.93,7,5.07,2.5,3,.92,5.74-3,6h-1.51C-926.51,349.68-926.54,349.64-925.08,337.58Z" transform="translate(1049.88 -21.24)"/><path class="cls-10" d="M-836.33,204c-8.44-5.23-16.09-10.46-26.07-10.65s-17.48,4.74-25.33,10.57c.92-6.11,12.72-13.09,21.21-13.33C-852.88,190.24-837.95,196.4-836.33,204Z" transform="translate(1049.88 -21.24)"/><path class="cls-19" d="M102.83,556.59l6.26,3.16c-.6,3.34-1.19,6.68-1.68,9.43-1.7.9-3.28,1.68-4.79,2.57-1.3.76-2.52,1.65-3.77,2.48-.81-1.66-2.43-3.42-2.23-5,.31-2.51,1.68-4.92,2.84-7.26C100.49,560.12,101.62,558.33,102.83,556.59Z" transform="translate(1049.88 -21.24)"/><path class="cls-24" d="M-466,693.52c.08,5,.1,9.9.27,14.84.11,3.13.58,6.24.6,9.37,0,.91-1,1.83-1.47,2.74-.9-.74-2.42-1.35-2.59-2.23A101.28,101.28,0,0,1-470.66,707c-.46-5.57-.73-11.15-1.08-16.72Z" transform="translate(1049.88 -21.24)"/><path class="cls-5" d="M-834.12,583.47h-40l-.09-2h1.84l36.24.13,1.93,1.82Z" transform="translate(1049.88 -21.24)"/><path class="cls-7" d="M-134.09,546.71c-1.4,1.79-2.57,3.84-4.24,5.32-2.71,2.37-5.16,1.76-6.84-1.49L-131,527.18Q-132.57,536.95-134.09,546.71Z" transform="translate(1049.88 -21.24)"/><path class="cls-26" d="M355.91,345.71h4.81a14.14,14.14,0,0,1,.31,2c.26,7.53-5.49,11.37-12.55,8.27-2.66-1.17-2.78-3.59-.86-5.2C350.12,348.72,353.12,347.37,355.91,345.71Z" transform="translate(1049.88 -21.24)"/><path class="cls-19" d="M-817.57,38.69l-6.63-3.15c1.41-3,2.64-6.1,4.28-9a16.87,16.87,0,0,1,4.12-4.78,3.69,3.69,0,0,1,3.53-.13c.71.53.61,2.25.69,3.46.1,1.61,0,3.23,0,5.88Z" transform="translate(1049.88 -21.24)"/><path class="cls-3" d="M-134.09,546.71q1.53-9.76,3.05-19.53l9.85-10.68c-3.53,7.71-7,15.45-6.85,24.19Z" transform="translate(1049.88 -21.24)"/><path class="cls-19" d="M88.23,185.42l8.66,6.87c-3.75,5.52-8.53,1.77-12.93,1.44l-9.86-4.07,2.44-3.78,6.17.71Z" transform="translate(1049.88 -21.24)"/><path class="cls-26" d="M303.93,704.76l4.06.18c.8,10.71.8,10.71-9.7,10.71H291.6l-.56-1.57Z" transform="translate(1049.88 -21.24)"/><path class="cls-26" d="M427.89,342.61l3.29-1.5a4.5,4.5,0,0,1,.69.69c4.74,7.31,2.63,12.38-6,14.1-3.29.65-4.62-1.76-3.63-4.18C423.55,348.45,426,345.63,427.89,342.61Z" transform="translate(1049.88 -21.24)"/><path class="cls-2" d="M194.38,403.7c-.81,3.29-1.07,5.46-2,7.32-.32.65-2.23.52-3.41.75-.14-1-.77-2.33-.35-3,3.11-4.65,3.17-4.6,3.73-10.65l11.39-1.66c0,4.13.21,7.61-.12,11-.11,1.09-1.53,2.25-2.63,3-.4.26-1.6-.73-2.44-1.14l2-3,1.9-2.84-.76-1.14Z" transform="translate(1049.88 -21.24)"/><path class="cls-19" d="M-1013.29,537.29l2.57-.93,6.91.2c3.82,2,3.41,5,1.65,8.13l-8.86,3.12h-2.52C-1017.17,544.24-1017,540.7-1013.29,537.29Z" transform="translate(1049.88 -21.24)"/><path class="cls-10" d="M-884,209.4c4.17-5.85,10.08-9,17.25-9.78A31.29,31.29,0,0,1-840,208.88l-.59,1.54a17.94,17.94,0,0,1-3.82-1.78c-10.74-8.43-25.88-10-36.61,1.16-.47.49-1.42.52-2.14.76Z" transform="translate(1049.88 -21.24)"/><path class="cls-26" d="M-405.31,716.86l4.77,3.09c1.89,1.87,3.19,3.61-1,4-.83.08-1.67.08-2.5.13-11.21.64-11.21.64-10-10.54h3.82Z" transform="translate(1049.88 -21.24)"/><path class="cls-26" d="M343,704.84l4.29.72c.12,1.13.33,2.26.35,3.4.09,6.57,0,6.7-6.5,6.68-3.13,0-6.25-.09-9.37-.18-.26,0-.5-.33-1.65-1.16Z" transform="translate(1049.88 -21.24)"/><path class="cls-2" d="M-460.65,622.6l-3.65,4-9.52.23-5.45-.15-2-.26,11.85-10.76Z" transform="translate(1049.88 -21.24)"/><path class="cls-19" d="M-700.13,149.6l3.15-6.2,9,2.08c.62,1.27,1.39,2.89,2.22,4.48.63,1.18,1.35,2.32,2,3.48-1.37.71-2.86,2.17-4.07,2a28.64,28.64,0,0,1-7.26-2.71A52.25,52.25,0,0,1-700.13,149.6Z" transform="translate(1049.88 -21.24)"/><path class="cls-19" d="M390.69,549.84l3.23-6.26c2.78,3.65,5.87,7.11,8.25,11,1.94,3.19,1.45,4.12-.94,6.59l-6.58-3.63-.51.86Z" transform="translate(1049.88 -21.24)"/><path class="cls-26" d="M-466,693.52l-5.71-3.28c-.92-1.34-4.28-2-1.13-4.42l4.86-.48,8-.79,3.42,2.07c-.61,1.52-1.25,3-1.83,4.56C-459.95,695.31-462.51,696-466,693.52Z" transform="translate(1049.88 -21.24)"/><path class="cls-23" d="M185,164.42c-1.19,4.55-7.25,6.57-11.21,3.57a31.55,31.55,0,0,1-4-4.33c.08-1.1.16-2.2.3-4.08,4.67,5.09,5.52-2,8.64-1.91,0,3.93,2.17,3.67,4.73,1.7.21,2,.34,3.27.47,4.54l1,.66Z" transform="translate(1049.88 -21.24)"/><path class="cls-10" d="M-844.78,217.9c-11.27-8.75-22.39-10.84-33.44,0-.49-4.25,2.79-7.23,9.25-9.12C-859.74,206.05-848.22,209.89-844.78,217.9Z" transform="translate(1049.88 -21.24)"/><path class="cls-23" d="M147.82,163.69c-3.8,2.81-7.87,4-12.44,2l-4.14-5,1.08-1.1L137,160.8l2.16-4.11c2.28-.93,3.12,5.76,5.92.94C149.12,158.24,147.54,161.39,147.82,163.69Z" transform="translate(1049.88 -21.24)"/><path class="cls-20" d="M-152.88,161.72c-1-2.56-2.09-5.11-3.13-7.67l17.65,3.29c-.24,1.73-.48,3.46-.71,5.19Z" transform="translate(1049.88 -21.24)"/><path class="cls-15" d="M252,84.65l-.15-6H269c0,2-.1,4-.15,5.94Z" transform="translate(1049.88 -21.24)"/><path class="cls-19" d="M-1028.28,156.87l3.4-4.55,6.75,3.49c.91,1.7,1.92,3.43,2.75,5.25a23.3,23.3,0,0,1,1,3.47c-1.33.12-3.09.85-3.93.27C-1021.78,162.37-1025,159.55-1028.28,156.87Z" transform="translate(1049.88 -21.24)"/><path class="cls-21" d="M-189.4,529.77l2.67,1.34.39-1.69c5.27-1.87,4.28,3.68,6.47,5.46l-2.36,4.51c-4.36,1.06-7.17-1.53-9.48-4.49C-193.75,532.24-193.64,529.91-189.4,529.77Z" transform="translate(1049.88 -21.24)"/><path class="cls-15" d="M229.86,84.6l-.15-5.88,16.2-.1q-.06,3-.14,6Z" transform="translate(1049.88 -21.24)"/><path class="cls-19" d="M-910,108.35l-4.36,3.39-5.71-3.09c-.92-2-1.85-3.81-2.55-5.67a23.83,23.83,0,0,1-.75-3.55c1.37,0,3.24-.66,4,0C-916.07,102.24-913.1,105.34-910,108.35Z" transform="translate(1049.88 -21.24)"/><path class="cls-3" d="M-1013.88,593.66c.87-3.55,1.74-7.1,2.41-9.82.11,1.29.31,3.56.5,5.84v37.85c-.87,1-1.73,2-2.59,3.07q.06-14.93.15-29.84l-.64-2.23-.12-3Z" transform="translate(1049.88 -21.24)"/><path class="cls-16" d="M-941.46,436.76c-.28,1.94-.55,3.87-.8,5.66h-4.52c.25,1.51.51,3,.74,4.53.33,2.28.64,4.56,1,6.84-4.84-3.33-7.84-7.55-7.37-13.77Z" transform="translate(1049.88 -21.24)"/><path class="cls-16" d="M-454,551.84c-9.59-2.31-19.17-4.69-28.79-6.89a38.68,38.68,0,0,0-6.36-.4l-1.08-1.47c1.15-.5,2.44-1.64,3.43-1.41,8.55,1.94,17.05,4.13,25.56,6.25l.11-.25,3.3,1.07,9.17,2.15c-.33.6-.7,1.72-1,1.71A33.68,33.68,0,0,1-454,551.84Z" transform="translate(1049.88 -21.24)"/><path class="cls-24" d="M-479.27,626.7l5.45.15c.24,3,.49,6,.73,9.07L-480,646.71Q-479.64,636.7-479.27,626.7Z" transform="translate(1049.88 -21.24)"/><path class="cls-3" d="M-139.12,162.53c.23-1.73.47-3.46.71-5.19a31.19,31.19,0,0,1,1.86-4.75c.13-.24,2.55.17,2.89.82a16.54,16.54,0,0,1,2,6.11,67.56,67.56,0,0,1-.35,8.88l-6.06-1.63Z" transform="translate(1049.88 -21.24)"/><path class="cls-2" d="M302.48,399.17a27.49,27.49,0,0,0-4.57,1.85c-2.63,1.64-5.09,2.06-6.76-.95-.47-.85.45-2.49.73-3.77l5.83,1.8-.19,1.26,9.8-4.9c-1.21,7.58-3.56,10.17-8.94,10.75l4.85-5.27.06-1.21Z" transform="translate(1049.88 -21.24)"/><path class="cls-10" d="M-874.81,225.24c.74-4.82,5.24-8.12,10.21-8.6,6.92-.67,13.46,2.37,15.81,8.49C-857.81,218.92-866.26,217.09-874.81,225.24Z" transform="translate(1049.88 -21.24)"/><path class="cls-15" d="M223,79.93c.2,1.59.41,3.18.61,4.76-3.61,0-7.25.16-10.83-.17-1.31-.13-2.51-1.46-3.76-2.24.91-1,1.79-2.91,2.73-2.94C215.52,79.24,219.28,79.69,223,79.93Z" transform="translate(1049.88 -21.24)"/><path class="cls-15" d="M275.06,84.68q-.06-3-.14-6.09a62.05,62.05,0,0,1,9.83.3c1.39.23,2.52,2,3.77,3.13-1.36.87-2.65,2.3-4.11,2.49A76.76,76.76,0,0,1,275.06,84.68Z" transform="translate(1049.88 -21.24)"/><path class="cls-6" d="M-872.32,581.49h-1.84c.19-11,6.37-17.61,15.9-21.8l3.91.67c-.18.61-.49,1.63-.8,2.65-4.87-1-9.17.71-11.55,4.64C-869.24,571.88-870.5,576.85-872.32,581.49Z" transform="translate(1049.88 -21.24)"/><path class="cls-2" d="M238.4,403.94v-8.78l-1.36-.22c-.47,1.76-.8,3.57-1.44,5.27a10.93,10.93,0,0,1-2.32,4.22c-.72.66-2.53.66-3.59.26-.79-.31-1.8-2-1.56-2.59.4-1,1.72-2.37,2.65-2.38,2.76,0,3.68-1.27,4.29-3.73a3.75,3.75,0,0,1,3-2.14c1,.14,2.63,1.75,2.61,2.67a47.43,47.43,0,0,1-1.38,7.67Z" transform="translate(1049.88 -21.24)"/><path class="cls-2" d="M308.86,416.9c-5.88,1-8.36,3.53-5.6,9.16a3.71,3.71,0,0,1,0,3.22c-.63.83-2.1,1-3.2,1.48a18.41,18.41,0,0,1-.1-3.32c.22-1.52,1.41-3.29.94-4.45-1.62-4-.55-6.22,3.55-7.33a42.71,42.71,0,0,0,5-2.06l2.35,5.87-.8.52Z" transform="translate(1049.88 -21.24)"/><path class="cls-27" d="M164.75,142.69l7.27-3.24,9.35,3.48-3.47,1.88C173.28,145.58,168.44,147.68,164.75,142.69Z" transform="translate(1049.88 -21.24)"/><path class="cls-3" d="M-1020.45,652.14c-1.24.94-2.42,2.59-3.73,2.7-4.28.34-8.6.13-12.91.13v-2.15l15.83-1.39Z" transform="translate(1049.88 -21.24)"/><path class="cls-3" d="M-1013.54,547.79h2.52v31.76l-2.44-6.21Q-1013.5,560.58-1013.54,547.79Z" transform="translate(1049.88 -21.24)"/><path class="cls-16" d="M-411,556.8h-1l-4.15.07-2.24-.51-.07-.82,7.42-1h22.3v.83Z" transform="translate(1049.88 -21.24)"/><path class="cls-19" d="M239.79,425.94l5.72-.83c.24,3.43.48,6.85.71,10.28l-7.13-.7C239.32,431.77,239.56,428.86,239.79,425.94Z" transform="translate(1049.88 -21.24)"/><path class="cls-3" d="M-102.14,519.65l7.32-10.22,7,2.9Z" transform="translate(1049.88 -21.24)"/><path class="cls-18" d="M-873.13,595.64l37.81-.06.15,1c-12.66,2.43-25.32,3-38,0A.93.93,0,0,1-873.13,595.64Z" transform="translate(1049.88 -21.24)"/><path class="cls-13" d="M-834.15,583.44l-1.93-1.82c.25-8.57-3.85-14.49-11.21-18.42.1-.59.2-1.19.31-1.78C-837.88,565.93-833.33,573.78-834.15,583.44Z" transform="translate(1049.88 -21.24)"/><path class="cls-27" d="M-873.49,592.37H-837c0,.61.06,1.22.08,1.83-7.26.32-14.53.88-21.8.88-4.08,0-8.15-1-12.25-1.31-.69,0-1.48,1.22-2.22,1.88Z" transform="translate(1049.88 -21.24)"/><path class="cls-19" d="M245.22,420c-2.67,4-5.87,4.6-9.62,1.42,1.51-1.6,2.8-4.08,4.6-4.53C241.53,416.58,243.52,418.88,245.22,420Z" transform="translate(1049.88 -21.24)"/><path class="cls-19" d="M-411.06,554.55l-7.42,1,.07.82,2.24.51-4,1.8-1-2,8.58-8.82,2.56,5.4Z" transform="translate(1049.88 -21.24)"/><path class="cls-2" d="M-1020.95,610.39c-.74,3.53-1,6.85-2.24,9.82-.66,1.66-2.75,3.75-4.29,3.83-2.73.15-4.7-1.76-4.64-6.11,1,1.4,1.35,2.12,1.89,2.46,1.15.73,2.42,1.26,3.63,1.88.62-1.25,1.87-2.59,1.73-3.75C-1025.33,614.74-1023.6,612.49-1020.95,610.39Z" transform="translate(1049.88 -21.24)"/><path class="cls-19" d="M-192.21,561.64q-.63,2.46-1.25,4.93c-6.81-.91-7.34-1.6-5.39-7l2.79-.12Z" transform="translate(1049.88 -21.24)"/><path class="cls-27" d="M152.81,136.94q1.44,2.26,2.86,4.53l-6.63.16-6.24-4.69Z" transform="translate(1049.88 -21.24)"/><path class="cls-19" d="M271,436.24l4.28,1.43-.3,6.88h-6.25C269.51,441.78,270.26,439,271,436.24Z" transform="translate(1049.88 -21.24)"/><path class="cls-24" d="M-196.06,559.41l-2.79.12c2.4-4.86,3.78-10.38,9.2-13.34Q-192.87,552.79-196.06,559.41Z" transform="translate(1049.88 -21.24)"/><path class="cls-4" d="M-747.06,594.77c1.21-3.34,3.66-4.63,7.1-4.27l3.12,1.92v1.67l-7.29,1.41-1.52-.52Z" transform="translate(1049.88 -21.24)"/><path class="cls-19" d="M280,433.82c-4.41,4-6.39-.29-8.93-2.62C276.68,428.5,278.12,428.9,280,433.82Z" transform="translate(1049.88 -21.24)"/><path class="cls-4" d="M-648.82,589.73c2.91.82,5.93,1.55,4.67,5.76l-7.58-1.67Z" transform="translate(1049.88 -21.24)"/><path class="cls-2" d="M-1014.21,595.56l.12,3-.06,2-4.6,9.45-1.13-.58Z" transform="translate(1049.88 -21.24)"/><path class="cls-3" d="M-1019,647.6l2.24-2.44.66.24c-.33,1.06-.65,2.12-1,3.18l-3.33,3.56-.86-.71C-1020.55,650.15-1019.8,648.87-1019,647.6Z" transform="translate(1049.88 -21.24)"/><path class="cls-3" d="M-119.16,514.52l-2.07,2Z" transform="translate(1049.88 -21.24)"/><path class="cls-19" d="M-422.12,630.61c.17,1,.35,1.91.52,2.86C-421.77,632.52-421.95,631.56-422.12,630.61Z" transform="translate(1049.88 -21.24)"/><path class="cls-3" d="M-117.23,512.67l-2,1.9Z" transform="translate(1049.88 -21.24)"/><path class="cls-8" d="M-203.16,568.57c.11-.45.22-.9.34-1.35l.58.29-.85,1.13Z" transform="translate(1049.88 -21.24)"/><path class="cls-24" d="M-1014.15,600.51l.06-2,.64,2.23A1,1,0,0,1-1014.15,600.51Z" transform="translate(1049.88 -21.24)"/><path class="cls-19" d="M-1010.88,508.52a.7.7,0,0,1,0-.71l.23.33Z" transform="translate(1049.88 -21.24)"/><path class="cls-7" d="M-82,517.55c0-.33-.07-.65-.1-1q.13.32.24.63A.55.55,0,0,1-82,517.55Z" transform="translate(1049.88 -21.24)"/><path class="cls-7" d="M-81,518.57l-1-1Z" transform="translate(1049.88 -21.24)"/><path class="cls-7" d="M-137.11,563.68l1.4-1Z" transform="translate(1049.88 -21.24)"/><path class="cls-8" d="M-204.12,569.6l1-1,.07.07Z" transform="translate(1049.88 -21.24)"/><path class="cls-27" d="M-874,589.58a5.06,5.06,0,0,1,.36.74c0,.08-.17.22-.26.33A4.79,4.79,0,0,0-874,589.58Z" transform="translate(1049.88 -21.24)"/><path class="cls-3" d="M-1049.15,383.54l-.73.9Z" transform="translate(1049.88 -21.24)"/><path class="cls-19" d="M-745.62,595l1.52.52Z" transform="translate(1049.88 -21.24)"/><path class="cls-22" d="M185,164.57l-1-.66Z" transform="translate(1049.88 -21.24)"/><path class="cls-26" d="M-165.7,694.68c.08.37.17.73.26,1.1C-165.53,695.41-165.62,695.05-165.7,694.68Z" transform="translate(1049.88 -21.24)"/><path class="cls-19" d="M318.68,474.16a83.41,83.41,0,0,0,4.52-8.83,8.31,8.31,0,0,0,.16-5.69c-4-9.28-.75-16.24,12.78-21.7,1.56,8.6,3.4,16.86-1.2,25.07a40.83,40.83,0,0,0-3.51,8.15c-.27.89,1,2.24,1.53,3.39a52.1,52.1,0,0,0-6.13,2.55C322.73,479.41,320.68,478.75,318.68,474.16ZM327,448.49c-1.55,1.62-3.38,2.8-3.22,3.55.28,1.26,1.81,2.25,2.81,3.36,1-1,2.61-1.8,2.83-2.9.18-.94-1.29-2.19-2.42-4Z" transform="translate(1049.88 -21.24)"/><path class="cls-19" d="M-976.4,116.48c2-5.19,2.27-9.84-1.51-14.81-2.37-3.12-2.89-7.65-4.54-12.43h22.57c-1.35,4.33-1.83,8.71-4,12-3.41,5.38-3.27,10.11,0,15.17ZM-965.1,99l-.78-2.12c-1.61-.08-3.22-.19-4.82-.23s-3.22,0-4.83,0l-.72,1.34c1.58,1.23,3.14,3.39,4.77,3.45C-969.36,101.53-967.22,99.91-965.1,99Z" transform="translate(1049.88 -21.24)"/><polygon class="cls-28" points="1129.87 139.31 1129.65 139.22 1129.8 139.26 1129.87 139.31"/><path class="cls-28" d="M-560.07,129.57q-2.46-39-4.9-78c-.19-3.12,0-6.25,0-9.73h94.43c1,14.11,2,28,2.92,41.85-1.56,5-1.65,9.89.89,14.64.08,1.73.15,3.45.22,5.17-2.86-4.13-5.63-8.33-8.61-12.37-1.47-2-3.2-5-5-5.14-2-.2-5.16,1.84-6.24,3.78-3.64,6.5-6.58,13.39-9.78,20.13a39.62,39.62,0,0,0-4.28-1.26c-8.94-1.63-15.1-6.38-20-14.32-4.27-7-10.67-12.64-16.13-18.87q1.42-11.06,2.86-22.09l-7.3,10.4c-1.75.78-5,1.6-5,2.32a18.59,18.59,0,0,0,2.11,8.49c3.21,5.54,7.63,10.41,10.5,16.09,4.27,8.44,9.21,16.14,16.76,22,4.48,3.45,9,6.8,13.53,10.2-.56,1.38-.81,3-1.76,4.08-1.93,2.09-4.17,5.21-6.42,5.33s-4.55-3-6.77-4.74c-.47-.38-.59-1.18-1-1.74-3.85-6-7.63-12-11.61-17.92-1.91-2.84-4.63-3.94-7.65-1.6a72.63,72.63,0,0,0-9.69,8.34C-552.3,119.31-556.07,124.54-560.07,129.57Zm46.78-64.2c-.08,8.4,4.35,13.28,12.07,13.31,8.41,0,18.55-8.42,18.8-15.68.24-6.81-8.57-14.2-16.8-14.1-7.66.1-14,7.47-14.07,16.47Zm1.08-18.56-1.46-1.34c-1.54,1.37-3.37,2.53-4.58,4.15-6.68,9-8.68,18.91-5.46,29.68,1.8,6,5.41,10.73,11.68,12.62,1.82.54,3.95.08,5.93.08l.52-1.68c-12.22-.57-15.89-8.38-16.73-18.56C-523.13,61.86-519.29,53.72-512.21,46.81Zm-33.88,7.65c-1.5,1.32-3.5,2.37-4.42,4-7.07,12.58-4.65,30.78,5.33,41.19a15.78,15.78,0,0,0,2.58,1.78l1.44-.43c-11.65-14.35-15.36-29.18-4.93-46.54Zm65.21,26.07c6.36-3.43,9.55-12.51,6.31-16.53Z" transform="translate(1049.88 -21.24)"/><path class="cls-27" d="M-478.88,138.52c1.18.9,3.15,1.61,3.41,2.72,2.36,9.85,3,19.6-3.42,28.43-9.29-.35-18.53-.27-27.14,3.9-9.38,4.55-18.35,10.36-29.5,9.32h0c-4.66-2.28-10.43.53-14.77-3.24h-2.91l-3.88-.06-1.08-26.9c2.53-3.47,4.81-7.17,7.7-10.31,1.77-1.93,4.39-3.9,6.79-4.11,1.31-.12,3.4,3.19,4.32,5.31,1.4,3.26,3.09,5.17,7,5.15a10.16,10.16,0,0,1,5.84,2.12c7.88,6.12,13.1,5.82,19.51-2,3-3.73,6.3-4.91,10.32-2.35,5.18,3.3,9.06,1.45,12.68-2.49C-482.35,142.12-480.62,140.33-478.88,138.52Z" transform="translate(1049.88 -21.24)"/><path class="cls-25" d="M-478.88,138.52c-1.72,1.81-3.45,3.6-5.14,5.44-3.62,3.94-7.5,5.79-12.68,2.49-4-2.56-7.29-1.38-10.32,2.35-6.41,7.86-11.63,8.16-19.51,2a10.16,10.16,0,0,0-5.84-2.12c-3.87,0-5.56-1.89-7-5.15-.92-2.12-3-5.43-4.32-5.31-2.4.21-5,2.18-6.79,4.11-2.89,3.14-5.17,6.84-7.7,10.31a35.9,35.9,0,0,1-.91-4.73c-.4-6.12-.68-12.26-1-18.38,4-5,7.77-10.26,12.07-15a73.81,73.81,0,0,1,9.71-8.29c3-2.34,5.74-1.24,7.65,1.6,4,5.9,7.76,11.93,11.61,17.92.36.56.48,1.36.95,1.74,2.22,1.77,4.59,4.85,6.77,4.74s4.49-3.24,6.42-5.33c1-1,1.2-2.7,1.76-4.08l3,1.8Z" transform="translate(1049.88 -21.24)"/><path class="cls-27" d="M-486,185.63q-1.86,14.4-3.74,28.8l-11.22-.82c-.1-1.58-.2-3.16-.31-4.79h-5.55v4.77h-11.42c-.21-1.71-.42-3.41-.67-5.41l-5.12.29c-.14,2-.26,3.54-.38,5.14l-3.92-3.77.65-1h-5c-.34,1.52-.65,2.91-1.07,4.77h-5.53a25.69,25.69,0,0,0,.59-3.38c.21-4.58.33-9.16.48-13.75l1.07-1.93c7.69-1,15.44-1.57,23-2.94C-504.63,190-495.34,187.67-486,185.63ZM-512.41,207c-1.41,2.09-2.72,3.18-2.59,4.05a3.89,3.89,0,0,0,2.55,2.43c.54.15,2.16-1.34,2.22-2.16.06-1-1-2.11-2.18-4.32Z" transform="translate(1049.88 -21.24)"/><path class="cls-19" d="M-466.75,98.32c-2.54-4.75-2.45-9.65-.89-14.64l3.41-4.23c10.1,7.76,11.49,14.18,5.9,25.8a8.35,8.35,0,0,0-.54,5.63,6.24,6.24,0,0,1-2.27,7.44l-6.19-5.91,1.36-1.61c4.22-1.7,5.59-5.29,4.67-9.16C-461.65,100.18-464.88,99.41-466.75,98.32Z" transform="translate(1049.88 -21.24)"/><path class="cls-20" d="M-538.16,196.54c-.15,4.59-.27,9.17-.48,13.75a25.69,25.69,0,0,1-.59,3.38l-6.95-.08q-1-8.49-1.93-17l3.13-.11,5,.12Z" transform="translate(1049.88 -21.24)"/><path class="cls-27" d="M-548.11,196.61q1,8.49,1.93,17h-1.48c-7.28.06-7.21.06-7.51-7.29-.14-3.59-.59-7.17-.9-10.75H-549Z" transform="translate(1049.88 -21.24)"/><path class="cls-29" d="M-549,195.55h-7.08q-.51-8-1-16l3.89.06Z" transform="translate(1049.88 -21.24)"/><path class="cls-4" d="M-506.82,213.59v-4.77h5.55c.11,1.63.21,3.21.31,4.79Z" transform="translate(1049.88 -21.24)"/><path class="cls-1" d="M-524.41,213.65c.12-1.6.24-3.19.38-5.14l5.15-.27c.25,2,.46,3.7.67,5.41Z" transform="translate(1049.88 -21.24)"/><path class="cls-29" d="M-486,185.63c-9.34,2-18.63,4.35-28,6-7.61,1.37-15.36,2-23,2.94q.76-5.87,1.54-11.72c11.15,1,20.12-4.77,29.5-9.32,8.61-4.17,17.85-4.25,27.14-3.9Q-482.46,177.65-486,185.63Z" transform="translate(1049.88 -21.24)"/><path class="cls-19" d="M-500.11,124.6l-3-1.8c-4.51-3.4-9-6.75-13.53-10.2-7.55-5.81-12.49-13.51-16.76-22-2.87-5.68-7.29-10.55-10.5-16.09A18.56,18.56,0,0,1-546,66c0-.72,3.24-1.54,5-2.32l4.44,11.69c5.46,6.23,11.86,11.9,16.13,18.87,4.88,7.94,11,12.69,20,14.32a39.62,39.62,0,0,1,4.28,1.26l2.13,1.65Q-497.09,118.07-500.11,124.6Z" transform="translate(1049.88 -21.24)"/><path class="cls-25" d="M-494.07,111.54l-2.13-1.65c3.2-6.74,6.14-13.63,9.78-20.13,1.08-1.94,4.24-4,6.24-3.78,1.84.18,3.57,3.16,5,5.14,3,4,5.75,8.24,8.61,12.37.19,2.43.37,4.87.56,7.31l-1.36,1.61c-7,4.37-14.34,3.7-21.72,1C-490.73,112.83-492.4,112.18-494.07,111.54Z" transform="translate(1049.88 -21.24)"/><path class="cls-2" d="M255.89,331.59h-23c-7.12-.06-11-4-11-11.2q-.07-22.71,0-45.43c0-7.48,3.87-11.3,11.41-11.32q22.71-.06,45.42,0c7.15,0,11.09,4,11.11,11.11q.09,23,0,45.93c0,6.54-4.39,10.84-11,10.9C271.2,331.64,263.55,331.59,255.89,331.59Zm0-20,1.08-.91,1-.95,1.07-.94,8-8c.32-.34.65-.67,1-1l1-1,.94-1.08.42-.61-.61.42-1.13.89-1,1-1,1-8,8c-.31.36-.62.72-.92,1.09s-.63.71-.93,1.08l-.87,1.12a.93.93,0,0,0-.4.12c-.07.05-.06.2-.09.3Zm-15-14a1.31,1.31,0,0,0-.37.15c-.06,0-.05.17-.08.26l.41-.46,1-1,15-15a1.71,1.71,0,0,0,.38-.13c.06,0,.06-.18.09-.27l-.42.45-15,15Zm7,7L264.19,290l-1.75-1.74-14.51,16.29a1.31,1.31,0,0,0-.37.15c-.06,0-.06.18-.08.27Zm24.16-9.64-.34.1a1.12,1.12,0,0,0,.08.26,2,2,0,0,0,.35-.09Z" transform="translate(1049.88 -21.24)"/><path class="cls-19" d="M-445.13,485.57c3-4.69,3.33-9.24-.39-13.8a5.42,5.42,0,0,1-.88-3.52c.18-2.74,1.1-5.48,1-8.19-.22-4.12,1.07-6.62,5.19-7.81,2.34-.68,4.47-2.07,6.7-3.14.93.89,2.06,2.08,3.32,3.11,7.75,6.34,8.1,11.78,1.8,19.91-1.82,2.34-2.8,5.48-3.53,8.42-.28,1.15,1.17,2.74,1.83,4.13C-435.67,491.51-437.68,491.63-445.13,485.57Zm5.7-19.74-.75,1.35c1.76,1,3.51,2.85,5.28,2.88,1.53,0,3.1-2,4.65-3.07-.2-.39-.41-.77-.62-1.16Z" transform="translate(1049.88 -21.24)"/><path class="cls-20" d="M-454,551.84a33.09,33.09,0,0,0,4.32.76c.29,0,.66-1.11,1-1.71l7.73,1.91c-.65,1.23-1.3,2.47-2,3.7l-4.06-1.8-6,.93Z" transform="translate(1049.88 -21.24)"/><path class="cls-18" d="M-425.35,559.59l-2.62.06,3.88-4.25-.81,2Z" transform="translate(1049.88 -21.24)"/><path class="cls-27" d="M-443,556.5c.66-1.23,1.31-2.47,2-3.7v4.34l-1.56,1.1Z" transform="translate(1049.88 -21.24)"/><path class="cls-26" d="M-424.88,557.41l.81-2,2.12,1.1-1.17,1.14Z" transform="translate(1049.88 -21.24)"/><path class="cls-23" d="M-457.88,548.74l-3.27-1.07Z" transform="translate(1049.88 -21.24)"/><path class="cls-22" d="M154.12,257.09c2-.16,4-.39,6-.48,4.3-.22,8.6-.42,12.9-.48a7.28,7.28,0,0,1,2.45,1c-.48.75-.94,2.12-1.43,2.13-6.62.15-13.25.1-19.88.1Z" transform="translate(1049.88 -21.24)"/><path class="cls-22" d="M153.24,331.93c4.31-3.3,19.42-3,22.36,0Z" transform="translate(1049.88 -21.24)"/><path class="cls-19" d="M-166.8,287.71l-7.68-4c2-7.88,4.52-15.66,5.92-23.64,2.08-11.9,4.4-23.55,12.24-33.28a14.63,14.63,0,0,0,1.74-3.55c1.05-2.56.22-4.25-2.54-4.75a26.57,26.57,0,0,0-5.41-.56c-7.48.2-15,.54-22.42.82q6-13.55,11.92-27.1c7.7,2.2,15.53,4.06,23.08,6.73,6.2,2.2,11.06,6.33,12.78,13.19l.31.41v5.7H-137l-16.05,44.45-1,.56c-.33.71-.65,1.42-1,2.14Z" transform="translate(1049.88 -21.24)"/><path class="cls-2" d="M-145.24,294.24c-1.06-27.64,21.85-51.36,50.43-51.42,28.88-.07,51.47,22.26,51.46,51.21,0,29.63-24.12,50.72-51.21,50.9C-122.8,345.06-146.4,320.29-145.24,294.24Zm49.93,46.29,2.19.12a45.5,45.5,0,0,0,28.24-10.81c1-.89,1.2-2.81,1.77-4.25,1.21-.31,2.88-.22,3.58-1,7.45-8.34,11.54-18,11.47-29.7H-91.37c.08.84.17,1.8.27,2.75l-2.2-1.49c-1.44-1.14-3.19-2.27-.24-3.71l2.43-.86c1.65.43,3.3,1.22,5,1.24,9.47.12,19,.06,28.42.06H-48c.16-12-4.34-21.34-11.33-29.69-.47-.56-1.82-.39-2.75-.56-.89-1.61-1.4-3.66-2.72-4.76A47.86,47.86,0,0,0-88,247.46c-3-2.59-9-2.61-12.09,0-8.21,1.41-16,4-22.47,9.36-1.65,1.36-2.34,3.88-3.46,5.86-.9-.16-2.39-.73-2.61-.41-2.83,4-5.64,8.07-8.06,12.34-.73,1.3.41,3.94-.46,4.85-3.7,3.83-3.76,8.51-3.92,13.25l.11,2.07c0,12.33,4.9,22.69,13,31.72l2.09,2.08c8.88,7.24,18.81,12,30.6,11.9Z" transform="translate(1049.88 -21.24)"/><path class="cls-20" d="M-137,217.61q-3.35,23.38-6.71,46.76c-.75,1.11-1.5,2.21-2.26,3.31l-7-1V262Z" transform="translate(1049.88 -21.24)"/><path class="cls-16" d="M-151.53,279c-3.23,0-4.53-1.47-3.62-4.68.71-2.52,1.42-5,2.11-7.56l7,1Z" transform="translate(1049.88 -21.24)"/><path class="cls-19" d="M-136.47,206.68c0,1.69.07,3.38.11,5.07a1.43,1.43,0,0,1-.5.18l-.31-.41C-136.94,209.91-136.7,208.29-136.47,206.68Z" transform="translate(1049.88 -21.24)"/><path class="cls-28" d="M-121.63,243.24l-1.13.28.47-1A3.77,3.77,0,0,1-121.63,243.24Z" transform="translate(1049.88 -21.24)"/><path class="cls-22" d="M176.22,294.35c-4.1,2.88-18.64,3-23.26,0Z" transform="translate(1049.88 -21.24)"/><path class="cls-4" d="M-420.19,558.64l4-1.8,4.15-.07c.59,7.34,4.12,13.3,7.74,19.6,5.91,10.29,8.32,21.63,3.2,33.33l-3-8.12c.75-2.17,1.57-4.32,2.24-6.52,1.86-6.11-.68-11.78-6.39-14.36-5.22-2.36-11-.16-14.16,5.48-1.35,2.42-2.5,5-3.74,7.45l-1,1h0c-13-2.18-26.31,13.93-19.11,27.58h-10c1.83-5.08,3.34-10.31,5.58-15.2,1.86-4.06,4-8.26,7.06-11.45,4.53-4.78,10.28-8.39,14.82-13.15,2.69-2.83,4.24-6.85,5.95-10.49a48.2,48.2,0,0,0,3-8.84C-419.47,561.73-420,560.13-420.19,558.64Z" transform="translate(1049.88 -21.24)"/><path class="cls-4" d="M-460.65,622.6l-8.75-6.92a32.22,32.22,0,0,0,13-17.15c3.17-10,10.44-16.4,19-21.62a65.32,65.32,0,0,1,12.7-6.23c-1.37,2.75-2.2,6-4.22,8.12A124.08,124.08,0,0,1-443,591.42c-5.67,4.35-9.26,9.37-10.71,16.66C-454.71,613.18-458.24,617.78-460.65,622.6Z" transform="translate(1049.88 -21.24)"/><path class="cls-4" d="M-453,555.63l6-.93a8.1,8.1,0,0,1-.8,2.29c-3.36,4.66-6.64,9.39-10.28,13.83-1.74,2.13-4.23,3.65-6.35,5.49-2.58,2.25-5.12,4.55-7.68,6.83,1.25-3.35,2.49-6.7,3.76-10q2.16-5.75,4.36-11.49c.11-.08.32-.18.31-.26a3.78,3.78,0,0,0-.17-.74l.09-1.89a11.81,11.81,0,0,1,3.35.28C-456.74,560.42-454.14,559.76-453,555.63Z" transform="translate(1049.88 -21.24)"/><path class="cls-2" d="M-456.26,622.24h10l8.93-.41c-.33,1.68-.65,3.36-1,5l-21.83-.19Z" transform="translate(1049.88 -21.24)"/><path class="cls-4" d="M-424.88,557.41l1.76.23-2.2,2C-425.2,558.87-425,558.14-424.88,557.41Z" transform="translate(1049.88 -21.24)"/><path class="cls-2" d="M-311.23,293.43a51,51,0,0,1,50.79-50.78c28.14,0,51.66,23.44,51.21,51.63a50.82,50.82,0,0,1-51.12,50.51h-.42C-289.31,344.37-311.31,322.24-311.23,293.43Zm97.07-.86-1-2-1.08-.72c.68-1.09,2.12-2.31,2-3.24-2.51-13.43-8.57-24.56-21-31.33l-4.45-2.51c-5.75-4.49-12.46-5.42-19.46-5.25l-2.06.25c-10.73-.85-19.8,3.3-28,9.61-1.47,1.14-2,3.48-3.09,5.44-5.47-2.07-15.84,18.78-14.07,30.44h44.09l.19,1.15h-45c.39,10.43,3.25,19.12,9,26.72,1.6,2.11,4,3.62,6,5.41.64,1.09,1,2.48,2,3.22,8.41,6.81,18,10.67,28.89,10.75H-259a47.11,47.11,0,0,0,28.15-10.45c1.84-1.45,3.08-2.89,1.59-5.25l.23-.25c1.61-.39,3.87-.24,4.73-1.27,6.66-8,10.47-17.13,10.24-27.72v-2a5.61,5.61,0,0,0-.07-1Z" transform="translate(1049.88 -21.24)"/><path class="cls-2" d="M154.12,229.31h21.52v1.59c-7.13,1.36-14.3.83-21.47.28C154.12,230.56,154.12,229.93,154.12,229.31Z" transform="translate(1049.88 -21.24)"/><path class="cls-28" d="M-862,267.48a14.48,14.48,0,0,1,14.64,14c.12,7.7-7,15-14.56,14.9a14.57,14.57,0,0,1-14.34-14.8h0C-876.17,273.31-870.25,267.47-862,267.48Zm-11.35,14.32a11.48,11.48,0,0,0,11.17,11.66c6.11.06,11.84-5.59,11.89-11.75,0-6.41-5.22-11.43-11.9-11.33a11,11,0,0,0-11.17,10.83v.59Z" transform="translate(1049.88 -21.24)"/><path class="cls-28" d="M-876.22,318.67c.06-8.22,6.32-14.22,14.7-14.09A14.62,14.62,0,0,1-847.31,319c0,7.58-7.16,14.68-14.75,14.52a14.4,14.4,0,0,1-14.16-14.64h0Zm14.45-11.18A11.06,11.06,0,0,0-873.32,318h0v.54c-.14,6.69,4.81,12,11.25,12,6,0,11.62-5.3,11.85-11.22a11.71,11.71,0,0,0-11.55-11.87Z" transform="translate(1049.88 -21.24)"/><path class="cls-28" d="M-861.88,259.63c-3.4,0-6.87-3.18-6.94-6.46a6.83,6.83,0,0,1,7-6.7h.22a6.43,6.43,0,0,1,6.52,6.34h0v.27a6.61,6.61,0,0,1-6.67,6.55h-.09Zm-.45-1.22c2-2.49,4-3.93,4-5.26s-2.13-2.77-3.32-4.15c-1.4,1.22-3.6,2.26-3.94,3.72-.29,1.23,1.56,3,3.25,5.69Z" transform="translate(1049.88 -21.24)"/><path class="cls-2" d="M289.56,235.24c-2.92,4.33-3.84,4.36-7.71,0Z" transform="translate(1049.88 -21.24)"/><path class="cls-2" d="M250.58,235h7.59C256.49,239.58,254.79,239.75,250.58,235Z" transform="translate(1049.88 -21.24)"/><path class="cls-2" d="M219.62,235h7.57C225.43,239.58,223.71,239.75,219.62,235Z" transform="translate(1049.88 -21.24)"/><path class="cls-20" d="M-136.47,206.68c-.23,1.61-.47,3.23-.7,4.84-1.72-6.86-6.58-11-12.78-13.19-7.55-2.67-15.38-4.53-23.08-6.73l-7.06-2,5.87-9.61c8.89.8,17.89.94,26.62,2.56,9.87,1.84,11.6,4.8,11.43,14.73C-136.22,200.4-136.36,203.54-136.47,206.68Z" transform="translate(1049.88 -21.24)"/><path class="cls-16" d="M-174.22,180l-5.87,9.61a14.34,14.34,0,0,1-12-5.91l4.06-5.22Z" transform="translate(1049.88 -21.24)"/><path class="cls-20" d="M292.85,210.73q2.1-6.53,4.18-13c.3,3.39,1.2,6.86.74,10.13-.56,4-2.29,7.73-3.5,11.58l-2.69-4C292,213.83,292.44,212.24,292.85,210.73Z" transform="translate(1049.88 -21.24)"/><path class="cls-7" d="M-164,123.86-183,128.24l2.38,6.43c-11.81,3.79-23.79,5.48-35.92,3.55-.34-.83-.64-1.2-.55-1.41,4.76-10.9,8.61-22.34,14.62-32.51s15.92-11.92,26-6.83C-165.8,102.81-161,113-164,123.86Z" transform="translate(1049.88 -21.24)"/><path class="cls-7" d="M-167.94,95.66c.94.66,1.88,1.32,2.81,2C-166.06,97-167,96.32-167.94,95.66Z" transform="translate(1049.88 -21.24)"/><path class="cls-3" d="M-102.88,520.47l.81-.89Z" transform="translate(1049.88 -21.24)"/><path class="cls-19" d="M-709.23,500.4c4.87-2.71,8.51-6.52,8.79-12.27.13-2.74-1-5.6-1.87-8.3s-2.2-5.44-3.33-8.15c-.41-8,2.16-10.65,9.67-10a10.45,10.45,0,0,0,3.93-.4c4.2-1.36,5.9,1.24,6.85,4.47.55,1.85.3,3.94.41,5.93-.7,2-.86,4.54-2.2,5.91a13.66,13.66,0,0,0-3.82,13.65c1.36,5.36,5.85,7.68,10.75,9.22-2.48,7.19-8.22,9.93-15.09,9.83C-701.68,510.13-706.88,507.11-709.23,500.4Zm10.44-24.67c-.19.55-.37,1.1-.55,1.66,1.57.71,3.16,2,4.71,2,1.27,0,2.49-1.67,3.74-2.6l-.54-1Z" transform="translate(1049.88 -21.24)"/><path class="cls-20" d="M-437.28,621.79l-8.93.41c-7.2-13.65,6.07-29.76,19.11-27.58Q-432.18,608.24-437.28,621.79Z" transform="translate(1049.88 -21.24)"/><path class="cls-20" d="M-427.1,594.62l1-1Z" transform="translate(1049.88 -21.24)"/><path class="cls-15" d="M-926.88,450.24c-1.14.81-2.27,2.24-3.41,2.25-1.35,0-2.71-1.21-4.06-1.89l.4-1.49,6.33-.33Z" transform="translate(1049.88 -21.24)"/><path class="cls-23" d="M-463.88,560.6a3.78,3.78,0,0,1,.17.74c0,.08-.2.18-.31.26A6,6,0,0,0-463.88,560.6Z" transform="translate(1049.88 -21.24)"/><path class="cls-3" d="M-1012.15,640.73l-2.22,3.45-.94-.55,2.13-3.65Z" transform="translate(1049.88 -21.24)"/><path class="cls-1" d="M-513.29,65.37c.07-9,6.37-16.37,14.07-16.47,8.23-.1,17,7.29,16.8,14.1-.25,7.26-10.39,15.71-18.8,15.68C-508.94,78.65-513.37,73.77-513.29,65.37Z" transform="translate(1049.88 -21.24)"/><path class="cls-1" d="M-512.21,46.81c-7.08,6.91-10.92,15-10.1,25,.84,10.18,4.51,18,16.73,18.56l-.52,1.68c-2,0-4.11.46-5.93-.08-6.27-1.89-9.88-6.57-11.68-12.62-3.17-10.82-1.17-20.77,5.46-29.73,1.21-1.62,3-2.78,4.58-4.15Z" transform="translate(1049.88 -21.24)"/><path class="cls-1" d="M-546.09,54.46c-10.43,17.36-6.72,32.19,4.93,46.54l-1.44.43a15.78,15.78,0,0,1-2.58-1.78c-10-10.45-12.4-28.61-5.33-41.18C-549.59,56.83-547.59,55.78-546.09,54.46Z" transform="translate(1049.88 -21.24)"/><path class="cls-1" d="M-536.59,75.44-541,63.75l7.3-10.4Q-535.15,64.38-536.59,75.44Z" transform="translate(1049.88 -21.24)"/><path class="cls-2" d="M-466,110.8c-.19-2.44-.37-4.88-.56-7.31-.07-1.72-.14-3.44-.22-5.17,1.9,1.09,5.1,1.86,5.45,3.32C-460.38,105.51-461.75,109.1-466,110.8Z" transform="translate(1049.88 -21.24)"/><path class="cls-1" d="M-480.88,80.53-474.57,64C-471.36,68-474.55,77.1-480.88,80.53Z" transform="translate(1049.88 -21.24)"/><path class="cls-29" d="M-540,196.62l-5-.12q-2.64-8.43-5.3-16.86c4.34,3.77,10.11,1,14.77,3.24Z" transform="translate(1049.88 -21.24)"/><path class="cls-22" d="M-550.29,179.64q2.65,8.43,5.3,16.86l-3.12.11-.88-1.05-4.2-15.92Z" transform="translate(1049.88 -21.24)"/><path class="cls-3" d="M-540,196.62q2.25-6.87,4.49-13.74h0q-.76,5.85-1.54,11.72l-1.07,1.93Z" transform="translate(1049.88 -21.24)"/><path class="cls-7" d="M-512.41,207c1.19,2.21,2.24,3.3,2.18,4.32-.06.82-1.68,2.31-2.22,2.16a3.89,3.89,0,0,1-2.55-2.43C-515.13,210.24-513.82,209.12-512.41,207Z" transform="translate(1049.88 -21.24)"/><path class="cls-15" d="M247.9,304.62l14.51-16.29,1.75,1.74-16.3,14.51Z" transform="translate(1049.88 -21.24)"/><path class="cls-15" d="M256.85,281.58q-7.47,7.53-15,15.05v-.05l15-14.95Z" transform="translate(1049.88 -21.24)"/><path class="cls-15" d="M267.12,300.79l-8,8-.48-.48,8-8Z" transform="translate(1049.88 -21.24)"/><path class="cls-15" d="M272,294.94l.09.27a2,2,0,0,1-.35.09,1.12,1.12,0,0,1-.08-.26Z" transform="translate(1049.88 -21.24)"/><path class="cls-15" d="M240.86,297.58l-.41.46c0-.09,0-.22.08-.26a1.2,1.2,0,0,1,.37-.15Z" transform="translate(1049.88 -21.24)"/><path class="cls-15" d="M270,297.67l-.94,1.08-.38-.39,1.13-.88Z" transform="translate(1049.88 -21.24)"/><path class="cls-15" d="M256.9,281.63l.42-.45c0,.09,0,.22-.09.27a1.71,1.71,0,0,1-.38.13Z" transform="translate(1049.88 -21.24)"/><path class="cls-15" d="M269,298.75l-1,1-.45-.45,1-1Z" transform="translate(1049.88 -21.24)"/><path class="cls-15" d="M268.06,299.79l-1,1-.48-.47,1-1Z" transform="translate(1049.88 -21.24)"/><path class="cls-15" d="M247.86,304.58l-.41.46c0-.09,0-.22.08-.27a1.2,1.2,0,0,1,.37-.15Z" transform="translate(1049.88 -21.24)"/><path class="cls-15" d="M257.67,309.4l.93-1.08.47.48-1.07.94Z" transform="translate(1049.88 -21.24)"/><path class="cls-15" d="M256.74,310.48c.31-.36.63-.71.93-1.07l.33.33-1,.95Z" transform="translate(1049.88 -21.24)"/><path class="cls-15" d="M257,310.69l-1.08.91h0l.87-1.13Z" transform="translate(1049.88 -21.24)"/><path class="cls-15" d="M255.88,311.6l-.49.43c0-.1,0-.25.09-.3a.93.93,0,0,1,.4-.12Z" transform="translate(1049.88 -21.24)"/><path class="cls-15" d="M241.9,296.63l-1,.95v.05Z" transform="translate(1049.88 -21.24)"/><path class="cls-15" d="M269.77,297.48l.61-.42-.42.61Z" transform="translate(1049.88 -21.24)"/><path class="cls-20" d="M-154.1,262.62c-.33.71-.65,1.42-1,2.13C-154.75,264-154.43,263.33-154.1,262.62Z" transform="translate(1049.88 -21.24)"/><path class="cls-24" d="M-95.31,340.48c0-13.05.12-26.1,0-39.15,0-1.24-1.21-2.47-1.85-3.71.11-.81.23-1.61.41-2.88H-141c0-.69-.07-1.38-.11-2.07,13.29,0,26.58.07,39.88,0a18.31,18.31,0,0,0,4.13-1l.06-1.19c.62-.48,1.79-1,1.8-1.43.1-13.55.08-27.1.08-41l-5-.65c3.1-2.57,9.09-2.55,12.09,0l-5.45.43v44.55c-3,1.44-1.2,2.57.24,3.71l.18,44.45Z" transform="translate(1049.88 -21.24)"/><path class="cls-24" d="M-97.1,297.59a33.16,33.16,0,0,1-3.07,4.29c-7.55,7.66-15.2,15.22-22.77,22.86a43.92,43.92,0,0,0-3,3.8l-2.08-2.08c8.75-8.53,17.48-17.08,26.28-25.55A36,36,0,0,1-97.1,297.59Z" transform="translate(1049.88 -21.24)"/><path class="cls-3" d="M-258.21,287.53q9.22-17.37,18.46-34.75l4.45,2.51q-7.57,14.81-15.16,29.59c-.87,1.68-1.9,3.29-2.86,4.93l-.2.24-1.6,2.57-4.21.26-1-.28Z" transform="translate(1049.88 -21.24)"/><path class="cls-24" d="M-260.36,292.6l1,.28.21,2.69v45h-2.17V297.65c-1.5,1.24-2.6,2-3.54,2.94-7.67,7.64-15.29,15.33-23,22.93a34.18,34.18,0,0,1-4.36,3.11,31,31,0,0,1,3.11-4.35c7.93-8,16-16,23.92-24a38.32,38.32,0,0,0,3-3.83c-.07-.38-.13-.77-.19-1.16l-.93-1.62,1.13-.05a3.7,3.7,0,0,0,.94-.08Z" transform="translate(1049.88 -21.24)"/><path class="cls-22" d="M-259.12,295.57l-.21-2.69,4.21-.26,2-.06h35l4,1v2Z" transform="translate(1049.88 -21.24)"/><path class="cls-10" d="M-260.36,292.6l-.78-1.08q-.08-21.87-.13-43.74l2.06-.25c0,11.61,0,23.23.1,34.84a32.21,32.21,0,0,0,.9,5.16Z" transform="translate(1049.88 -21.24)"/><path class="cls-3" d="M-214.15,293.57l-4-1v-2.41l2-.29,1.08.72,1,2A5.33,5.33,0,0,1-214.15,293.57Z" transform="translate(1049.88 -21.24)"/><path class="cls-26" d="M-214.16,292.57l-1-2Z" transform="translate(1049.88 -21.24)"/><path class="cls-2" d="M-873.31,281.8a11,11,0,0,1,10.57-11.41h.59c6.68-.1,12,4.92,11.9,11.33,0,6.16-5.78,11.81-11.89,11.75A11.48,11.48,0,0,1-873.31,281.8Zm16.61-1.4c-1.1-.9-2.69-3.17-4.71-3.65-3.15-.76-5.36,1.35-5.69,4.64-.31,3.12,1.38,5.06,4.5,5.34,3.31.31,5.32-1.27,5.9-6.33Z" transform="translate(1049.88 -21.24)"/><path class="cls-2" d="M-861.77,307.49a11.71,11.71,0,0,1,11.54,11.86c-.23,5.92-5.86,11.25-11.85,11.22-6.44,0-11.39-5.3-11.25-12a11.05,11.05,0,0,1,11-11.09Zm6,12.24c0-.71,0-1.42-.07-2.14-2.14-1.31-4.35-3.73-6.39-3.58-1.75.12-4.28,3-4.71,5-.72,3.32,2.24,5.55,5.14,5.14,2.18-.33,4-2.91,6-4.42Z" transform="translate(1049.88 -21.24)"/><path class="cls-2" d="M-862.34,258.41c-1.69-2.73-3.58-4.46-3.3-5.69.34-1.46,2.54-2.5,3.94-3.72,1.19,1.38,3.24,2.71,3.32,4.15S-860.35,255.92-862.34,258.41Z" transform="translate(1049.88 -21.24)"/><path class="cls-16" d="M-684.78,471.66c-.11-2,.14-4.08-.41-5.93-.95-3.23-2.65-5.83-6.85-4.47a10.45,10.45,0,0,1-3.93.4c-7.51-.63-10.08,2-9.67,10-4.72-1.43-5.34-5.45-5.63-9.43a9.39,9.39,0,0,1,5.32-9.41c1.45-.79,3.14-1.27,4.38-2.29,2.08-1.71,3.17-3.58.82-6.3-.91-1.06-1.14-4.12-.32-5,2.68-2.9,6.37-4.85,10.19-2.48,1.53,1,3.22,4.49,2.6,5.54-2.68,4.58-.29,6.78,2.78,9.61C-680.16,456.83-680,466.64-684.78,471.66Z" transform="translate(1049.88 -21.24)"/><path class="cls-2" d="M-106.09,282.63l-1.06-1.05Z" transform="translate(1049.88 -21.24)"/><path class="cls-2" d="M-107.09,281.63l-1.06-1.05Z" transform="translate(1049.88 -21.24)"/><path class="cls-2" d="M-108.09,280.63l-1.06-1.05Z" transform="translate(1049.88 -21.24)"/><path class="cls-2" d="M-109.09,279.63l-1.06-1.05Z" transform="translate(1049.88 -21.24)"/><path class="cls-2" d="M-110.09,278.63l-1.06-1.05Z" transform="translate(1049.88 -21.24)"/><path class="cls-2" d="M-111.09,277.63l-1.06-1Z" transform="translate(1049.88 -21.24)"/><path class="cls-2" d="M-98.09,290.63l-1.06-1.05Z" transform="translate(1049.88 -21.24)"/><path class="cls-2" d="M-112.09,276.63l-1.06-1Z" transform="translate(1049.88 -21.24)"/><path class="cls-2" d="M-113.09,275.63l-1.06-1Z" transform="translate(1049.88 -21.24)"/><path class="cls-2" d="M-114.09,274.63l-1.06-1Z" transform="translate(1049.88 -21.24)"/><path class="cls-2" d="M-115.09,273.63l-1.06-1Z" transform="translate(1049.88 -21.24)"/><path class="cls-2" d="M-116.09,272.63l-1.06-1Z" transform="translate(1049.88 -21.24)"/><path class="cls-2" d="M-99.09,289.63l-1.06-1.05Z" transform="translate(1049.88 -21.24)"/><path class="cls-2" d="M-117.09,271.63l-1.06-1Z" transform="translate(1049.88 -21.24)"/><path class="cls-2" d="M-118.09,270.63l-1.06-1Z" transform="translate(1049.88 -21.24)"/><path class="cls-2" d="M-119.09,269.63l-1.06-1Z" transform="translate(1049.88 -21.24)"/><path class="cls-2" d="M-100.09,288.63l-1.06-1.05Z" transform="translate(1049.88 -21.24)"/><path class="cls-2" d="M-120.09,268.63l-1.06-1Z" transform="translate(1049.88 -21.24)"/><path class="cls-2" d="M-121.09,267.63l-1.06-1Z" transform="translate(1049.88 -21.24)"/><path class="cls-2" d="M-101.09,287.63l-1.06-1.05Z" transform="translate(1049.88 -21.24)"/><path class="cls-2" d="M-102.09,286.63l-1.06-1.05Z" transform="translate(1049.88 -21.24)"/><path class="cls-2" d="M-122.09,266.63l-1.06-1Z" transform="translate(1049.88 -21.24)"/><path class="cls-2" d="M-123.09,265.63l-1.06-1Z" transform="translate(1049.88 -21.24)"/><path class="cls-2" d="M-124.09,264.63l-1.06-1Z" transform="translate(1049.88 -21.24)"/><path class="cls-2" d="M-103.09,285.63l-1.06-1.05Z" transform="translate(1049.88 -21.24)"/><path class="cls-2" d="M-104.09,284.63l-1.06-1.05Z" transform="translate(1049.88 -21.24)"/><path class="cls-2" d="M-125.09,263.63l-1.06-1Z" transform="translate(1049.88 -21.24)"/><path class="cls-2" d="M-97.08,290.53l-.06,1.19c-.34-.37-.67-.75-1-1.13Z" transform="translate(1049.88 -21.24)"/><path class="cls-2" d="M-105.09,283.63l-1.06-1.05Z" transform="translate(1049.88 -21.24)"/><path class="cls-2" d="M-89.09,299.63l-1.06-1.05Z" transform="translate(1049.88 -21.24)"/><path class="cls-2" d="M-88.09,300.63l-1.06-1.05Z" transform="translate(1049.88 -21.24)"/><path class="cls-2" d="M-87.09,301.63l-1.06-1.05Z" transform="translate(1049.88 -21.24)"/><path class="cls-2" d="M-86.09,302.63l-1.06-1.05Z" transform="translate(1049.88 -21.24)"/><path class="cls-2" d="M-85.09,303.63l-1.06-1.05Z" transform="translate(1049.88 -21.24)"/><path class="cls-2" d="M-84.09,304.63l-1.06-1.05Z" transform="translate(1049.88 -21.24)"/><path class="cls-2" d="M-83.09,305.63l-1.06-1.05Z" transform="translate(1049.88 -21.24)"/><path class="cls-2" d="M-82.09,306.63l-1.06-1.05Z" transform="translate(1049.88 -21.24)"/><path class="cls-2" d="M-81.09,307.63l-1.06-1.05Z" transform="translate(1049.88 -21.24)"/><path class="cls-2" d="M-80.09,308.63l-1.06-1.05Z" transform="translate(1049.88 -21.24)"/><path class="cls-2" d="M-79.09,309.63l-1.06-1.05Z" transform="translate(1049.88 -21.24)"/><path class="cls-2" d="M-78.09,310.63l-1.06-1.05Z" transform="translate(1049.88 -21.24)"/><path class="cls-2" d="M-77.09,311.63l-1.06-1.05Z" transform="translate(1049.88 -21.24)"/><path class="cls-2" d="M-76.09,312.63l-1.06-1.05Z" transform="translate(1049.88 -21.24)"/><path class="cls-2" d="M-75.09,313.63l-1.06-1.05Z" transform="translate(1049.88 -21.24)"/><path class="cls-2" d="M-74.09,314.63l-1.06-1.05Z" transform="translate(1049.88 -21.24)"/><path class="cls-2" d="M-73.09,315.63l-1.06-1.05Z" transform="translate(1049.88 -21.24)"/><path class="cls-2" d="M-72.09,316.63l-1.06-1.05Z" transform="translate(1049.88 -21.24)"/><path class="cls-2" d="M-71.09,317.63l-1.06-1.05Z" transform="translate(1049.88 -21.24)"/><path class="cls-2" d="M-69.09,319.63l-1.06-1.05Z" transform="translate(1049.88 -21.24)"/><path class="cls-2" d="M-68.09,320.63l-1.06-1.05Z" transform="translate(1049.88 -21.24)"/><path class="cls-2" d="M-67.09,321.63l-1.06-1.05Z" transform="translate(1049.88 -21.24)"/><path class="cls-2" d="M-66.09,322.63l-1.06-1.05Z" transform="translate(1049.88 -21.24)"/><path class="cls-2" d="M-65.09,323.63l-1.06-1.05Z" transform="translate(1049.88 -21.24)"/><path class="cls-2" d="M-64.09,324.63l-1.06-1.05Z" transform="translate(1049.88 -21.24)"/><path class="cls-2" d="M-63.09,325.63l-1.06-1.05Z" transform="translate(1049.88 -21.24)"/><path class="cls-2" d="M-70.09,318.63l-1.06-1.05Z" transform="translate(1049.88 -21.24)"/><path class="cls-2" d="M-90.09,298.63l-1.06-1.05Z" transform="translate(1049.88 -21.24)"/><path class="cls-2" d="M-81.1,281.58l-1,1.05Z" transform="translate(1049.88 -21.24)"/><path class="cls-2" d="M-80.1,280.58l-1,1.05Z" transform="translate(1049.88 -21.24)"/><path class="cls-2" d="M-79.1,279.58l-1,1.05Z" transform="translate(1049.88 -21.24)"/><path class="cls-2" d="M-88.1,288.58l-1,1.05Z" transform="translate(1049.88 -21.24)"/><path class="cls-2" d="M-78.1,278.58l-1,1.05Z" transform="translate(1049.88 -21.24)"/><path class="cls-2" d="M-77.1,277.58l-1,1.05Z" transform="translate(1049.88 -21.24)"/><path class="cls-2" d="M-89.1,289.58l-1,1.05Z" transform="translate(1049.88 -21.24)"/><path class="cls-2" d="M-76.1,276.58l-1,1Z" transform="translate(1049.88 -21.24)"/><path class="cls-2" d="M-74.1,274.58l-1,1Z" transform="translate(1049.88 -21.24)"/><path class="cls-2" d="M-73.1,273.58l-1,1Z" transform="translate(1049.88 -21.24)"/><path class="cls-2" d="M-72.1,272.58l-1,1Z" transform="translate(1049.88 -21.24)"/><path class="cls-2" d="M-71.1,271.58l-1,1Z" transform="translate(1049.88 -21.24)"/><path class="cls-2" d="M-70.1,270.58l-1,1Z" transform="translate(1049.88 -21.24)"/><path class="cls-2" d="M-69.1,269.58l-1,1Z" transform="translate(1049.88 -21.24)"/><path class="cls-2" d="M-87.1,287.58l-1,1.05Z" transform="translate(1049.88 -21.24)"/><path class="cls-2" d="M-68.1,268.58l-1,1Z" transform="translate(1049.88 -21.24)"/><path class="cls-2" d="M-86.1,286.58l-1,1.05Z" transform="translate(1049.88 -21.24)"/><path class="cls-2" d="M-67.1,267.58l-1,1Z" transform="translate(1049.88 -21.24)"/><path class="cls-2" d="M-66.1,266.58l-1,1Z" transform="translate(1049.88 -21.24)"/><path class="cls-2" d="M-85.1,285.58l-1,1.05Z" transform="translate(1049.88 -21.24)"/><path class="cls-2" d="M-90.09,290.58l-1,1.05Z" transform="translate(1049.88 -21.24)"/><path class="cls-2" d="M-65.1,265.58l-1,1Z" transform="translate(1049.88 -21.24)"/><path class="cls-2" d="M-64.1,264.58l-1,1Z" transform="translate(1049.88 -21.24)"/><path class="cls-2" d="M-63.1,263.58l-1,1Z" transform="translate(1049.88 -21.24)"/><path class="cls-2" d="M-84.1,284.58l-1,1.05Z" transform="translate(1049.88 -21.24)"/><path class="cls-2" d="M-62.1,262.58l-1,1Z" transform="translate(1049.88 -21.24)"/><path class="cls-2" d="M-83.1,283.58l-1,1.05Z" transform="translate(1049.88 -21.24)"/><path class="cls-2" d="M-82.1,282.58l-1,1.05Z" transform="translate(1049.88 -21.24)"/><path class="cls-2" d="M-75.1,275.58l-1,1Z" transform="translate(1049.88 -21.24)"/><path class="cls-2" d="M-262.08,291.6l-1.13,0-1-1.23,1.17-1.15Z" transform="translate(1049.88 -21.24)"/><path class="cls-2" d="M-256.53,297.24c-.1.13-.25.38-.3.36a9.33,9.33,0,0,1-.83-.43c.12-.12.27-.35.35-.32A4.06,4.06,0,0,1-256.53,297.24Z" transform="translate(1049.88 -21.24)"/><path class="cls-2" d="M-229.31,324.81l-.68-.52.91.27Z" transform="translate(1049.88 -21.24)"/><path class="cls-26" d="M-218.17,290.15v2.41h-27c0-.8,0-1.61.07-2.41Z" transform="translate(1049.88 -21.24)"/><path class="cls-3" d="M-245,290.15c0,.8-.05,1.61-.07,2.41h-8c-.13-.84-.26-1.67-.4-2.51l.2-.24Z" transform="translate(1049.88 -21.24)"/><path class="cls-26" d="M-253.52,290.05c.14.84.27,1.67.4,2.51l-2,.06Z" transform="translate(1049.88 -21.24)"/></g></g></svg>