<svg xmlns="http://www.w3.org/2000/svg" viewBox="0 0 384 384"><defs><style>.cls-1{fill:#fe90c1;}.cls-2{fill:#fe73ae;}.cls-3{fill:#fefefe;}.cls-4{fill:#fee570;}.cls-5{fill:#01d8df;}.cls-6{fill:#01f7fd;}.cls-7{fill:#2b3fe0;}.cls-8{fill:#4c5ce4;}.cls-9{fill:#fed301;}.cls-10{fill:#ececec;}.cls-11{fill:#ebecec;}</style></defs><g id="Layer_2" data-name="Layer 2"><g id="Layer_1-2" data-name="Layer 1"><path class="cls-1" d="M177,0h29.25a15.1,15.1,0,0,0,2.41.72c6.18.84,12.45,1.24,18.53,2.5,63.32,13.16,109.59,48.66,138.14,106.7,5.07,10.32,8,21.7,11.88,32.59a30.55,30.55,0,0,1-3.82-2.81q-19.45-19.35-38.86-38.76a28.18,28.18,0,0,0-3.86-2.73l-19.9-21.08c-5.18-5.21-10.17-10.62-15.57-15.59a28.51,28.51,0,0,0-38.76-.14c-8.3,7.7-16.05,16-24,24-3.48,3.4-7,6.74-10.41,10.2-4.37,4.43-8.64,9-13,13.44-1,.88-2.17,1.68-3.13,2.65q-47.83,47.79-95.63,95.63a32.57,32.57,0,0,0-2.49,3.2c-1.53,4.19-3.16,8.35-4.56,12.59-4.48,13.63-8.87,27.28-13.29,40.92-1.62,4.71-3.32,9.4-4.85,14.15-3.63,11.27-7.17,22.56-10.76,33.84l-.13,2.39a38.67,38.67,0,0,0,2.91,3.78q26,26.09,52.05,52.13a33.65,33.65,0,0,1,2.87,3.79c-1.2-.31-2.42-.54-3.59-.95A190.56,190.56,0,0,1,42,311.72,187.1,187.1,0,0,1,2.78,224.24c-1-6-1.86-12-2.78-18v-30a17.05,17.05,0,0,0,.77-2.39c1.42-8.48,2.31-17.09,4.27-25.45,10.39-44.07,33.68-80.07,69.21-108A185,185,0,0,1,159.4,2.86C165.26,1.89,171.13,1,177,0Z"/><path class="cls-2" d="M330.67,98.21a28.18,28.18,0,0,1,3.86,2.73Q354,120.29,373.39,139.7a30.55,30.55,0,0,0,3.82,2.81c1.51,6.52,3.17,13,4.49,19.55,1,4.94,1.55,10,2.3,14.94v30.75a10,10,0,0,0-.73,2c-.88,6.16-1.4,12.4-2.6,18.51C372.4,270,352.6,305.43,321.12,334.09a187.49,187.49,0,0,1-99.86,47.72L207,384H176.25c-6.22-1-12.51-1.68-18.64-3.09-8.59-2-17.06-4.49-25.58-6.78a33.65,33.65,0,0,0-2.87-3.79q-26-26.1-52-52.13a38.67,38.67,0,0,1-2.91-3.78c.94-.33,1.87-.66,2.81-1l46.84-15.57c11.59-3.73,23.2-7.41,34.77-11.21,6.24-2.06,12.4-4.34,18.6-6.52,1.05-.86,2.19-1.64,3.15-2.6q47.85-47.81,95.66-95.65c1-1,1.8-2,2.69-3.09,4-3.85,8-7.66,12-11.56s7.8-7.88,11.69-11.82c3-2.87,5.92-5.72,8.84-8.61,4.35-4.31,8.66-8.66,13-13C334.67,123.46,336.36,111.51,330.67,98.21Z"/><path class="cls-3" d="M132,374.13c8.52,2.29,17,4.81,25.58,6.78,6.13,1.41,12.42,2.09,18.64,3.09H0V206.25c.92,6,1.78,12,2.78,18A187.1,187.1,0,0,0,42,311.72a190.56,190.56,0,0,0,86.42,61.46C129.61,373.59,130.83,373.82,132,374.13Z"/><path class="cls-4" d="M107.79,210.54a32.57,32.57,0,0,1,2.49-3.2q47.79-47.84,95.63-95.63c1-1,2.08-1.77,3.13-2.64l34.57,34.31a2.36,2.36,0,0,1,0,.7c-1,.94-2,1.86-3,2.83q-47.55,47.54-95.1,95.1c-1.05,1.06-2.05,2.17-3.08,3.26Z"/><path class="cls-5" d="M330.67,98.21c5.69,13.3,4,25.25-6.44,35.64-4.33,4.32-8.64,8.67-13,13-2.92,2.89-5.89,5.74-8.84,8.61-3.11-3.2-6.17-6.45-9.34-9.59q-12.68-12.57-25.41-25.07a3.64,3.64,0,0,1,0-.57c1-1.12,1.91-2.3,3-3.35Q289,98.42,307.39,80.05c1.05-1,2.25-2,3.38-2.92Z"/><path class="cls-6" d="M310.77,77.13c-1.13,1-2.33,1.87-3.38,2.92Q289,98.43,270.57,116.86c-1.05,1-2,2.23-3,3.35-1-.9-2.08-1.75-3-2.7q-16.09-16-32.17-32.09c8-8,15.74-16.32,24-24a28.51,28.51,0,0,1,38.76.14C300.6,66.51,305.59,71.92,310.77,77.13Z"/><path class="cls-7" d="M123.85,297.89,77,313.46c-.94.31-1.87.64-2.81,1,0-.8.09-1.59.13-2.39a26.78,26.78,0,0,0,3.54-2.55c8.56-8.48,17-17,25.6-25.51a30.71,30.71,0,0,1,3.84-2.76Q115.57,289.56,123.85,297.89Z"/><path class="cls-8" d="M107.31,281.22a30.71,30.71,0,0,0-3.84,2.76c-8.56,8.48-17,17-25.6,25.51A26.78,26.78,0,0,1,74.33,312c3.59-11.28,7.13-22.57,10.76-33.84,1.53-4.75,3.23-9.44,4.85-14.15l17.2,16.51C107.19,280.78,107.25,281,107.31,281.22Z"/><path class="cls-9" d="M142.64,245.93a5.33,5.33,0,0,0-.17-.66c1-1.09,2-2.2,3.08-3.26q47.55-47.56,95.1-95.1c1-1,2-1.89,3-2.83,1.09,1,2.21,2,3.26,3.07q15.91,15.82,31.81,31.67c-.89,1-1.73,2.13-2.69,3.09q-47.82,47.85-95.66,95.65a39,39,0,0,1-3.15,2.59c-6.17-6.19-12.31-12.41-18.52-18.57C153.39,256.32,148,251.15,142.64,245.93Z"/><path class="cls-10" d="M142.64,245.93c5.36,5.22,10.75,10.39,16.06,15.65,6.21,6.16,12.35,12.38,18.52,18.57-6.2,2.19-12.36,4.47-18.6,6.53-11.57,3.8-23.18,7.48-34.77,11.21q-8.28-8.33-16.54-16.67c-.06-.22-.12-.44-.17-.66q12.77-12.56,25.53-25.11C136,252.24,139.31,249.1,142.64,245.93Z"/><path class="cls-11" d="M278.72,178.82q-15.9-15.84-31.81-31.67c-1-1.05-2.17-2-3.26-3.07a2.36,2.36,0,0,0,0-.7L262,126.12l5.67-5.34q12.71,12.53,25.41,25.07c3.17,3.14,6.23,6.39,9.34,9.59-3.89,3.94-7.75,7.92-11.69,11.82S282.72,175,278.72,178.82Z"/></g></g></svg>