<svg xmlns="http://www.w3.org/2000/svg" viewBox="0 0 110.64 62.12"><defs><style>.cls-1{fill:#ff2e63;}</style></defs><g id="Layer_2" data-name="Layer 2"><g id="Layer_1-2" data-name="Layer 1"><g id="SvgjsG2206"><path class="cls-1" d="M56.32,36.92A18.46,18.46,0,1,1,74.78,18.46,18.42,18.42,0,0,1,56.32,36.92Zm0-26.94a8.48,8.48,0,1,0,8.48,8.48A8.41,8.41,0,0,0,56.32,10ZM35.11,59.87c4.24-5.73,12.48-9.23,21.46-9.23,8.73,0,17,3.5,21.2,9a5,5,0,0,0,8-6c-6.24-8.24-17.22-13-29.19-13-12.23,0-23.45,5.24-29.44,13.48a4.87,4.87,0,0,0,1,7,4.78,4.78,0,0,0,3,1A6.47,6.47,0,0,0,35.11,59.87ZM90.75,24.7A11.73,11.73,0,1,1,102.47,13,11.72,11.72,0,0,1,90.75,24.7Zm0-18.46A6.74,6.74,0,1,0,97.48,13,6.7,6.7,0,0,0,90.75,6.24ZM75.28,38.17c3-4.24,9-6.74,15.47-6.74,6.23,0,12.22,2.5,15.46,6.74a2.5,2.5,0,0,0,4-3c-4-5.49-11.23-8.49-19.21-8.49s-15.47,3.5-19.46,8.74a2.68,2.68,0,0,0,.5,3.49,3.47,3.47,0,0,0,1.49.5A2.59,2.59,0,0,0,75.28,38.17ZM19.89,24.7A11.73,11.73,0,1,1,31.62,13,11.71,11.71,0,0,1,19.89,24.7Zm0-18.46A6.74,6.74,0,1,0,26.63,13,6.7,6.7,0,0,0,19.89,6.24ZM4.43,38.17c3-4.24,9-6.74,15.46-6.74,6.24,0,12.23,2.5,15.47,6.74a2.49,2.49,0,0,0,4-3c-4.24-5.49-11.47-8.74-19.46-8.74S4.43,29.94.44,35.18a3,3,0,0,0,.49,3.74,3.55,3.55,0,0,0,1.5.5A2.55,2.55,0,0,0,4.43,38.17Z"/></g></g></g></svg>