<svg id="Layer_1" data-name="Layer 1" xmlns="http://www.w3.org/2000/svg" viewBox="0 0 1484.22 703.06"><defs><style>.cls-1{fill:#edba60;}.cls-2{fill:#a8a9ad;}.cls-3{fill:#6d6e72;}.cls-4{fill:#ed625b;}.cls-5{fill:#49557e;}.cls-6{fill:#28aa90;}.cls-7{fill:#4ea5c3;}.cls-8{fill:#e8d3be;}.cls-9{fill:#f292b4;}.cls-10{fill:#d0d1d3;}.cls-11{fill:#e6bd92;}.cls-12{fill:#ec6361;}.cls-13{fill:#486d82;}.cls-14{fill:#6b518d;}.cls-15{fill:#e5e6e8;}.cls-16{fill:#2e3a62;}.cls-17{fill:#77b5cc;}.cls-18{fill:#69aba0;}.cls-19{fill:#ef986e;}.cls-20{fill:#dd875c;}.cls-21{fill:#fbacac;}.cls-22{fill:#939498;}.cls-23{fill:#f68587;}.cls-24{fill:#bdbdc0;}.cls-25{fill:#d1d9e3;}.cls-26{fill:#58595c;}.cls-27{fill:#82d0a9;}.cls-28{fill:#fcfcfb;}.cls-29{fill:#97dcdd;}</style></defs><g id="Layer_2" data-name="Layer 2"><g id="Layer_1-2" data-name="Layer 1-2"><path class="cls-1" d="M1324.88,423.32c.14,5.54.7,11.11.29,16.6-.29,3.78.09,6.06,3.95,7.78,7.71,3.43,15.11,7.57,22.78,11.12,1.35.63,3.55.22,5-.43,3.62-1.56,7-3.55,10.56-5.36l1.06-.11c2,4.59,4,5.25,8.15,2.94a52.1,52.1,0,0,1,6.13-2.55c3.68,1.83,7.79,3.1,10.93,5.6,6.59,5.22,12.67,11.09,19,16.69,13,13.83,21.72,30.49,31.07,46.74l-3.23,6.26-25.75-29.19c-2.81-3.21-5.48-6.54-8.22-9.81l-1.78,1.34c3.35,35.61,6.69,71.22,10.11,107.56H1333c.75-9.84,1.22-19.25,2.23-28.59q3-28,6.58-56c1.32-10.55,2.87-21.08,4.58-31.58.68-4.11.28-7-3.49-9.83-8.16-6-16-12.56-23.62-19.24-1.86-1.63-3.66-4.71-3.52-7,.49-7.68,1.86-15.3,2.89-22.95Z" transform="translate(0 0)"/><path class="cls-2" d="M136.7,520.32c8.7,14.53,10.32,29.74,7.22,46.5-3,16.58-3.43,33.64-5.19,50.47-1.23,11.72-2.77,23.4-4.29,35.08-.13,1-1.08,2-1.65,3l-14.65-.66c-.78-1.5-2.17-3-2.25-4.49-1.18-21.56-2.18-43.13-3.24-64.69-.37-7.72-.79-15.44-1.23-24.14-14.71,21-28.69,41.32-31.69,66.89-.83,7.08-1.12,14.23-1.93,21.32-.23,2-1.39,3.9-2.12,5.85l-14.57-.91c-.81-1.87-2.41-3.8-2.31-5.62,1.16-21.07,2-42.19,4.25-63.15.77-7.08,4.84-14,8.35-20.55,4.42-8.17,9.86-15.79,14.76-23.71,3.82-6.16,4.83-13,4.6-20.13,3.31.11,3-2.19,3-4.41q0-35.37-.05-70.72l7.1-1.76v30.63h24.81V444.55l7.24,1q0,35.19-.08,70.39C132.8,518.73,132.83,521.14,136.7,520.32Z" transform="translate(0 0)"/><path class="cls-3" d="M1025.82,680.85c-14.59,3.12-29.1,6.75-43.8,9.17-8.8,1.45-17.93.87-26.89,1.51-3.83.27-5.22-1.37-6.13-4.79-5.32-20-8.93-40.26-9-61v-7.85l-44.18-4.17c0,10.5.36,21-.1,31.38s-1.72,20.82-2.63,31.23h-8.48l-.15-1.75c-.09-.37-.18-.73-.26-1.1-4.11-22.76-8.3-45.48-12.2-68.22-1.43-8.23,1.22-12.46,9.56-14a283.55,283.55,0,0,1,28.17-3.47c4.76-.39,6.38-2.54,6.34-7-.15-13.14-.19-26.28-.27-39.41l26.82-12.91c0,1.5.1,3,0,4.5q-.95,22.9-2,45.82c-.12,2.55,0,4.41,3.45,4.57,10.78.48,21.55,1.3,32.32,2-.06,26.39-2.56,52.49-9.13,78.13-.45,1.75-.83,3.53-1.1,4.67l60.55,4.2C1026.45,675.21,1026.13,678,1025.82,680.85Z" transform="translate(0 0)"/><path class="cls-4" d="M274.59,76.43c3.66,0,7.47-.63,10.94.19,4.19,1,9.17,2.22,11.93,5.12,10.31,10.86,22.29,19.4,34.83,27.32q10.32,6.52,20.61,13.1l-3.15,6.2-47.42-18.5c-.54,17.13-1.12,35.32-1.69,53.51l-63.87,18.95a29.55,29.55,0,0,1-.62-3.86c-.8-28.63-1.53-57.27-2.39-85.9a14.17,14.17,0,0,0-1.58-5.62c-6.43-13.16-13.06-26.22-19.38-39.43-.91-1.89-1.41-4.82-.59-6.57,4.22-9,8.93-17.78,13.47-26.64l6.63,3.15a16.24,16.24,0,0,1-.49,4.17c-1.61,4.18-2.91,8.62-5.33,12.31-4.18,6.39-2.87,11,2.15,16.37,6.45,6.89,12,14.62,17.76,22.15,2.19,2.88,4.47,4.51,8.29,4.08,3.62-.41,7.3-.19,10.95-.24Z" transform="translate(0 0)"/><path class="cls-4" d="M1296.1,414.15c.36,1,1.08,2,1,2.93-.66,8.94-1.25,17.9-2.37,26.78a8.91,8.91,0,0,1-3.8,5.68c-8.53,5.14-17.24,10-26,14.65-3,1.56-4.21,3.26-4.44,6.76-1.55,23-3.42,46-5.19,69l-62.41.22c-1.35-15.13-2.71-30.27-4.19-46.81-3.19,4.39-5.86,7.68-8.12,11.23-6.31,9.93-12.44,20-18.68,29.95-.86,1.39-1.93,2.64-2.9,4l-6.26-3.16c7-18.57,11.79-38.08,23.55-54.68,4.88-6.88,8.79-14.44,13.11-21.71a18.34,18.34,0,0,1,16-9.43c5.15-.19,10.31-.11,15.47-.14l9.14-.16c9,.64,17.79.51,26.53-2.13,7.6-2.3,15.35-4.13,23.1-5.9,3.48-.79,5.29-2.1,5.53-6.08.38-6.26,1.54-12.48,2.49-18.69a11.38,11.38,0,0,1,1.34-3Z" transform="translate(0 0)"/><path class="cls-1" d="M48.54,183.45c-3.17.22-3.77-1.39-3.62-4.29q1.5-30.6,2.8-61.22a6.66,6.66,0,0,0-.57-1.48c-8.34-.34-16.94-.77-25.55-1-3.62-.1-5,1.82-3.17,5.12,2,3.59,4.34,7,6.53,10.49l-3.36,4.55C15.29,130.13,8.55,125,2.83,119c-4.25-4.5-2.92-8.65,3.12-10.59a162.52,162.52,0,0,1,21.23-4.92c12.52-2.21,25.11-4,37.67-6l8.63-2.22h12.6l24.24,7.11c9.27,1.62,18.52,3.37,27.83,4.78,3.41.51,4.66-1.82,3.41-4.74-1.75-4.08-4-8-6.05-11.91l4.36-3.39c5.94,6.39,12.22,12.5,17.67,19.27,3,3.67,1.41,7.39-3.6,8.76a93.16,93.16,0,0,1-18.63,3c-8.08.5-16.21.13-23.46.13V172.4q.18,3.75,0,7.49c-.13,1.23-1.15,2.37-1.76,3.55Z" transform="translate(0 0)"/><path class="cls-5" d="M1192.86,540.19l62.41-.22a438.89,438.89,0,0,1-2.75,67.32c-2.81,25-5.15,50-7.69,75l-9.06-1q-1.47-27.91-2.92-55.83-1.12-21.94-2.09-43.9c-.2-4.3-2.21-7-6.56-7.3-3.67-.26-6.34,2.79-6.56,7.24q-2.46,50.38-4.85,100.76l-9-.94c-1.61-14.72-3.28-29.44-4.82-44.17-1.9-18.19-4.15-36.37-5.38-54.61C1192.66,568.53,1193.06,554.34,1192.86,540.19Z" transform="translate(0 0)"/><path class="cls-6" d="M1123.48,87.87c3.63,2.62,7.17,5.37,10.91,7.83,5.81,3.83,7.14,9.33,5.93,15.67a110.4,110.4,0,0,1-3.44,14c-1.06,3.25-1,5.21,2.23,7.37s6,5.66,8.94,8.56c-3.11,2-1.93,7.82-7.11,8l-11.14-10h-.15l.22.09q1.35,13,2.72,26l-6.17-.71-2.44,3.78,9.86,4.07c.7,4.49,1.5,9,2,13.48.11,1-.73,2.06-1.13,3.1-1.82-.1-3.65-.29-5.47-.28q-30.21.16-60.41.38c-.4-1.51-1.13-3-1.15-4.52-.21-16.84,3.58-33,8.53-48.94,3.21-10.3,7.66-20.23,10.73-30.57,3.22-10.82,9.92-17.3,20.71-19.9C1112.37,93.45,1116.46,94.13,1123.48,87.87Z" transform="translate(0 0)"/><path class="cls-7" d="M236.77,182.32l63.87-18.95c9.35,14,14.16,30,19.14,45.86.9,2.85,1.9,5.68,2.67,8.57a18.38,18.38,0,0,0,8.61,11.12c15.65,9.77,31.21,19.7,46.8,29.57-.68,1.65-1.35,3.31-2,5-19.7-7.6-39.45-15-59-23-3-1.21-5.65-4.11-7.69-6.81-7.51-10-14.75-20.12-22-30.3-2.21-3.13-4.69-5-8.75-4.16s-8.69,1.49-10.11,6.11c-4.11,13.34-8.17,26.71-11.47,40.26a26.66,26.66,0,0,0,.94,13.58c5.88,18.36,12.32,36.55,18.53,54.81a27.89,27.89,0,0,1,.69,3.39h-5.16c-10.53-18.84-21.18-37.62-31.48-56.59a26.34,26.34,0,0,1-3.44-11.7C236.59,226.85,236.76,204.58,236.77,182.32Z" transform="translate(0 0)"/><path class="cls-8" d="M812.76,480.37c1.64-4.13.88-7.59-2.21-10.95-4.3-4.66-4.78-10-1.59-15.61s7.46-8.82,14.06-8.53c5.55.24,10.37,5.32,10.54,13,.18,8.74-1,17.51-1.28,26.28-.11,3.53-.38,7.59,1.12,10.54,3.28,6.47,4.19,13,4.51,20.16a175.47,175.47,0,0,0,3.49,25c.55,2.87,2.86,5.4,4.36,8.08,2,4.68,3.94,9.4,6.09,14a58.11,58.11,0,0,1,5.87,26.46c-.49,16.57-1.56,33.13-1.84,49.7-.08,4.25,1.87,8.54,2.89,12.82l-40.13-.17a33.42,33.42,0,0,0-.47-5.91c-3.5-13.38-.69-24.88,9.58-34.47,3.41-3.19,4.32-14.13,1.6-17.79a4.29,4.29,0,0,0-3.74-1.33c-4.29,1.48-6.39-.79-7.72-4.15-2.51-6.31-5.29-12.59-7-19.13-4.2-15.89-3.51-16.52,10.76-24.73,3-1.71,6-5.44,6.49-8.6.31-2.19-3.5-5.42-6.06-7.42-3.06-2.4-4.5-4.61-3.83-8.79.57-3.58-.52-7.42-.79-11.16s-1.32-7.54-.47-10.95C818.58,490.27,817.24,485.05,812.76,480.37Z" transform="translate(0 0)"/><path class="cls-6" d="M48.54,183.45h61.58c6.66,15.58,12.93,31.34,20.15,46.66,4.13,8.74,5.34,17.21,4.6,26.87-1.54,20-1.66,40.19-2.36,60.29l-7.71-.92c-1.7-21.06-3.26-42.12-5.26-63.15a19.13,19.13,0,0,0-4.06-9.81c-7.29-8.85-15.11-17.27-22.74-25.84-3.61-4-9.68-6-14.39-3.49A11.75,11.75,0,0,0,72.92,221c-1.82,8.09-2.78,16.37-4,24.59-1,6.8-4.08,12.27-8.88,17.37-14.36,15.25-28.25,31-42.32,46.49l-6.11-4.32c11-16,21.92-32,33.14-47.84C48.34,252.2,49.85,247.1,49,241,46.14,221.82,45.22,202.64,48.54,183.45Z" transform="translate(0 0)"/><path class="cls-2" d="M560.8,199.33H492.05c.32,6.73.51,12.82.92,18.89.82,12.11,1.84,24.21,2.64,36.32,1.44,21.9,2.77,43.82,4.14,65.73a8.4,8.4,0,0,1,0,3,14.77,14.77,0,0,1-1.76,3.09c-1-1.08-2.73-2.08-2.87-3.27-.66-5.61-.89-11.27-1.27-16.91q-3-44.56-5.9-89.12c-1.15-17.76-2.09-35.53-3.27-53.3-1.84-27.54-3.83-55.07-5.69-82.62-.85-12.59-1.55-25.19-2.93-37.79q-2.18,18.93-4.37,37.85Q467.88,114.62,464,148q-3.64,31.71-7.26,63.41-3.86,33.42-7.76,66.84c-1.7,14.7-3.29,29.4-5.12,44.08-.17,1.43-1.66,2.69-2.53,4-.7-1.57-2.14-3.23-2-4.71,2.37-22.14,4.94-44.26,7.5-66.38,3.23-27.73,6.56-55.45,9.73-83.19,2.85-24.93,5.48-49.89,8.34-74.82,2.78-24.27,5.73-48.51,8.6-72.77.41-3.47.81-6.94,1.17-10.41.27-2.66,1.4-3.44,4-2.37a17.06,17.06,0,0,0,6,1.47q46.48.13,93,0c1.33,0,3,.45,3.93-.18,6.43-4.45,6.14.24,6.35,4.45q.84,16.68,1.73,33.36l-4.08,7.31-3.4,4.23c-1-13.87-1.94-27.74-2.93-41.85H484.89c0,3.48-.17,6.61,0,9.73q2.4,39,4.9,78c.32,6.12.6,12.26,1,18.38a36.22,36.22,0,0,0,.91,4.73l1.08,26.9q.51,8,1,16c.31,3.58.76,7.16.9,10.75.3,7.35.23,7.35,7.51,7.29h1.48l6.95.08h5.53c.42-1.86.73-3.25,1.07-4.77h5l-.65,1,3.92,3.77h23.45l11.22.82c.23.45.46.89.68,1.34C560.81,196.13,560.8,197.73,560.8,199.33Z" transform="translate(0 0)"/><path class="cls-4" d="M560.82,194.53c-.22-.45-.45-.89-.68-1.34q1.88-14.4,3.74-28.8,3.55-8,7.09-16c6.42-8.83,5.78-18.58,3.42-28.43-.26-1.11-2.23-1.82-3.41-2.72l-21.21-13.92,6-13.06c1.67.64,3.34,1.29,5,1.9,7.38,2.67,14.67,3.34,21.72-1l6.19,5.91c-2.86,5.26-2.69,7.13,1.48,8.1,4,.92,5.53,3.26,6.17,6.81s2.5,4,5.8,3c2.33-.75,5.36-1.19,7.5-.32,5.13,2.06,9,1.69,11.73-3.46.37-.67,1.23-1.08,1.86-1.6q4.81,9.38,9.62,18.77l-11.36,7.2-6.36-7.93A49.68,49.68,0,0,0,617,150c4.07,13.12,7.64,26.39,11.13,39.68.48,1.81-.71,4.07-1.13,6.12Z" transform="translate(0 0)"/><path class="cls-5" d="M560.82,194.53l66.28,1.2c-1.87,8.75-3.15,17.68-5.75,26.21-3.93,12.86-6.68,25.65-4.62,39.19,1.87,12.3.37,24.46-1.73,36.66-1.22,7.13-1.06,14.51-1.58,21.77a5.38,5.38,0,0,1-.77,1.75l-10.51-.76c-2.39.64-3.58-.1-3.07-2.71,3.87-19.72-1.71-39.38-.27-59.21.86-11.75-2.33-23.76-3.27-35.68-.46-5.78.22-11.64.05-17.45-.05-1.5-1.37-3-2.11-4.44-.91,1.37-2.49,2.7-2.61,4.13q-1.32,17.16-2.15,34.35c-.59,12.27-.83,24.56-1.43,36.84-.7,14.45-1.61,28.89-2.54,43.33,0,.6-1.24,1.13-1.9,1.7L574,321.2c-1.12-1.05-3.19-2.07-3.22-3.14-.51-19.93-1.75-39.91-.78-59.78.68-14.14-1.63-27.4-5.26-40.72-1-3.73-2.06-7.47-3.09-11.21q-.43-3.51-.88-7Z" transform="translate(0 0)"/><path class="cls-9" d="M1068.86,189.17l60.41-.38c1.82,0,3.65.18,5.47.28,2.34,10.1-.16,19.73-2.94,29.31-3.45,11.9-8.22,23.52-7.93,36.22.07,3.14.55,6.27.8,9.4,1.3,16.25-1.35,32.05-5.22,47.73-.71,2.88-1.09,5.83-1.62,8.74l-5.58.27c-1.43-11.37-3.1-22.71-4.17-34.11-.45-4.74.85-9.64.54-14.41-.76-11.57-2.09-23.11-3-34.68-.69-8.44-1-16.9-1.74-25.34a56.58,56.58,0,0,0-1.71-7.72h-2.44c-.52,3.15-1.81,6.4-1.42,9.43,1.74,13.62-1.49,26.8-2.87,40.15-.58,5.61-1.13,11.39-.42,16.92,2.16,16.8-1.72,33.09-3.33,49.58h-5.8c-2-11.74-4.51-23.42-6-35.23a108.58,108.58,0,0,1-.09-21.78c1.35-16.88-2-32.93-6.69-49C1070.73,206.39,1070.22,197.66,1068.86,189.17Z" transform="translate(0 0)"/><path class="cls-10" d="M1347.66,226.44q0,51.49.14,103c0,3.94-1.07,5.09-5,5.06-27-.17-54-.1-81-.11v-108l.13-.13Zm-41.89,83.91h23c6.59-.06,11-4.36,11-10.9q.09-23,0-45.93c0-7.15-4-11.09-11.11-11.11q-22.71-.09-45.42,0c-7.54,0-11.39,3.84-11.41,11.32q-.06,22.72,0,45.43c0,7.21,3.91,11.14,11,11.2C1290.46,310.4,1298.12,310.35,1305.77,310.35Z" transform="translate(0 0)"/><path class="cls-11" d="M812.76,480.37c4.48,4.68,5.82,9.9,4.21,16.39-.85,3.41.2,7.29.47,10.95s1.36,7.58.79,11.16c-.67,4.18.77,6.39,3.83,8.79,2.56,2,6.37,5.23,6.06,7.42-.44,3.16-3.52,6.89-6.49,8.6-14.27,8.21-15,8.84-10.76,24.73,1.73,6.54,4.51,12.82,7,19.13,1.33,3.36,3.43,5.63,7.72,4.15a4.29,4.29,0,0,1,3.74,1.33c2.72,3.66,1.81,14.6-1.6,17.79-10.27,9.59-13.08,21.09-9.58,34.47a33.42,33.42,0,0,1,.47,5.91l-9.88.18h-36c1.62-4.84,2.63-10,5-14.47,8.62-16.4,13.06-33.61,12.31-52.22a123.9,123.9,0,0,1,1.12-20.37c1.21-9.68,4.44-18.72,10.63-26.49s7.41-16.82,5.2-26.41C804.4,500.21,805,489.63,812.76,480.37Z" transform="translate(0 0)"/><path class="cls-12" d="M641.63,476.76c4,4.39,8.15,8.74,12.13,13.19a64.36,64.36,0,0,1,4.92,6.25c8.79,12.72,8.34,16.48-3.71,25.8-4.76,3.69-10.05,6.7-15.11,10l-2.56-5.4-8.58,8.82a3.66,3.66,0,0,1-.81-.18l-2.12-1.1-3.88,4.25-13-2.51v-4.34l-7.73-1.91L592,527.5l-3.27-1.07-.11.25-2.23-2.76-2.61-17.53c2.54-7.56,7.33-14.53,6-23.09,2.35-1.56,5-2.93,3.09-6.57-.32-.6-.2-2.11.15-2.27,4.9-2.27,5.16-9.87,11.72-10.13,7.45,6.06,9.46,5.94,15-.89C628.58,465.35,635.2,470.9,641.63,476.76Zm-4.81,47.85,1.18.48c4.09-4.34,8.31-8.56,12.16-13.1.88-1,1.23-3.88.49-4.69-3.54-3.92-7.54-7.43-12.39-12.05C637.72,506.19,637.27,515.4,636.82,524.61Z" transform="translate(0 0)"/><path class="cls-13" d="M330.12,620.45c-1.39-8.2-2.85-16.39-4.15-24.61-2.38-15.06-.68-29.85,3.16-44.49h51.75c4.72,15.26,13.7,28.33,21.54,42l-14,14.67c-6-5.69-12.32-11.13-18-17.16-4.21-4.46-9.17-2.69-13.93-2.78-.58,0-1.54,2.26-1.75,3.56-1.46,9.5-2.78,19-4.15,28.53Z" transform="translate(0 0)"/><path class="cls-14" d="M1439.11,242.41c-3.45-2.86-7.22-2.59-11.23-1.4-3.45,1-7,1.71-10.51,2.54a74.52,74.52,0,0,0-7.28-4,22.63,22.63,0,0,0-7.34-2c-2.91-.13-5.87.6-8.81,1-1-.17-2-.28-3-.53-5.81-1.48-6.31-2.84-3-7.71,6.36-9.28,11.31-19.17,13-30.46,3.19,1.81,7.53,2,8,7.27.14,1.43,2.89,2.72,4.6,3.82.7.45,2.4-.12,2.69.36,4.17,6.85,8.51,3.09,12.72.27,5.67,3.37,8.11,2.2,10.15-4.73,7.36-.26,8.94-1.82,7.87-7.52,1.5-1.15,3.23-2,4.29-3.37,3.38-4.37-2.1-10.17,2.14-14.68.48-.5-.73-2.7-1.31-4-.37-.89-1.41-1.63-1.46-2.48-.18-3.13-.07-6.27-.07-9.94l7.11-1.72c7.21,7.82,10.06,17.35,10.82,27.68.19,2.49.14,5,.17,7.49.16,19.11,2.54,25.7,15,40.9-6.6,7.12-15,5.32-23.11,4.78-1.94-.26-3.88-.63-5.83-.75C1449.58,242.88,1444.34,242.67,1439.11,242.41Z" transform="translate(0 0)"/><path class="cls-2" d="M1261.77,226.35v35.26l-94.83.57q0-17.87-.08-35.73Zm-57.8,9.5v2.27c6.63,0,13.26,0,19.88-.1.49,0,1-1.38,1.43-2.13a7.28,7.28,0,0,0-2.45-1c-4.3.06-8.6.26-12.9.48-1.93.09-3.93.32-5.93.48Z" transform="translate(0 0)"/><path class="cls-2" d="M1261.78,300.24v34.13h-92.73a16.34,16.34,0,0,1-2.2-.39V300.43Zm-58.66,10.45h22.36C1222.54,307.7,1207.43,307.39,1203.12,310.69Z" transform="translate(0 0)"/><path class="cls-3" d="M931.47,145.28l2.71-3.35c.83,1.07,2.19,2.06,2.39,3.24a60.19,60.19,0,0,1,.86,9.94c0,4.43-.6,8.66-7.07,8.17l19.51,51.81c41.63-1.89,63,31.44,62.94,56.5-.1,30.87-22.07,55.49-53.12,58.28-27,2.43-58.84-16.71-62-55.41H886.83q-1.47-3.15-3-6.3c2.81.14,5.62.37,8.42.38,5.57,0,8.66-5.55,6-10.82l5.53-11.28,2.25-3.3c12.38-13.65,20-30.2,28.6-46.75H913v-5.7a1.43,1.43,0,0,0,.5-.18h21.35c-3.22-8.62-6.47-16.77-9.28-25.07-1.65-4.85-3.86-9.09-8.23-11.95,3.75.3,7.59,1.2,11.23.69,2.49-.34,5.69-2.11,6.82-4.19C936.87,147.3,934.31,145.64,931.47,145.28ZM928.25,222l16.14-6.24-5.93-15.83-10.87,21.33-.47,1Zm-23.61,51c-1.16,26.1,22.44,50.87,50.68,50.69,27.09-.18,51.2-21.27,51.21-50.9,0-29-22.58-51.28-51.46-51.21C926.49,221.59,903.58,245.31,904.64,273Z" transform="translate(0 0)"/><path class="cls-2" d="M1261.78,265.12v32.2l-94.82-.11V264.55Zm-35.68,8h-23.26C1207.46,276.12,1222,276,1226.1,273.12Z" transform="translate(0 0)"/><path class="cls-5" d="M627.91,535.26a3.66,3.66,0,0,0,.81.18l1,2c.15,1.49.72,3.09.38,4.46a48.2,48.2,0,0,1-3,8.84c-1.71,3.64-3.26,7.66-6,10.49-4.54,4.76-10.29,8.37-14.82,13.15-3,3.19-5.2,7.39-7.06,11.45-2.24,4.89-3.75,10.12-5.58,15.2l-3.83,4.41-13.15,14.93c-3,3.46-5.58,7.1-4.83,12.06l-.33,1.69q-2.79,6.71-5.56,13.41c-3.54,10-10.18,16.47-20.62,19.08-3.35.83-7,1.89-9.56,4-2.88,2.38-5.94,5.8-6.66,9.23-1.25,6-4.44,10.32-8.5,14.23a13.52,13.52,0,1,1,.84-19.1h0a13.21,13.21,0,0,1,1.75,2.39c.81,1.41,1.31,3,2.47,5.73.94-13,9.92-16.64,19.56-19.2s15.45-8.78,18.48-17.87c2.26-6.77,4.14-13.67,6.2-20.51l6.91-10.79,8.79-9.3,3.65-4c2.41-4.82,5.94-9.42,7-14.52,1.45-7.29,5-12.31,10.71-16.66a125.57,125.57,0,0,0,14-12.68c2-2.11,2.85-5.37,4.22-8.12a65.32,65.32,0,0,0-12.7,6.23c-8.58,5.22-15.85,11.66-19,21.62a32.22,32.22,0,0,1-13,17.15L568.63,605.2l-2.27,3.24-17.27-11.52,13.57-15.65c8.23-4,12.17-11.26,15.08-19.37,2.56-2.28,5.1-4.58,7.68-6.83,2.12-1.84,4.61-3.36,6.35-5.49,3.64-4.44,6.92-9.17,10.28-13.83a8.1,8.1,0,0,0,.8-2.29l4.06,1.8.44,1.76,1.56-1.12,13,2.51,2.63-.06,2.2-2Z" transform="translate(0 0)"/><path class="cls-3" d="M869.91,273.75H847.2c-1.82,22.21-11.51,39-30.72,49.47-14.31,7.8-29.51,9-45,3.91-30.85-10.11-47.12-44.28-35.67-74.69,11.22-29.78,46-46.85,79.71-31.1q6.5-12.17,13-24.46L814.87,194l-.15-1.49,6-3.07,13.07,7.85L820.06,224c16,10.7,24.86,25.59,26.91,44.6h23.87Zm-131.26-1.56c-.08,28.82,21.92,50.94,50.46,51.36a50.84,50.84,0,0,0,51.54-50.09V273c.45-28.19-23.07-51.6-51.21-51.63A51,51,0,0,0,738.65,272.19Z" transform="translate(0 0)"/><path class="cls-7" d="M976.44,585.38c-10.77-.69-21.54-1.51-32.32-2-3.5-.16-3.57-2-3.45-4.57q1-22.92,2-45.82c.06-1.5,0-3,0-4.5,5.59-3.76,11.56-7.07,16.66-11.4,6-5.05,12.39-10.4,9.62-19.9,6.37,4.6,8.41,11.55,9.83,18.69a43.62,43.62,0,0,1,.75,10.39C978.54,546,977.46,565.68,976.44,585.38Z" transform="translate(0 0)"/><path class="cls-10" d="M1261.77,226.35l-94.9.1-.3-26.73,95.29-.06v26.56ZM1204,208.07a16.7,16.7,0,0,0,.07,1.87c7.17.55,14.34,1.08,21.47-.28v-1.59Z" transform="translate(0 0)"/><path class="cls-15" d="M808.76,651.37l9.88-.18,40.13.17a17.25,17.25,0,0,0,2.49,0c4.3-.67,5.76.92,5.62,5.43-.33,11-.25,21.93,0,32.89.08,3.73-1.07,4.83-4.8,4.79-17.77-.18-35.54-.1-53.32-.11Z" transform="translate(0 0)"/><path class="cls-2" d="M196,319.89V325a27,27,0,0,1,5,.31,18.57,18.57,0,0,1,3.81,1.9c-1.35.66-2.67,1.83-4,1.89-5.16.23-10.33.09-15.49.09-3.17,0-6.35.18-9.49-.08-1.24-.11-2.4-1.17-3.6-1.8a16.37,16.37,0,0,1,3.37-2c1.05-.34,2.29-.07,4.09-.07l.31-5.57c-1.69-.17-3-.38-4.25-.41-3.54-.09-5-1.91-5-5.39q.06-47.73,0-95.47c0-3.54,1.6-5.17,5.16-5.14,7.67.07,15.33,0,23,0,5.58,0,6.66,1,6.68,6.74.06,11.83,0,23.66,0,35.49V308C205.54,318.13,205.54,318.13,196,319.89Zm-8.07-73.65c-8.29,0-14.21,5.83-14.26,14a14.57,14.57,0,0,0,14.24,14.89H188c7.52.12,14.68-7.2,14.56-14.9a14.48,14.48,0,0,0-14.64-14Zm-14.26,51.19a14.41,14.41,0,0,0,14,14.82h.18c7.59.16,14.8-6.94,14.75-14.52a14.62,14.62,0,0,0-14.21-14.39c-8.37-.13-14.65,5.87-14.71,14.09Zm14.33-59a6.61,6.61,0,0,0,6.69-6.53h0a6.44,6.44,0,0,0-6.27-6.61h-.25a6.85,6.85,0,0,0-7.11,6.56V232c.06,3.24,3.53,6.46,6.94,6.42Z" transform="translate(0 0)"/><path class="cls-16" d="M604.75,464.33c-6.56.26-6.82,7.86-11.72,10.13-.35.16-.47,1.67-.15,2.27,1.89,3.64-.74,5-3.09,6.57L578,482c-3.71-3.12-2.4-6.41,0-9.65-2.64-3.16-5-6.09-2.29-10.36.65-1-.31-3.17-.69-4.77-1.8-7.68.22-11.23,7.07-15,2.56-1.42,4.55-4.46,6-7.19,1.58-3,2.46-6,6.78-6.21,1.32,0,2.91-2,3.77-3.44,4.26-7.15,9.75-9.5,17.63-7.36a12.1,12.1,0,0,0,3.88.45c8-.46,12.9,3.37,13.78,11.59.61,5.67,3.67,10.89,4.41,15.84,1.12,7.46,6.94,14.37,3.51,22.66-1,2.36-.15,5.48-.16,8.25-6.43-5.86-13-11.41-21.88-13.32-.66-1.39-2.11-3-1.83-4.13.73-2.94,1.71-6.08,3.53-8.42,6.3-8.13,6-13.57-1.8-19.91-1.26-1-2.39-2.22-3.32-3.11-2.23,1.07-4.36,2.46-6.7,3.14-4.12,1.19-5.41,3.69-5.19,7.81.14,2.71-.78,5.45-1,8.19a5.42,5.42,0,0,0,.88,3.52C608.08,455.09,607.8,459.64,604.75,464.33Z" transform="translate(0 0)"/><path class="cls-16" d="M623.28,109.57c-.63.52-1.49.93-1.86,1.6-2.78,5.15-6.6,5.52-11.73,3.46-2.14-.87-5.17-.43-7.5.32-3.3,1.06-5.16.58-5.8-3s-2.22-5.89-6.17-6.81c-4.17-1-4.34-2.84-1.48-8.1,2.41-2,3.31-4.2,2.27-7.44a8.35,8.35,0,0,1,.54-5.63c5.59-11.62,4.2-18-5.9-25.8l4.08-7.31c5.09-.87,10.16-2.28,15.26-2.38,2.23,0,4.6,2.47,6.73,4s3.77,4,6.07,5.06c3.62,1.69,5.84,4,5.32,8-.44,3.4.66,5.46,4,6.33S631,75,630.48,78.09a13.65,13.65,0,0,0,.11,5.83c1.2,4,1.46,7.71-1,11.41a6.68,6.68,0,0,0-.67,4.28C629.92,107.17,630,107.16,623.28,109.57Z" transform="translate(0 0)"/><path class="cls-15" d="M1261.9,226.22V199.65l81.87-.19c0,2.95.58,5.47,4.06,6.06q-.06,10.46-.13,20.92ZM1339.44,214h-7.71C1335.6,218.4,1336.52,218.37,1339.44,214Zm-39-.24c4.21,4.71,5.91,4.54,7.59,0Zm-31,0c4.09,4.71,5.81,4.54,7.57,0Z" transform="translate(0 0)"/><path class="cls-5" d="M833.79,197.26l-13.07-7.85c-5.39-4.4-7.16-10.65-6.58-16.93.69-7.47,3-14.79,4.53-22.17,1.26.37,2.53.71,3.79,1.1l35.36,11a14.34,14.34,0,0,0,12,5.91l7.06,2q-6,13.55-11.92,27.1c-1.06,4-3.74,4.81-7.45,4.11C849.59,200.06,841.69,198.69,833.79,197.26Z" transform="translate(0 0)"/><path class="cls-15" d="M1457.81,163.11l-7.11,1.72c0,3.67-.11,6.81.07,9.94,0,.85,1.09,1.59,1.46,2.48.58,1.34,1.79,3.54,1.31,4-4.24,4.51,1.24,10.31-2.14,14.68-1.06,1.37-2.79,2.22-4.29,3.37,1.07,5.7-.51,7.26-7.87,7.52-2,6.93-4.48,8.1-10.15,4.73-4.21,2.82-8.55,6.58-12.72-.27-.29-.48-2,.09-2.69-.36-1.71-1.1-4.46-2.39-4.6-3.82-.52-5.22-4.86-5.46-8-7.27-.42-4.62-1.29-9.25-1.14-13.85.16-5,1.28-9.9,2-14.85,10.1-1.78,20.23-3.42,30.3-5.37,8.4-1.63,16.74-3.62,25.1-5.46Z" transform="translate(0 0)"/><path class="cls-2" d="M1343.73,199.46l-81.87.19-95.29.07-5.6-.41v-9.76h7.09a30.08,30.08,0,0,0,4.82.78q39.34.07,78.7,0a21.78,21.78,0,0,0,4.22-.85h12.31c-2.06-2.25-4.28-4-5.6-6.34-1.22-2.13-1.47-4.81-2.38-8.08h31.4c.36,6.05-2.43,10.38-8.17,14.35h53.86l5.51.11c-.41,1.55-.83,3.1-1.27,4.7l2.69,4Z" transform="translate(0 0)"/><path class="cls-4" d="M829.54,123c-14.86-6.67-20.81-21.16-13.83-35.83,2.86-6,7.23-11.54,11.79-16.47,7.63-8.23,17.17-10.1,27.84-6.25,8.39,3,16.88,5.79,25.33,8.68l1.27,1.29c.94.66,1.88,1.32,2.81,2h0c1.27,2.39,2.64,4.73,3.8,7.17,4.11,8.6,5.15,17.24,0,25.86-.89-2.27-1.79-4.53-2.68-6.79,3-10.9-1.75-21-12.41-26.44-10.08-5.09-20-3.39-26,6.83s-9.86,21.61-14.62,32.51c-.09.21.21.58.55,1.41,12.13,1.93,24.11.24,35.92-3.55l2.43,4.47C858.17,123.84,844,124.8,829.54,123Z" transform="translate(0 0)"/><path class="cls-16" d="M1368.56,452.92l-1.06.11c-.62-3.25-1.29-6.5-1.83-9.76a4.72,4.72,0,0,1,.2-2.9c1.93-3.16,1.29-6-.59-8.86a3.28,3.28,0,0,1-.53-2.36c1.62-4.94,2.24-10.8,5.39-14.49,3.41-4,9.14-6.05,14-8.66.88-.47,2.57.37,3.8.82,6.19,2.3,13.37,1.73,17.18,9.86,1.74,3.73,4.56,6.37,3.08,10.84s-.11,7.51,4.79,8.4c3.34.61,4.13,2.51,3.73,5.78-.15,1.23,1.44,3.55,2.66,3.9,3.63,1,4.2,3.16,2.67,6-1.92,3.55-1.13,6,1.67,8.78,1,1,1.19,4.43.3,5.36-3.45,3.6-7.49,6.63-11.31,9.87-6.29-5.6-12.37-11.47-19-16.69-3.14-2.5-7.25-3.77-10.93-5.6-.55-1.15-1.8-2.5-1.53-3.39a40.83,40.83,0,0,1,3.51-8.15c4.6-8.21,2.76-16.47,1.2-25.07-13.53,5.46-16.76,12.42-12.78,21.7a8.31,8.31,0,0,1-.16,5.69A82.81,82.81,0,0,1,1368.56,452.92Z" transform="translate(0 0)"/><path class="cls-14" d="M136.7,520.32c-3.87.82-3.9-1.59-3.89-4.36q.1-35.19.08-70.39c5.63.33,10.61,2.41,13.75,7,15.33,22.57,30.43,45.29,45.55,68,.43.66.13,1.8.18,2.71l-6.4,4.41-3.69,2.63-40-50.46-1.59.66Q138.67,500.44,136.7,520.32Z" transform="translate(0 0)"/><path class="cls-10" d="M808.76,651.37v43H766.15v-43Z" transform="translate(0 0)"/><path class="cls-14" d="M1457.27,160.34c-8.36,1.84-16.7,3.83-25.1,5.46-10.07,1.95-20.2,3.59-30.3,5.37-.64-2.57-1.29-5.15-1.93-7.72,6.67-6.19,13.57-12.16,20-18.64,4.94-5,8.84-11,9.21-18.27.13-2.54-1.14-6.07-3-7.59-2.67-2.14-6-.82-8.34,1.9-1.71,2-3.28,4.17-4.84,6.3q-8.51,11.63-17,23.28-1.87-4.5-3.76-9-1.64-8.19-3.28-16.38l4.66-5c.76,4.92,3.85,7.24,8.6,7.18,8-.12,13.72-6.87,12.81-14.91,6.4-1,12,1,16.93,4.93,3.24,5,6.71,9.81,9.69,14.93C1447,141.47,1452.05,150.94,1457.27,160.34Z" transform="translate(0 0)"/><path class="cls-17" d="M968.86,497.2c2.77,9.5-3.67,14.85-9.62,19.9-5.1,4.33-11.07,7.64-16.66,11.4l-26.82,12.91h-1.59l-1.4,1h.12c-4.87,1.72-9.55,1-14.14-1.06a112.23,112.23,0,0,1-31.1-23.22l2.36-4.51,34.7,15.66c1.68,3.25,4.13,3.86,6.84,1.49,1.67-1.48,2.84-3.53,4.24-5.32l6.05-6L947,499.23l.81-.89-.06.07L962,491.09l5.8,4.25c0,.33.05.67.1,1h-.11l1,1Z" transform="translate(0 0)"/><path class="cls-18" d="M335.34,529.45l-1.77-17.4c.45-1.42.92-2.83,1.33-4.26,2.54-9,2.71-17.93-.94-26.72l6.69-1.91c2.3,6.71,7.55,9.73,14.09,9.83,6.87.1,12.61-2.64,15.09-9.83l6.2,1.51a49.78,49.78,0,0,0,.78,31.92q-.9,8.45-1.81,16.89Z" transform="translate(0 0)"/><path class="cls-7" d="M829.54,123c14.48,1.8,28.63.84,42.16-5.15,1.95,3.41,3.68,7,5.89,10.18,2.82,4.12,3.57,7.82-.73,11.35l-15,17.82-4.06,5.22-35.36-11c-1.26-.39-2.53-.73-3.79-1.1Z" transform="translate(0 0)"/><path class="cls-19" d="M627.76,609.37q-15.33,25.1-30.67,50.2c-1.21,2-2.52,3.9-3.78,5.85l-3.42-2.07q10.88-28.89,21.73-57.76c.33-1.68.65-3.36,1-5Q617.7,587,622.8,573.43h0l1-1c1.24-2.49,2.39-5,3.74-7.45,3.13-5.64,8.94-7.84,14.16-5.48,5.71,2.58,8.25,8.25,6.39,14.36-.67,2.2-1.49,4.35-2.24,6.52Q636.77,594.86,627.76,609.37Z" transform="translate(0 0)"/><path class="cls-14" d="M93.74,446.22q0,35.36.05,70.72c0,2.22.28,4.52-3,4.41-1-8.21-2-16.43-3.19-25.92-2.9,6.56-5.54,12-7.74,17.64-1.74,4.46-4.48,7-9.39,7.64C64,521.54,57.7,523,51.31,524c-1.13.19-2.39-.37-3.59-.59,1.76-3.18,2.17-6.08-1.65-8.13,2.62-1.82,5-4.17,7.89-5.37,10.65-4.46,16.92-11.61,18.17-23.64.81-7.84,3.57-15.51,5.75-23.17C80.24,454.86,84.94,448.57,93.74,446.22Z" transform="translate(0 0)"/><path class="cls-16" d="M73.48,95.24l-8.63,2.22c-.1-10.25-1-20.57-.06-30.73.84-9.26,6.35-14,13.76-14.44,8.11-.5,14.5,4.22,17.2,12.87C99.28,76.48,107.43,82,119,83.36c.2,7.94-4,13.59-8.71,19l-24.21-7.1c-3.27-5.06-3.41-9.79,0-15.17,2.13-3.34,2.61-7.72,4-12H67.43c1.65,4.74,2.17,9.27,4.54,12.39C75.75,85.4,75.5,90.05,73.48,95.24Z" transform="translate(0 0)"/><path class="cls-16" d="M1431.88,117.24c-5-3.94-10.53-5.91-16.93-4.93-1-.07-2-.09-3-.23-8.54-1.19-11.56-4.88-11.35-13.49,0-1.32-.43-3.42-1.32-3.87-5.17-2.63-10.53-4.87-16-7.3-2.34,7.87.1,13.87,6.38,16.94a10,10,0,0,1,6.14,9.22c-7.91-4.07-13.63-9.88-15.68-18.89-1.67-7.33.34-13.69,6.73-17.22,2.8-1.55,6.57-1.24,9.65-2.41,4-1.53,5.92,1.4,8.79,2.86,2.54,1.29,6.09,1.37,9,.91,3.78-.59,6.4-.19,8.28,3.49a12.37,12.37,0,0,0,4,4.23c2.48,1.72,4.22,3.26,3.64,6.86-.25,1.53,1.58,3.75,3,5.1,2.22,2.11,2.67,3.62.62,6.29-1.18,1.53-1,4.15-1.29,6.3S1432.13,115.19,1431.88,117.24Z" transform="translate(0 0)"/><path class="cls-2" d="M295.29,570.71c-2.42-10-5.66-19.84-7.11-30-5-35-2.58-69.4,9.73-102.74,6.16-16.7,14.54-32.18,28.54-43.84,19.2-16,41.75-15.06,59.8,2.29,15,14.41,23.31,32.58,29.41,52s8.62,39.7,8.58,60c0,19.76-1.05,39.57-6.2,58.86a28.52,28.52,0,0,1-1.24,3.22l-2.12-.66c7.37-33,8.8-66.19,3.1-99.54-4.08-23.89-11.95-46.34-27.38-65.57-19.16-23.89-45.67-25.34-67.18-3.74-9.22,9.27-15.65,20.34-20.35,32.32-17.65,45-18.4,90.7-5.1,136.88Z" transform="translate(0 0)"/><path class="cls-19" d="M1393.94,238.57c2.94-.36,5.9-1.09,8.81-1a22.63,22.63,0,0,1,7.34,2,74.52,74.52,0,0,1,7.28,4c-3.74,4.87-7.45,9.76-11.23,14.6-3.18,4.08-3.94,8.61-1.45,13.05,8.51,15.14,9.18,31.25,6.47,47.86-.29,1.8-.38,3.63-.56,5.45h-4.81c-5.79-19-11.75-38-17.24-57.13a23.83,23.83,0,0,1,.09-11.17C1390,250.2,1392.13,244.42,1393.94,238.57Z" transform="translate(0 0)"/><path class="cls-20" d="M627.76,609.37q9-14.52,18-29l3,8.12v8.9c-.29,2.73-.58,5.46-.88,8.17l-8.2,86.74h-3.82c-1.64-16.47-3.34-32.93-4.92-49.41-1-10.2-1.78-20.43-2.67-30.65-.17-1-.35-1.91-.52-2.86Z" transform="translate(0 0)"/><path class="cls-6" d="M214.71,575.34c-.48,10.42-.83,20.84-1.6,31.24-.09,1.34-2.34,3.57-3.66,3.62-9.07.32-18.17.36-27.24,0-1.35-.05-3.62-2.56-3.74-4.08-.84-10.25-1.21-20.54-1.73-30.82C189.39,578.3,202.05,577.77,214.71,575.34Z" transform="translate(0 0)"/><path class="cls-19" d="M1439.11,242.41c5.23.26,10.47.47,15.7.8,2,.12,3.89.49,5.83.75-2.11,6.64-4.12,13.31-6.38,19.9-1,2.85-1.1,5.25,1.71,7,8.28,5,12.89,12.85,16,21.59,3.26,9.06,6,18.3,9,27.46l-3.29,1.5c-11.48-14.65-23.06-29.22-34.31-44a18.2,18.2,0,0,1-3.18-9C1439.56,259.69,1439.46,251,1439.11,242.41Z" transform="translate(0 0)"/><path class="cls-19" d="M330.12,620.45l20.49-.29c0,8.15.08,8.24,8.08,9.12,15.38,1.69,30.74,3.47,46.13,5,3.77.38,5.47,1.86,5,5.71-.36,3-.33,6-.89,8.93-.71,3.72-3.91,5.06-6.52,2.36-2.76-2.86-4.58-6.63-7.5-11.06-4.61.39-10.69.79-16.75,1.44-10.41,1.13-20.79,2.55-31.2,3.61-8.83.9-13.06-2.34-14.73-11.06C331.35,629.67,330.81,625.05,330.12,620.45Z" transform="translate(0 0)"/><path class="cls-19" d="M1344.54,598.48h22.53q-4.2,40.65-8.42,81.3c-.14,1.3-.52,2.58-.78,3.88l-4.06-.18q-2.43-22.5-4.87-45Q1346.75,618.5,1344.54,598.48Z" transform="translate(0 0)"/><path class="cls-19" d="M1383.56,598.47h22.6q-4.47,42.91-9,85.82l-4.29-.72q-4-37.87-8.08-75.76C1384.5,604.71,1384,601.6,1383.56,598.47Z" transform="translate(0 0)"/><path class="cls-21" d="M1255.8,189.48a21.78,21.78,0,0,1-4.22.85q-39.35.07-78.7,0a30.26,30.26,0,0,1-4.82-.78l.27-7.35c2.43-2.19,5.31-4.06,7.19-6.66,3.22-4.42,5.35-4.81,8.13-.46,2.29,3.57,4.26,2.55,6.72.09a9.86,9.86,0,0,1,4.32-1.94c2.91,5.1,5.25,2.32,8.13-.09a6.7,6.7,0,0,1,5.38-1.16c.9.26,1.19,3,1.55,4.68.46,2.09.19,4.52,1.2,6.23.91,1.55,3.19,3.3,4.72,3.18s3-2.36,4-4c1.07-1.8,1.2-4.16,2.32-5.92,1.29-2,3.18-3.15,4.86-.06,2,3.68,3.6,2.36,5.26-.37a52.16,52.16,0,0,1,3.36-4.47l1.5.21c.4,1.73.76,3.47,1.2,5.19s1,3.68,1.58,5.53c1.22-1.37,2.55-2.67,3.64-4.14s2-3.12,2.95-4.69l1.32.19c.36,1.29,1.17,2.64,1,3.86-.71,5.64,2.36,6.56,6.89,5.88C1255.65,185.35,1255.72,187.42,1255.8,189.48Z" transform="translate(0 0)"/><path class="cls-19" d="M295.29,570.71l2.48-.44c2-5.34,4.67-10.55,6-16.06,5.26-22.42,11.51-44.44,23.14-64.53,1.83-3.17,4.7-5.75,7.08-8.61,3.65,8.79,3.48,17.72.94,26.72-.41,1.43-.88,2.84-1.33,4.26-6.58,12.76-13.19,25.5-19.71,38.3-1.64,3.23-3.47,6.52-4.26,10-.64,2.79.16,5.92.32,8.9-3.44-.36-5.89.93-7.1,4.27Z" transform="translate(0 0)"/><path class="cls-16" d="M1110.86,81.52c-3.42-.77-5.94-3.83-10.55-2.14-1.87.69-5.83-4-8.67-6.5a2.94,2.94,0,0,1-.35-2.78,60.47,60.47,0,0,1,4.06-5.37c1.25-1.65,2.45-3.33,3.93-5.36.52-7.6,7.42-10.75,13-13.77,10.43-5.6,20.53.35,22.57,12.26.06.33,0,.85.16,1,5.19,3.22,3,8.88,4.41,13.34,1.76,5.61-1.7,9.21-7.5,8.55-2-.23-4.09.67-6.12,1.16-1.69.41-3.34,1-5,1.46-.43-4.74.53-8.83,4.6-11.94a11.43,11.43,0,0,0,3.09-4.45c2.56-5.85,1.61-7.32-4.77-7.71-1.82-.12-3.66-.14-5.49-.08-9.5.33-10.49,2-6.67,10.89a7.5,7.5,0,0,0,.42.91C1114.22,74.76,1113.35,78.23,1110.86,81.52Z" transform="translate(0 0)"/><path class="cls-22" d="M1337.22,189.38h-24.6a12.45,12.45,0,0,1-6-12.26c.21-2.63,0-5.3,0-8,.13-3.85.34-7.62-3.34-10.3-.63-.45-.55-1.88-1.06-3.92,11.91,9.18,24.62,3.62,36.52,5,1.29.15,2.76-1.45,4.19-2.14s2.67-1.15,4-1.72c-.43,1.41-.85,2.83-1.28,4.24h0l-1.06,1h.06l-1.55,1.07c0,3.06-.07,6.12-.11,9.18C1342.72,178,1344.44,185.19,1337.22,189.38Z" transform="translate(0 0)"/><path class="cls-19" d="M414.68,569.92l2.12.66-11.07,3.67c1.26-4.21-1.76-4.94-4.67-5.76-1.22-5.06-1.65-10.48-3.81-15.09-6.45-13.77-13.58-27.22-20.44-40.8a49.81,49.81,0,0,1-.78-31.93c1.77,1.93,4.05,3.59,5.22,5.84,4.37,8.41,9.25,16.71,12.35,25.6,6.22,17.86,11.48,36,16.88,54.18C411.23,568.83,412.05,570.12,414.68,569.92Z" transform="translate(0 0)"/><path class="cls-19" d="M1395.92,150.43q8.47-11.64,17-23.28c1.56-2.13,3.13-4.28,4.84-6.3,2.29-2.72,5.67-4,8.34-1.9,1.89,1.52,3.16,5,3,7.59-.37,7.27-4.27,13.26-9.21,18.27-6.38,6.48-13.28,12.45-20,18.64q-16.76,6-33.49,12.05c-3.25,1.18-6.41,2.63-9.62,4l-5-7.11c1.66-.4,3.31-.83,5-1.18,2.38-.5,4.94-.56,7.14-1.48,7-2.91,14.19-5.64,20.76-9.39C1388.92,157.87,1392.2,153.78,1395.92,150.43Z" transform="translate(0 0)"/><path class="cls-19" d="M388.44,608l14-14.67c6,8.82,4,11.11,15.59,3.29,8.68-5.85,17.51-11.48,26.12-17.43,3.11-2.16,5.38-2,7.63,1,1.6,2.12,3.48,4,4.92,6.27.81,1.26,1.83,3.51,1.29,4.29-1,1.42-3.15,3-4.68,2.86-3.52-.31-7-1.6-11.22-2.7l-26.43,25a54.47,54.47,0,0,1-4.06,3.69c-4.92,3.76-7.82,3.64-12.24-.62C395.64,615.38,392.07,611.66,388.44,608Z" transform="translate(0 0)"/><path class="cls-19" d="M335.34,529.45H375l5.88,21.88H329.13Z" transform="translate(0 0)"/><path class="cls-23" d="M1255.57,183.28c-4.53.68-7.6-.24-6.89-5.88.15-1.22-.66-2.57-1-3.86l-1.32-.19c-1,1.57-1.85,3.22-2.95,4.69s-2.42,2.77-3.64,4.14c-.53-1.85-1.09-3.68-1.58-5.53s-.8-3.46-1.2-5.19l-1.5-.21a52.16,52.16,0,0,0-3.36,4.47c-1.66,2.73-3.26,4.05-5.26.37-1.68-3.09-3.57-2-4.86.06-1.12,1.76-1.25,4.12-2.32,5.92-1,1.64-2.55,3.89-4,4s-3.81-1.63-4.72-3.18c-1-1.71-.74-4.14-1.2-6.23-.36-1.67-.65-4.42-1.55-4.68a6.7,6.7,0,0,0-5.38,1.16c-2.88,2.41-5.22,5.19-8.13.09a9.86,9.86,0,0,0-4.32,1.94c-2.46,2.46-4.43,3.48-6.72-.09-2.78-4.35-4.91-4-8.13.46-1.88,2.6-4.76,4.47-7.19,6.66-.11-2.11-.37-4.23-.33-6.34.18-7.47,4-10.29,13.93-10.42l59.84-.08a49,49,0,0,1,5,.17c5.67.56,8.93,4.05,9.07,9.83C1255.87,178,1255.66,180.64,1255.57,183.28Z" transform="translate(0 0)"/><path class="cls-19" d="M876.86,139.38c4.3-3.53,3.55-7.23.73-11.35-2.21-3.22-3.94-6.77-5.89-10.18l-2.43-4.47L866.89,107l18.94-4.33,2.68,6.78q1.43,5.64,2.83,11.26,1.23,6.08,2.48,12.15c1,2.56,2.09,5.11,3.13,7.67.65.89,1.16,2.39,2,2.58,4.27,1,8.61,1.68,12.92,2.47l6.06,1.62c4.82,1.55,9.58,2.64,13.57-1.87,2.84.36,5.4,2,3.94,4.71-1.13,2.08-4.33,3.85-6.82,4.19-3.64.51-7.48-.39-11.23-.69-7-.42-13.94-1-20.92-1.2-4.59-.14-8.12-1.38-9.63-6.15S882.19,138.66,876.86,139.38Z" transform="translate(0 0)"/><path class="cls-24" d="M659.91,605.47c.7,9.75,1.26,19.51,2.14,29.25,1.08,12,2.47,24.08,3.63,36.12.81,8.43,1.53,16.86,2.06,25.3.08,1.29-1.09,2.66-1.68,4-.8-1.25-2.15-2.44-2.3-3.76-1.44-12.52-2.68-25.06-4-37.59-.84-8.3-1.64-16.59-3.63-24.91-.49,5-.94,10-1.47,14.91q-2.65,25-5.37,49.93l-4.77-3.09c1.06-7.45,2.32-14.87,3.16-22.34q2.05-18.27,3.67-36.6c.91-10.39,1.5-20.81,2.23-31.22Z" transform="translate(0 0)"/><path class="cls-23" d="M578,482l11.79,1.33c1.29,8.56-3.5,15.53-6,23.09-7.62,7.72-6.69,13.94,2.61,17.53l2.23,2.76c-8.51-2.12-17-4.31-25.56-6.25-1-.23-2.28.91-3.43,1.41-4.79-3.79-2.32-7.79,0-11.43C565.58,500.85,571.84,491.44,578,482Z" transform="translate(0 0)"/><path class="cls-12" d="M61.11,654.51l14.57.91c-.37,11-.63,22-1.17,32.92-.14,2.75-.41,6.17-2.07,7.93-1,1.13-4.75-.33-7.27-.4-.91,0-1.83.83-2.77.88-4.92.23-9.87.54-14.78.31-1.19-.06-2.29-2.06-3.43-3.16,1.11-1,2.06-2.34,3.36-3,1.89-1,4.08-1.38,6.05-2.25,4-1.74,6.31-4.65,6.46-9.2C60.33,671.13,60.75,662.82,61.11,654.51Z" transform="translate(0 0)"/><path class="cls-14" d="M125.65,444.55v30.54H100.84V444.46l5.77-1c.9,3.77,3.79,4.76,7.1,4.79s6.23-.88,7.22-4.63Z" transform="translate(0 0)"/><path class="cls-11" d="M1241.77,165.36l-59.84.08c.23-2.84.46-5.68.67-8.51,3.17,1.11,4.89-.41,6.39-3.09,1-1.87,2.79-3.35,5-5.92l1.43,7.24,1.19.39,4.34-6.85,3,4.11c2.27-2.58,4.07-4.64,6.37-7.27,3.11,5.91-.79,13.06,5.14,16.37,8.43-2.43-.28-9.89,5.58-14.53.6,4.36,1,7.6,1.52,11,3.53.43,4.63-14,9.33-.75l3.34-5,6.46,3.66Z" transform="translate(0 0)"/><path class="cls-12" d="M118.14,654.68l14.65.66c0,7,.19,13.95,0,20.92-.11,4.11.82,7.42,4.29,10a8.09,8.09,0,0,1,2.69,4c1.3,4.54.07,6-4.67,6H123.65c-5.87,0-7.25-2-6.88-8C117.47,677.12,117.71,665.89,118.14,654.68Z" transform="translate(0 0)"/><path class="cls-2" d="M313.17,679.25h21.3a28.12,28.12,0,0,0,.49-2.89c.35-6.12,3.77-8.68,9.56-6.59a6,6,0,0,1,3,4.37c.38,5,.06,10,.16,15,.07,3.64-1.92,4.6-5.08,4.41s-7.11,1-7.6-4.07c-.18-1.78,0-3.59,0-6-6.85,0-13.14-.19-19.4.19-1,.06-2.68,2.72-2.58,4.07.41,5.42-2.56,5.81-6.81,5.88-4.59.07-5.78-1.94-5.56-6.06.24-4.32.14-8.66,0-13s2.54-5.15,6.17-5.12,6.39.54,6.05,5.12A36.81,36.81,0,0,0,313.17,679.25Z" transform="translate(0 0)"/><path class="cls-24" d="M648.77,597.36v-8.9c5.12-11.7,2.71-23-3.2-33.33-3.62-6.3-7.15-12.26-7.74-19.6h1c15,9.85,22.91,23.58,22.91,41.69,0,6.66.14,13.31.21,20Z" transform="translate(0 0)"/><path class="cls-19" d="M621.54,135.54l11.36-7.2c6.51,10.56,9.33,22.44,10.46,34.45.92,9.82-.13,19.87-.82,29.78-.18,2.55-2.13,5.1-3.69,7.36a3.67,3.67,0,0,1-3.48.76c-.78-.36-1-2.09-1.33-3.25-.44-1.56-.76-3.15-1.28-5.38,7.69-4,6.68-11.09,4-18.7-1.14-3.27-3-6.85-2.55-10,1.35-10.26-4.25-17.14-10.17-24.1A37.18,37.18,0,0,1,621.54,135.54Z" transform="translate(0 0)"/><path class="cls-21" d="M1194.94,136.45c-.09-5.71-1-11.63,4-16.06l6.63-.16,9.08,1.22c3.69,5,8.53,2.89,13.15,2.12q.42,6.44.85,12.86c-3.12,0-4,7-8.64,1.91-.14,1.88-.22,3-.3,4.08h-22C1197.42,140.15,1199,137,1194.94,136.45Z" transform="translate(0 0)"/><path class="cls-19" d="M1343.13,171.59c0-3.06.07-6.12.11-9.18l1.55-1.07h-.06l1.06-1h0c1.54-.66,3.36-1,4.58-2,12.91-11,25.72-22.18,38.56-33.3q1.63,8.19,3.28,16.38c-10.09,9.79-22.7,15.5-34.94,21.84C1352.38,165.76,1347.82,168.8,1343.13,171.59Z" transform="translate(0 0)"/><path class="cls-2" d="M561.67,206.35c1,3.74,2.05,7.48,3.09,11.21-1,7.54-2.1,15.09-3,22.65q-4,34.16-7.87,68.33c-.47,4.13-.58,8.32-1.36,12.38-.37,1.93-1.94,3.63-3,5.44-.61-1.81-1.89-3.68-1.72-5.42,1.26-13.23,2.76-26.44,4.26-39.64,1.88-16.51,3.72-33,5.77-49.51C558.94,223.29,560.4,214.83,561.67,206.35Z" transform="translate(0 0)"/><path class="cls-7" d="M898.75,541.37c4.59,2,9.27,2.78,14.14,1.06-4.25,4.14-8.31,8.51-12.86,12.28-1.55,1.29-4.41,1.67-6.57,1.45-13-1.34-25.46-4.62-37-10.83.41-1.65.83-3.3,1.25-4.93,12,1.28,24,2.33,36,4C896.86,544.82,897.93,543.82,898.75,541.37Z" transform="translate(0 0)"/><path class="cls-22" d="M1197.7,142.45h22a32.14,32.14,0,0,0,4,4.33c4,3,10,1,11.21-3.57,5.87,1.91,7.07,4.21,6.8,13l-6.46-3.66-3.34,5c-4.7-13.23-5.8,1.18-9.33.75-.47-3.36-.92-6.6-1.52-11-5.86,4.64,2.85,12.1-5.58,14.53-5.93-3.31-2-10.46-5.14-16.37-2.3,2.63-4.1,4.69-6.37,7.27l-3-4.11-4.34,6.85-1.19-.39-1.43-7.24c-2.22,2.57-4,4-5,5.92-1.5,2.68-3.22,4.2-6.39,3.09-1.48-4.66-.14-8.72,2.66-12.47C1189.83,146.4,1193.9,145.26,1197.7,142.45Z" transform="translate(0 0)"/><path class="cls-19" d="M1395.87,113.58a10,10,0,0,0-6.14-9.22c-6.28-3.07-8.72-9.07-6.38-16.94,5.43,2.43,10.79,4.67,16,7.3.89.45,1.35,2.55,1.32,3.87-.21,8.61,2.81,12.3,11.35,13.49,1,.14,2,.16,3,.23.91,8-4.78,14.79-12.81,14.91-4.75.06-7.84-2.26-8.6-7.18C1394.34,117.89,1395.1,115.74,1395.87,113.58Z" transform="translate(0 0)"/><path class="cls-2" d="M1171.84,155.13c2.35,7.37-4,14.09-10,15.46-4.82,1.11-10.06.38-15.11.46l-8.66-6.87-.66-11.26Z" transform="translate(0 0)"/><path class="cls-21" d="M941.78,487.25c-.95-6.49-3.2-12-8.08-17s-5-12.07-1.91-18.7a77.54,77.54,0,0,1,8.35-.39c8.14.45,13.05,6.12,12.35,14-.15,1.79-.43,3.56-.65,5.33-3.92,5.56.79,11.06.11,16.6Zm-7.63-21.49-.89,2c2.24,1.09,4.52,3.09,6.72,3,2.85-.09,4.86-2.39,4.4-6.17Z" transform="translate(0 0)"/><path class="cls-1" d="M1351.8,172.35l5,7.11c1.74,5.09,3.3,10.26,5.28,15.26.82,2.07,2.77,3.69,3.75,5.73.79,1.65,1.62,3.91,1.05,5.35-.42,1-3.43.75-4.73,1.76-5.63,4.41-9.58-1.63-14.39-2-3.48-.59-4.1-3.11-4.06-6.06l.42-1.31c1.21-3.85,2.94-7.63,3.5-11.58.46-3.27-.44-6.74-.74-10.13Z" transform="translate(0 0)"/><path class="cls-12" d="M97.47,418.78c-2-10.58,10.46-21.52,20.59-18.06.77.27,1.87.56,2.15,1.15,3.23,7,10.53,8.35,17.55,12.27l-12.08,6.18c-2.48-.73-4.94-1.51-7.43-2.2-3.27-.9-6.56-1.74-9.83-2.6Z" transform="translate(0 0)"/><path class="cls-3" d="M.63,362.27c1.24.17,2.68,0,3.7.57,8.54,4.77,13.47,12.63,17.42,21.17,8.07,17.4,11.58,36,13.67,54.87,1.77,15.83,2.38,31.79,3.51,47.69a.7.7,0,0,0,0,.71l.18,27.84-2.57.93q-.43-22.32-.88-44.63a19.77,19.77,0,0,0-.08-2.18c-.29-1.61-.72-3.2-.85-4.81-.71-8.44-1-16.92-2-25.31-2.25-18.18-5.46-36.18-13.06-53-3.8-8.41-8.5-16.23-16.9-21Z" transform="translate(0 0)"/><path class="cls-19" d="M108.42,415.52c3.27.86,6.56,1.7,9.83,2.6,2.49.69,5,1.47,7.43,2.2a17.81,17.81,0,0,1-2.86,13c-1.7,2.76-1.33,6.8-1.89,10.27-1,3.75-3.92,4.66-7.22,4.63s-6.2-1-7.1-4.79c.62-3.84,2-7.81-1.81-10.92-.32-2.28-.63-4.56-1-6.84-.23-1.51-.49-3-.74-4.53h4.52C107.87,419.39,108.14,417.46,108.42,415.52ZM123,429l-.74-1.46-6.33.33-.4,1.49c1.35.68,2.71,1.9,4.06,1.89C120.72,431.28,121.85,429.85,123,429Z" transform="translate(0 0)"/><path class="cls-16" d="M884.7,65.12c-1.9-4.94-4-9.82-5.57-14.86-.38-1.23,1-3,1.57-4.64l-2.5-.69c1.92-6.58,9.8-10,16.49-9.1,5,.64,9.07,1.79,12.31,5.54,2.51,2.92,3.12,5.87-.38,8.58-1.31-.16-2.62-.41-3.93-.47-2.27-.11-5-.88-6.68.1-1.45.83-1.71,3.71-2.89,6.65-1-2.1-1.77-3.62-3-6.07-1,1.67-2.49,3.07-2.21,3.8C889.73,58.63,886.42,61.61,884.7,65.12Z" transform="translate(0 0)"/><path class="cls-16" d="M951.84,470.52c.22-1.77.5-3.54.65-5.33.7-7.9-4.21-13.57-12.35-14a77.54,77.54,0,0,0-8.35.39c-5.54-2.92-6.74-6.71-4.38-13.55,7.5,1.6,15.11,2.8,22.46,4.89,10.78,3.07,13.13,10,7.16,19.6C955.35,465.21,953.57,467.85,951.84,470.52Z" transform="translate(0 0)"/><path class="cls-24" d="M577.74,561.9c-2.91,8.11-6.85,15.41-15.08,19.37-1.86-12,1.59-22.79,8.38-32.34,3.38-4.75,8.36-8.37,12.61-12.51l2.44,1.05-.09,1.89a8.3,8.3,0,0,1-.14,1q-2.19,5.75-4.36,11.49C580.23,555.2,579,558.55,577.74,561.9Z" transform="translate(0 0)"/><path class="cls-7" d="M941.78,487.25l10.17-.13,3.11,1.07-7.32,10.22.06-.07-.81.89-25.15,20.22c-.11-8.74,3.32-16.48,6.85-24.19h0l2.07-2v.05l2-1.9Z" transform="translate(0 0)"/><path class="cls-16" d="M1216.56,436c-4-5.47-9-10.51-11.89-16.55-2.73-5.81.79-10.5,7.13-12.21l17.78-4.76c4.05,5.74,4.24,9.07.13,13.81l-7.32,1.49c-8.17,1.57-10.7,6.36-7.42,14.05C1215.55,433.16,1216,434.57,1216.56,436Z" transform="translate(0 0)"/><path class="cls-19" d="M1216.56,436c-.53-1.39-1-2.8-1.59-4.17-3.28-7.69-.75-12.48,7.42-14.05,2.45-.47,4.88-1,7.32-1.49,3.23,4.23,5.62,8.65,3,14.12-.16-1,0-2.37-.56-2.79a7.36,7.36,0,0,0-4-1.48c-.46,0-1.65,2.64-1.29,3.08a7.82,7.82,0,0,0,3.75,2.09c.57.17,1.44-.61,2.17-1-.08,1,.21,2.23-.29,2.83-4.15,4.89-2.72,10.57-2.52,16.09l-9.14.16C1220.81,444.47,1221.13,439.44,1216.56,436Z" transform="translate(0 0)"/><path class="cls-19" d="M1110.86,81.52c2.49-3.29,3.36-6.76,1.16-10.57a7.5,7.5,0,0,1-.42-.91c-3.82-8.94-2.83-10.56,6.67-10.89,1.83-.06,3.67,0,5.49.08,6.38.39,7.33,1.86,4.77,7.71a11.43,11.43,0,0,1-3.09,4.45c-4.07,3.11-5,7.2-4.6,11.94l2.64,4.54c-7,6.26-11.11,5.58-15.8-2.63Z" transform="translate(0 0)"/><path class="cls-3" d="M40.72,628.37V699l-6.23.28V628.4Z" transform="translate(0 0)"/><path class="cls-6" d="M215.76,562.23l-1.2,12.11-37.81.06h-.09c.74-.66,1.53-1.93,2.22-1.88,4.1.3,8.17,1.31,12.25,1.31,7.27,0,14.54-.56,21.8-.88,0-.61-.05-1.22-.08-1.83H176.39c-.12-.57-.25-1.15-.38-1.72.09-.11.28-.25.26-.33a5.06,5.06,0,0,0-.36-.74q0-3-.1-6.1Z" transform="translate(0 0)"/><path class="cls-16" d="M261.5,63.54c-3.58-4.26-7.89-8.1-10.55-12.87-3.35-6,0-11.77,7.22-14.18,2.51-.84,5.19-1.21,7.7-2.05,2.32-.77,4.53-1.89,6.8-2.86,4.33,5.27,4.67,9,1.2,13.6-2.57.57-5.13,1.18-7.71,1.69-6.31,1.24-9,6.3-6.46,12.09C260.36,60.46,260.9,62,261.5,63.54Z" transform="translate(0 0)"/><path class="cls-19" d="M884.7,65.12c1.72-3.51,5-6.49,3.24-11.16-.28-.73,1.2-2.13,2.21-3.8,1.2,2.45,2,4,3,6.07,1.18-2.94,1.44-5.82,2.89-6.65,1.69-1,4.41-.21,6.68-.1,1.31.06,2.62.31,3.93.47,1.11,4.89.37,8-3.08,12.44l-6.31-2.26c.77,2.68,1.31,4.58,2.06,7.22-6.5.31-7.89,6.17-10.73,10.68l-3.84-1.65h0l-2.81-2-1.27-1.29Z" transform="translate(0 0)"/><path class="cls-2" d="M1318.89,57.44l2.65-4.66c1.39,1.94,2.33,3.25,3.26,4.57q.08,3,.14,6.09-.72,15.39-1.43,30.78c0,.32,0,.82.23,1,7.91,4.88,2.09,12.35,4.56,18.76h-12.37V100a2.78,2.78,0,0,1,1-2.17c5.07-2.28,3.92-6.78,3.7-10.7-.44-7.9-1.27-15.79-1.94-23.68C1318.78,61.4,1318.84,59.42,1318.89,57.44Z" transform="translate(0 0)"/><path class="cls-2" d="M270.06,688.78c-1.45,2.54-2.11,5.46-3.8,6.27-4,1.93-6.47-.18-6.54-4.75,0-2.32.1-4.65,0-7-.19-3.15.21-5.63,4.25-5.71,3.78-.07,4.95,2,4.85,5.32a7.23,7.23,0,0,0,.56,1.62H283.9c1.41-2.6-.15-7,4.79-6.94,3.17.06,4.87,1,5.06,4.57.62,11.59.26,12.73-4.13,13.21-5.19.57-5-3-5.17-6.62Z" transform="translate(0 0)"/><path class="cls-19" d="M261.5,63.54c-.6-1.53-1.14-3.08-1.8-4.58-2.56-5.79.15-10.85,6.46-12.09,2.58-.51,5.14-1.12,7.71-1.69,4.47,6,4.76,11.93,1.25,18.89-1.7,3.36-.45,8.2-.53,12.36l-8.95-.14C265,71.79,265.47,67,261.5,63.54Zm13.71-6-1.06-1.33-9.19,2-.31,1.67c2.05.74,4.28,2.36,6.08,2s3-2.77,4.48-4.31Z" transform="translate(0 0)"/><path class="cls-25" d="M1261.78,265.12l-94.83-.57v-2.36l94.83-.58Z" transform="translate(0 0)"/><path class="cls-2" d="M1301.86,63.41c-.66,9.72-1.38,19.44-1.86,29.17,0,1,1.24,2.14,2.12,3a12.19,12.19,0,0,1,1.7,15.49c-2.71,4-7.06,4.15-9.9.38a12.29,12.29,0,0,1,1.48-15.88c.9-.83,2.18-2,2.13-3-.49-9.73-1.22-19.45-1.88-29.17,0-2,.09-4,.14-6l3-4.74,3,4.75Z" transform="translate(0 0)"/><path class="cls-2" d="M1272.91,58.69c1-1.74,2.09-3.48,3.7-6.14,1.36,2.26,2.17,3.59,3,4.93l.15,5.88q-1,15.35-1.92,30.69c0,.31.09.8.3.92,8.27,4.63,2.66,12.37,5,18.72h-6.22V101.21h-1.24V113.8H1274V101.16h-1.51V115c-3.17-6.32-2.12-15.55,1.3-19.16a3.44,3.44,0,0,0,1.11-2.08c-.4-10.11-.91-20.21-1.39-30.32C1273.32,61.87,1273.11,60.28,1272.91,58.69Z" transform="translate(0 0)"/><path class="cls-21" d="M1171.84,155.13l-34.39-2.21,3.49-3.64c5.18-.15,4-6,7.11-8,6.56-2.26,12.8-.77,18.3,2.67,2.14,1.34,3,4.86,4.27,7.45A25.8,25.8,0,0,1,1171.84,155.13Z" transform="translate(0 0)"/><path class="cls-2" d="M40.72,628.37H34.49l-1.73-1.06c.33-1.06.65-2.12,1-3.18l-.66-.24-2.24,2.44c-3.54-3.21-4.1-7.27-2.5-11.4,1.31-3.36,3.73-6,7.94-5.6.86-1,1.72-2.05,2.59-3.07A17.87,17.87,0,0,0,42,609.59c3.71,2.43,6.17,5.5,5.68,10.15A9.41,9.41,0,0,1,40.72,628.37Zm-3-8.88-1-.75-2.13,3.65.94.55Z" transform="translate(0 0)"/><path class="cls-24" d="M565.92,647.49q2.77-6.71,5.56-13.41c-.28,8.9-.23,17.84-.93,26.71-.9,11.4-2.34,22.77-3.76,34.13-.17,1.38-1.65,2.6-2.53,3.9-.55-1.51-1.67-3.07-1.55-4.53,1.21-13.72,2.67-27.41,3.92-41.13C566.8,651.31,566.17,649.38,565.92,647.49Z" transform="translate(0 0)"/><path class="cls-25" d="M1166.93,297.21l94.82.11v2.93l-94.94.18Z" transform="translate(0 0)"/><path class="cls-26" d="M1025.82,680.85c.31-2.82.63-5.64.94-8.47,17.31-.28,14.88-1.63,14.8,14,0,2.29-1.63,4.57-2.5,6.85-2.59-1.07-5.77-1.53-7.6-3.35C1029,687.39,1027.65,683.89,1025.82,680.85Z" transform="translate(0 0)"/><path class="cls-26" d="M884.59,676.29h8.48c0,3.63.37,7.35-.3,10.87a6.37,6.37,0,0,1-4.16,4.11c-3.88.6-7.91.29-11.88.17-4.65-.14-6.9-4-3.74-7.26S880.67,678.87,884.59,676.29Z" transform="translate(0 0)"/><path class="cls-23" d="M586.09,537.47l-2.44-1.05c-8.38-3.09-16.66-6.38-23-13.11a38.68,38.68,0,0,1,6.36.4c9.62,2.2,19.2,4.58,28.79,6.89l1,3.79c-1.11,4.13-3.71,4.79-7.41,3.36A11.8,11.8,0,0,0,586.09,537.47Z" transform="translate(0 0)"/><path class="cls-7" d="M884.72,76.38,888.56,78C900,89.22,901,104.4,891.34,120.66q-1.41-5.62-2.83-11.26c5.16-8.61,4.12-17.25,0-25.85C887.36,81.11,886,78.77,884.72,76.38Z" transform="translate(0 0)"/><path class="cls-26" d="M1235.77,681.37l9.06,1c3.1,1.79,6.44,3.28,9.18,5.52,1.16.94,1.73,3.66,1.26,5.16-.34,1.1-2.78,2-4.38,2.16-2.93.34-5.94,0-8.91.12-4.61.19-6.77-2-6.59-6.52C1235.49,686.29,1235.64,683.83,1235.77,681.37Z" transform="translate(0 0)"/><path class="cls-2" d="M648.77,597.36l13.19-.15c4,0,8-.35,11.92.23,1.79.27,3.28,2.42,4.91,3.72-1.65,1.44-3.17,3.89-5,4.13-4.57.59-9.27.18-13.91.18H653.6l-5.74.07Z" transform="translate(0 0)"/><path class="cls-26" d="M1203.81,681.4l9,.94a106.24,106.24,0,0,1,10,6.09c.93.7,1.36,3.22.84,4.39s-2.42,1.82-3.85,2.38a8.4,8.4,0,0,1-3,0C1203.15,695.25,1203.15,695.25,1203.81,681.4Z" transform="translate(0 0)"/><path class="cls-26" d="M1085.86,320.59h5.8c3.67,2.09,7.52,3.94,10.9,6.42,1,.76,1.54,3.59,1,4.84s-2.85,1.58-4.42,2.23a4.09,4.09,0,0,1-1.48,0C1085.85,333.89,1084.51,336.94,1085.86,320.59Z" transform="translate(0 0)"/><path class="cls-23" d="M1214.63,121.45l-9.08-1.22q-1.42-2.27-2.86-4.53c.16-1.69.31-3.38.46-5.06l5.1,1.36c.68-2.34,1.42-4.92,2.17-7.5l1.84.13c.39,2.17.78,4.34,1.26,7.06l7-5.72v6.14c-.08.25-.16.5-.25.75l.71-.29c5.47,1,2.34,3.47,1,5.64Z" transform="translate(0 0)"/><path class="cls-26" d="M1112.25,320.74l5.58-.27a125,125,0,0,1,11.32,6.55c1,.72,1.5,3.55.91,4.78s-2.82,1.62-4.39,2.23a5.6,5.6,0,0,1-2,0C1111.2,334.08,1110.8,333.61,1112.25,320.74Z" transform="translate(0 0)"/><path class="cls-16" d="M869.91,273.75l.93-5.21,4.56-6.09,7.68,4c.27.56.54,1.13.8,1.69q1.49,3.15,3,6.3l1.56,7.76a63,63,0,0,1-7.54-2.53C877.11,277.9,873.55,275.75,869.91,273.75Z" transform="translate(0 0)"/><path class="cls-2" d="M35.63,469.24a19.77,19.77,0,0,0,.08,2.18c-1,2.22-2.41,4.35-2.82,6.67-1.64,9.27-3.25,18.57-4.32,27.92-1.73,15.24.7,30,6,44.35.27.71,1.18,1.18,1.78,1.76q1.23,3.11,2.44,6.21v10.11c-.19-2.28-.39-4.55-.5-5.84-.67,2.72-1.54,6.27-2.41,9.82,1.29-10.58-3.12-19.91-5.85-29.78-5.62-20.36-4.81-41.14.32-61.56,1.71-6.81,3.22-13.07-1.07-19.3.21-.21.43-.41.65-.6Q32.83,465.2,35.63,469.24Z" transform="translate(0 0)"/><path class="cls-26" d="M271.83,317.39H277c.16,2.79.47,5.58.42,8.37,0,1-.83,2.93-1.37,3-5.48.35-11,.39-16.45.51,0-1.91-.75-5,.13-5.55C263.5,321.18,267.75,319.42,271.83,317.39Z" transform="translate(0 0)"/><path class="cls-26" d="M375.84,263.45c.67-1.65,1.34-3.31,2-5,11.54,3,13.93,11.11,5.7,19.83-2.46,2.61-5.46,1.58-6.22-1.39C376.23,272.59,376.28,268,375.84,263.45Z" transform="translate(0 0)"/><path class="cls-24" d="M571.81,632.39c-.75-5,1.8-8.6,4.83-12.06a6.87,6.87,0,0,1,1.06,2.09c1.43,13.91,2.79,27.82,4.17,41.72l-4.86.48c-.78-9.44-1.45-18.88-2.44-28.29C574.42,634.94,572.77,633.7,571.81,632.39Z" transform="translate(0 0)"/><path class="cls-16" d="M1295.1,398.78l5.61-.52c.33,1.38.61,2.61,1,4.3l-6.33,1.31-5.72.83c-3.29.06-6.23.25-8.61,3.42-2,2.66-5.36,2.52-8,.28s-3.18-5.07-1.14-8,4.92-3.52,8.27-1.92a37.41,37.41,0,0,0,5.26,1.68C1289.23,403.38,1292.43,402.82,1295.1,398.78Z" transform="translate(0 0)"/><path class="cls-22" d="M860.48,508.53,857,494.8l-6.37.75c-.7-2.82-1.36-5.47-2.15-8.62l15.11-3.82c.85,3,1.59,5.62,2.42,8.57l-6.2,2.32c1.24,4.69,2.48,9.42,3.73,14.16l-.39,1.69Z" transform="translate(0 0)"/><path class="cls-10" d="M157,174.1c6.47-8.09,15.34-12.4,25.5-13.58,14.19-1.64,26,4,36.12,13.27l-.81,1.74c-1.87-1.11-3.68-2.32-5.61-3.31-5.14-2.63-10.1-6-15.55-7.59-12.92-3.82-24.51-.25-34.78,8.15-1.25,1-2.67,1.83-4,2.74Z" transform="translate(0 0)"/><path class="cls-2" d="M.63,362.27l2.14,2.84c3.86,18.6,6.84,37.44,11.86,55.73,3.78,13.81,10.15,26.92,15.37,40.34-.22.19-.44.39-.65.6-3.92-8.57-8.29-17-11.65-25.73C9.13,413.63,4,390.33.81,366.57c-.16-1.14-.54-2.25-.81-3.37l.73-.9Z" transform="translate(0 0)"/><path class="cls-16" d="M1320.9,415l-6.67-2.5c.32-1.31.63-2.6,1.06-4.39L1321,410c2.54,2.33,4.52,6.63,8.93,2.62,1.67-.16,3.45,0,5-.54,3.63-1.29,6.78-.28,7.71,3.08a8.5,8.5,0,0,1-2.18,7.17c-2.69,2.43-5.59,1-8.19-1.62-1.87-1.88-4.66-2.85-7-4.23Z" transform="translate(0 0)"/><path class="cls-19" d="M186,527.73l6.4-4.41c2.53,3,5.34,5.89,7.5,9.17,1.48,2.25,2,5.1,3,7.69-.11.59-.21,1.19-.31,1.78l-4.8,3.91-3.06-4.07.8-2.65-3.91-.67Q188.78,533.11,186,527.73Z" transform="translate(0 0)"/><path class="cls-26" d="M574,321.2l8.82.21c0,10.57,1,10.61-10.56,10.43-2.47,0-4.94-.13-7.41-.29-.39,0-.74-.56-2-1.55Z" transform="translate(0 0)"/><path class="cls-26" d="M11.6,305.11l6.11,4.32c1,2.75,2.32,5.45,2.73,8.29a5.56,5.56,0,0,1-2.14,4.42c-.84.58-3.17-.11-4.29-1C2.91,312.75,4.1,315.18,11.6,305.11Z" transform="translate(0 0)"/><path class="cls-26" d="M602.14,320.55l10.51.76c-1.13,10.53-1.13,10.55-11.67,10.52-2.38,0-4.76-.22-7.15-.34l-.81-1.66c2.41-1.94,4.92-3.78,7.19-5.87C601.12,323.12,601.51,321.71,602.14,320.55Z" transform="translate(0 0)"/><path class="cls-26" d="M124.8,316.34l7.71.92c2.38,1.66,5.23,2.93,7,5.07,2.5,3,.92,5.74-3,6H135C123.37,328.44,123.34,328.4,124.8,316.34Z" transform="translate(0 0)"/><path class="cls-10" d="M213.55,182.76c-8.44-5.23-16.09-10.46-26.07-10.65s-17.48,4.74-25.33,10.57c.92-6.11,12.72-13.09,21.21-13.33C197,169,211.93,175.16,213.55,182.76Z" transform="translate(0 0)"/><path class="cls-19" d="M1152.71,535.35l6.26,3.16c-.6,3.34-1.19,6.68-1.68,9.43-1.7.9-3.28,1.68-4.79,2.57-1.3.76-2.52,1.65-3.77,2.48-.81-1.66-2.43-3.42-2.23-5,.31-2.51,1.68-4.92,2.84-7.26C1150.37,538.88,1151.5,537.09,1152.71,535.35Z" transform="translate(0 0)"/><path class="cls-24" d="M583.85,672.28c.08,5,.1,9.9.27,14.84.11,3.13.58,6.24.6,9.37,0,.91-1,1.83-1.47,2.74-.9-.74-2.42-1.35-2.59-2.23a101.28,101.28,0,0,1-1.44-11.24c-.46-5.57-.73-11.15-1.08-16.72Z" transform="translate(0 0)"/><path class="cls-5" d="M215.76,562.23H175.81l-.09-2h1.84l36.24.13,1.93,1.82Z" transform="translate(0 0)"/><path class="cls-7" d="M915.79,525.47c-1.4,1.79-2.57,3.84-4.24,5.32-2.71,2.37-5.16,1.76-6.84-1.49l14.13-23.36Q917.31,515.71,915.79,525.47Z" transform="translate(0 0)"/><path class="cls-26" d="M1405.79,324.47h4.81a14.14,14.14,0,0,1,.31,1.95c.26,7.53-5.49,11.37-12.55,8.27-2.66-1.17-2.78-3.59-.86-5.2C1400,327.48,1403,326.13,1405.79,324.47Z" transform="translate(0 0)"/><path class="cls-19" d="M232.31,17.45l-6.63-3.15c1.41-3,2.64-6.1,4.28-9A16.87,16.87,0,0,1,234.08.52a3.69,3.69,0,0,1,3.53-.13c.71.53.61,2.25.69,3.46.1,1.61,0,3.23,0,5.88Z" transform="translate(0 0)"/><path class="cls-3" d="M915.79,525.47q1.53-9.76,3.05-19.53l9.85-10.68c-3.53,7.71-7,15.45-6.85,24.19Z" transform="translate(0 0)"/><path class="cls-19" d="M1138.11,164.18l8.66,6.87c-3.75,5.52-8.53,1.77-12.93,1.44l-9.86-4.07,2.44-3.78,6.17.71Z" transform="translate(0 0)"/><path class="cls-26" d="M1353.81,683.52l4.06.18c.8,10.71.8,10.71-9.7,10.71h-6.69l-.56-1.57Z" transform="translate(0 0)"/><path class="cls-26" d="M1477.77,321.37l3.29-1.5a4.5,4.5,0,0,1,.69.69c4.74,7.31,2.63,12.38-6,14.1-3.29.65-4.62-1.76-3.63-4.18C1473.43,327.21,1475.83,324.39,1477.77,321.37Z" transform="translate(0 0)"/><path class="cls-2" d="M1244.26,382.46c-.81,3.29-1.07,5.46-2,7.32-.32.65-2.23.52-3.41.75-.14-1-.77-2.33-.35-3,3.11-4.65,3.17-4.6,3.73-10.65l11.39-1.66c0,4.13.21,7.61-.12,11-.11,1.09-1.53,2.25-2.63,2.95-.4.26-1.6-.73-2.44-1.14l2-3,1.9-2.84-.76-1.14Z" transform="translate(0 0)"/><path class="cls-19" d="M36.59,516.05l2.57-.93,6.91.2c3.82,2,3.41,4.95,1.65,8.13l-8.86,3.12H36.34C32.71,523,32.9,519.46,36.59,516.05Z" transform="translate(0 0)"/><path class="cls-10" d="M165.87,188.16c4.17-5.85,10.08-9,17.25-9.78a31.29,31.29,0,0,1,26.71,9.26l-.59,1.54a17.94,17.94,0,0,1-3.82-1.78c-10.74-8.43-25.88-10-36.61,1.16-.47.49-1.42.52-2.14.76Z" transform="translate(0 0)"/><path class="cls-26" d="M644.57,695.62l4.77,3.09c1.89,1.87,3.19,3.61-1,4-.83.08-1.67.08-2.5.13-11.21.64-11.21.64-10-10.54h3.82Z" transform="translate(0 0)"/><path class="cls-26" d="M1392.92,683.6l4.29.72c.12,1.13.33,2.26.35,3.4.09,6.57,0,6.7-6.5,6.68-3.13,0-6.25-.09-9.37-.18-.26,0-.5-.33-1.65-1.16Z" transform="translate(0 0)"/><path class="cls-2" d="M589.23,601.36l-3.65,4-9.52.23-5.45-.15-2-.26,11.85-10.76Z" transform="translate(0 0)"/><path class="cls-19" d="M349.75,128.36l3.15-6.2,9,2.08c.62,1.27,1.39,2.89,2.22,4.48.63,1.18,1.35,2.32,2,3.48-1.37.71-2.86,2.17-4.07,2a28.64,28.64,0,0,1-7.26-2.71A52.25,52.25,0,0,1,349.75,128.36Z" transform="translate(0 0)"/><path class="cls-19" d="M1440.57,528.6l3.23-6.26c2.78,3.65,5.87,7.11,8.25,11,1.94,3.19,1.45,4.12-.94,6.59l-6.58-3.63-.51.86Z" transform="translate(0 0)"/><path class="cls-26" d="M583.85,672.28,578.14,669c-.92-1.34-4.28-2-1.13-4.42l4.86-.48,8-.79,3.42,2.07c-.61,1.52-1.25,3-1.83,4.56C589.93,674.07,587.37,674.77,583.85,672.28Z" transform="translate(0 0)"/><path class="cls-23" d="M1234.86,143.18c-1.19,4.55-7.25,6.57-11.21,3.57a31.55,31.55,0,0,1-4-4.33c.08-1.1.16-2.2.3-4.08,4.67,5.09,5.52-2,8.64-1.91,0,3.93,2.17,3.67,4.73,1.7.21,2,.34,3.27.47,4.54l1,.66Z" transform="translate(0 0)"/><path class="cls-10" d="M205.1,196.66c-11.27-8.75-22.39-10.84-33.44,0-.49-4.25,2.79-7.23,9.25-9.12C190.14,184.81,201.66,188.65,205.1,196.66Z" transform="translate(0 0)"/><path class="cls-23" d="M1197.7,142.45c-3.8,2.81-7.87,4-12.44,2l-4.14-5,1.08-1.1,4.66,1.21,2.16-4.11c2.28-.93,3.12,5.76,5.92.94C1199,137,1197.42,140.15,1197.7,142.45Z" transform="translate(0 0)"/><path class="cls-20" d="M897,140.48c-1-2.56-2.09-5.11-3.13-7.67l17.65,3.29c-.24,1.73-.48,3.46-.71,5.19Z" transform="translate(0 0)"/><path class="cls-15" d="M1301.86,63.41l-.15-6h17.17c0,2-.1,4-.15,5.94Z" transform="translate(0 0)"/><path class="cls-19" d="M21.6,135.63l3.4-4.55,6.75,3.49c.91,1.7,1.92,3.43,2.75,5.25a23.3,23.3,0,0,1,1,3.47c-1.33.12-3.09.85-3.93.27C28.1,141.13,24.9,138.31,21.6,135.63Z" transform="translate(0 0)"/><path class="cls-21" d="M860.48,508.53l2.67,1.34.39-1.69c5.27-1.87,4.28,3.68,6.47,5.46l-2.36,4.51c-4.36,1.06-7.17-1.53-9.48-4.49C856.13,511,856.24,508.67,860.48,508.53Z" transform="translate(0 0)"/><path class="cls-15" d="M1279.74,63.36l-.15-5.88,16.2-.1q-.06,3-.14,6Z" transform="translate(0 0)"/><path class="cls-19" d="M139.87,87.11l-4.36,3.39-5.71-3.09c-.92-2-1.85-3.81-2.55-5.67a23.83,23.83,0,0,1-.75-3.55c1.37,0,3.24-.66,4,0C133.81,81,136.78,84.1,139.87,87.11Z" transform="translate(0 0)"/><path class="cls-3" d="M36,572.42c.87-3.55,1.74-7.1,2.41-9.82.11,1.29.31,3.56.5,5.84v37.85c-.87,1-1.73,2-2.59,3.07q.06-14.93.15-29.84l-.64-2.23-.12-3Z" transform="translate(0 0)"/><path class="cls-16" d="M108.42,415.52c-.28,1.94-.55,3.87-.8,5.66H103.1c.25,1.51.51,3,.74,4.53.33,2.28.64,4.56,1,6.84C100,429.22,97,425,97.47,418.78Z" transform="translate(0 0)"/><path class="cls-16" d="M595.83,530.6c-9.59-2.31-19.17-4.69-28.79-6.89a38.68,38.68,0,0,0-6.36-.4l-1.08-1.47c1.15-.5,2.44-1.64,3.43-1.41,8.55,1.94,17.05,4.13,25.56,6.25l.11-.25,3.3,1.07,9.17,2.15c-.33.6-.7,1.72-1,1.71A33.68,33.68,0,0,1,595.83,530.6Z" transform="translate(0 0)"/><path class="cls-24" d="M570.61,605.46l5.45.15c.24,3,.49,6,.73,9.07l-6.91,10.79Q570.24,615.46,570.61,605.46Z" transform="translate(0 0)"/><path class="cls-3" d="M910.76,141.29c.23-1.73.47-3.46.71-5.19a31.19,31.19,0,0,1,1.86-4.75c.13-.24,2.55.17,2.89.82a16.54,16.54,0,0,1,2,6.11,67.56,67.56,0,0,1-.35,8.88l-6.06-1.63Z" transform="translate(0 0)"/><path class="cls-2" d="M1352.36,377.93a27.49,27.49,0,0,0-4.57,1.85c-2.63,1.64-5.09,2.06-6.76-.95-.47-.85.45-2.49.73-3.77l5.83,1.8-.19,1.26,9.8-4.9c-1.21,7.58-3.56,10.17-8.94,10.75l4.85-5.27.06-1.21Z" transform="translate(0 0)"/><path class="cls-10" d="M175.07,204c.74-4.82,5.24-8.12,10.21-8.6,6.92-.67,13.46,2.37,15.81,8.49C192.07,197.68,183.62,195.85,175.07,204Z" transform="translate(0 0)"/><path class="cls-15" d="M1272.91,58.69c.2,1.59.41,3.18.61,4.76-3.61,0-7.25.16-10.83-.17-1.31-.13-2.51-1.46-3.76-2.24.91-1,1.79-2.91,2.73-2.94C1265.4,58,1269.16,58.45,1272.91,58.69Z" transform="translate(0 0)"/><path class="cls-15" d="M1324.94,63.44q-.06-3-.14-6.09a62.05,62.05,0,0,1,9.83.3c1.39.23,2.52,2,3.77,3.13-1.36.87-2.65,2.3-4.11,2.49A76.76,76.76,0,0,1,1324.94,63.44Z" transform="translate(0 0)"/><path class="cls-6" d="M177.56,560.25h-1.84c.19-11,6.37-17.61,15.9-21.8l3.91.67c-.18.61-.49,1.63-.8,2.65-4.87-1-9.17.71-11.55,4.64C180.64,550.64,179.38,555.61,177.56,560.25Z" transform="translate(0 0)"/><path class="cls-2" d="M1288.28,382.7v-8.78l-1.36-.22c-.47,1.76-.8,3.57-1.44,5.27a10.93,10.93,0,0,1-2.32,4.22c-.72.66-2.53.66-3.59.26-.79-.31-1.8-2-1.56-2.59.4-1,1.72-2.37,2.65-2.38,2.76,0,3.68-1.27,4.29-3.73a3.75,3.75,0,0,1,3-2.14c1,.14,2.63,1.75,2.61,2.67a47.43,47.43,0,0,1-1.38,7.67Z" transform="translate(0 0)"/><path class="cls-2" d="M1358.74,395.66c-5.88,1-8.36,3.53-5.6,9.16a3.71,3.71,0,0,1,0,3.22c-.63.83-2.1,1-3.2,1.48a18.41,18.41,0,0,1-.1-3.32c.22-1.52,1.41-3.29.94-4.45-1.62-4-.55-6.22,3.55-7.33a42.71,42.71,0,0,0,5-2.06l2.35,5.87-.8.52Z" transform="translate(0 0)"/><path class="cls-27" d="M1214.63,121.45l7.27-3.24,9.35,3.48-3.47,1.88C1223.16,124.34,1218.32,126.44,1214.63,121.45Z" transform="translate(0 0)"/><path class="cls-3" d="M29.43,630.9c-1.24.94-2.42,2.59-3.73,2.7-4.28.34-8.6.13-12.91.13v-2.15l15.83-1.39Z" transform="translate(0 0)"/><path class="cls-3" d="M36.34,526.55h2.52v31.76l-2.44-6.21Q36.38,539.34,36.34,526.55Z" transform="translate(0 0)"/><path class="cls-16" d="M638.84,535.56h-1l-4.15.07-2.24-.51-.07-.82,7.42-1h22.3v.83Z" transform="translate(0 0)"/><path class="cls-19" d="M1289.67,404.7l5.72-.83c.24,3.43.48,6.85.71,10.28l-7.13-.7C1289.2,410.53,1289.44,407.62,1289.67,404.7Z" transform="translate(0 0)"/><path class="cls-3" d="M947.74,498.41l7.32-10.22,7,2.9Z" transform="translate(0 0)"/><path class="cls-18" d="M176.75,574.4l37.81-.06.15,1c-12.66,2.43-25.32,3-38,0A.93.93,0,0,1,176.75,574.4Z" transform="translate(0 0)"/><path class="cls-13" d="M215.73,562.2l-1.93-1.82c.25-8.57-3.85-14.49-11.21-18.42.1-.59.2-1.19.31-1.78C212,544.69,216.55,552.54,215.73,562.2Z" transform="translate(0 0)"/><path class="cls-27" d="M176.39,571.13h36.46c0,.61.06,1.22.08,1.83-7.26.32-14.53.88-21.8.88-4.08,0-8.15-1-12.25-1.31-.69,0-1.48,1.22-2.22,1.88Z" transform="translate(0 0)"/><path class="cls-19" d="M1295.1,398.78c-2.67,4-5.87,4.6-9.62,1.42,1.51-1.6,2.8-4.08,4.6-4.53C1291.41,395.34,1293.4,397.64,1295.1,398.78Z" transform="translate(0 0)"/><path class="cls-19" d="M638.82,533.31l-7.42,1,.07.82,2.24.51-4,1.8-1-2,8.58-8.82,2.56,5.4Z" transform="translate(0 0)"/><path class="cls-2" d="M28.93,589.15c-.74,3.53-1.05,6.85-2.24,9.82-.66,1.66-2.75,3.75-4.29,3.83-2.73.15-4.7-1.76-4.64-6.11,1,1.4,1.35,2.12,1.89,2.46,1.15.73,2.42,1.26,3.63,1.88.62-1.25,1.87-2.59,1.73-3.75C24.55,593.5,26.28,591.25,28.93,589.15Z" transform="translate(0 0)"/><path class="cls-19" d="M857.67,540.4q-.63,2.46-1.25,4.93c-6.81-.91-7.34-1.6-5.39-7l2.79-.12Z" transform="translate(0 0)"/><path class="cls-27" d="M1202.69,115.7q1.44,2.26,2.86,4.53l-6.63.16-6.24-4.69Z" transform="translate(0 0)"/><path class="cls-19" d="M1320.9,415l4.28,1.43-.3,6.88h-6.25C1319.39,420.54,1320.14,417.78,1320.9,415Z" transform="translate(0 0)"/><path class="cls-24" d="M853.82,538.17l-2.79.12c2.4-4.86,3.78-10.38,9.2-13.34Q857,531.55,853.82,538.17Z" transform="translate(0 0)"/><path class="cls-4" d="M302.82,573.53c1.21-3.34,3.66-4.63,7.1-4.27l3.12,1.92v1.67l-7.29,1.41-1.52-.52Z" transform="translate(0 0)"/><path class="cls-19" d="M1329.89,412.58c-4.41,4-6.39-.29-8.93-2.62C1326.56,407.26,1328,407.66,1329.89,412.58Z" transform="translate(0 0)"/><path class="cls-4" d="M401.06,568.49c2.91.82,5.93,1.55,4.67,5.76l-7.58-1.67Z" transform="translate(0 0)"/><path class="cls-2" d="M35.67,574.32l.12,3-.06,2-4.6,9.45L30,588.19Z" transform="translate(0 0)"/><path class="cls-3" d="M30.84,626.36l2.24-2.44.66.24c-.33,1.06-.65,2.12-1,3.18l-3.33,3.56-.86-.71C29.33,628.91,30.08,627.63,30.84,626.36Z" transform="translate(0 0)"/><path class="cls-3" d="M930.72,493.28l-2.07,2Z" transform="translate(0 0)"/><path class="cls-19" d="M627.76,609.37c.17,1,.35,1.91.52,2.86C628.11,611.28,627.93,610.32,627.76,609.37Z" transform="translate(0 0)"/><path class="cls-3" d="M932.65,491.43l-2,1.9Z" transform="translate(0 0)"/><path class="cls-8" d="M846.72,547.33c.11-.45.22-.9.34-1.35l.58.29-.85,1.13Z" transform="translate(0 0)"/><path class="cls-24" d="M35.73,579.27l.06-2,.64,2.23A1,1,0,0,1,35.73,579.27Z" transform="translate(0 0)"/><path class="cls-19" d="M39,487.28a.7.7,0,0,1,0-.71l.23.33Z" transform="translate(0 0)"/><path class="cls-7" d="M967.91,496.31c0-.33-.07-.65-.1-1q.13.31.24.63A.55.55,0,0,1,967.91,496.31Z" transform="translate(0 0)"/><path class="cls-7" d="M968.84,497.33l-1-1Z" transform="translate(0 0)"/><path class="cls-7" d="M912.77,542.44l1.4-1Z" transform="translate(0 0)"/><path class="cls-8" d="M845.76,548.36l1-1,.07.07Z" transform="translate(0 0)"/><path class="cls-27" d="M175.91,568.34a5.06,5.06,0,0,1,.36.74c0,.08-.17.22-.26.33A4.79,4.79,0,0,0,175.91,568.34Z" transform="translate(0 0)"/><path class="cls-3" d="M.73,362.3l-.73.9Z" transform="translate(0 0)"/><path class="cls-19" d="M304.26,573.74l1.52.52Z" transform="translate(0 0)"/><path class="cls-22" d="M1234.84,143.33l-1-.66Z" transform="translate(0 0)"/><path class="cls-26" d="M884.18,673.44c.08.37.17.73.26,1.1C884.35,674.17,884.26,673.81,884.18,673.44Z" transform="translate(0 0)"/><path class="cls-19" d="M1368.56,452.92a83.41,83.41,0,0,0,4.52-8.83,8.31,8.31,0,0,0,.16-5.69c-4-9.28-.75-16.24,12.78-21.7,1.56,8.6,3.4,16.86-1.2,25.07a40.83,40.83,0,0,0-3.51,8.15c-.27.89,1,2.24,1.53,3.39a52.1,52.1,0,0,0-6.13,2.55C1372.61,458.17,1370.56,457.51,1368.56,452.92Zm8.31-25.67c-1.55,1.62-3.38,2.8-3.22,3.55.28,1.26,1.81,2.25,2.81,3.36,1-1,2.61-1.8,2.83-2.9.18-.94-1.29-2.19-2.42-4Z" transform="translate(0 0)"/><path class="cls-19" d="M73.48,95.24c2-5.19,2.27-9.84-1.51-14.81C69.6,77.31,69.08,72.78,67.43,68H90c-1.35,4.33-1.83,8.71-4,12-3.41,5.38-3.27,10.11,0,15.17Zm11.3-17.46L84,75.66c-1.61-.08-3.22-.19-4.82-.23s-3.22,0-4.83,0l-.72,1.34c1.58,1.23,3.14,3.39,4.77,3.45C80.52,80.29,82.66,78.67,84.78,77.78Z" transform="translate(0 0)"/><polygon class="cls-28" points="1129.87 139.31 1129.65 139.22 1129.8 139.26 1129.87 139.31"/><path class="cls-28" d="M489.81,108.33q-2.46-39-4.9-78c-.19-3.12,0-6.25,0-9.73h94.43c1,14.11,2,28,2.92,41.85-1.56,5-1.65,9.89.89,14.64.08,1.73.15,3.45.22,5.17-2.86-4.13-5.63-8.33-8.61-12.37-1.47-2-3.2-5-5-5.14-2-.2-5.16,1.84-6.24,3.78-3.64,6.5-6.58,13.39-9.78,20.13a39.62,39.62,0,0,0-4.28-1.26c-8.94-1.63-15.1-6.38-20-14.32-4.27-7-10.67-12.64-16.13-18.87q1.42-11.05,2.86-22.09l-7.3,10.4c-1.75.78-5,1.6-5,2.32A18.59,18.59,0,0,0,506,53.33c3.21,5.54,7.63,10.41,10.5,16.09,4.27,8.44,9.21,16.14,16.76,22,4.48,3.45,9,6.8,13.53,10.2-.56,1.38-.81,3-1.76,4.08-1.93,2.09-4.17,5.21-6.42,5.33s-4.55-3-6.77-4.74c-.47-.38-.59-1.18-1-1.74-3.85-6-7.63-12-11.61-17.92-1.91-2.84-4.63-3.94-7.65-1.6a72.63,72.63,0,0,0-9.69,8.34C497.58,98.07,493.81,103.3,489.81,108.33Zm46.78-64.2c-.08,8.4,4.35,13.28,12.07,13.31,8.41,0,18.55-8.42,18.8-15.68.24-6.81-8.57-14.2-16.8-14.1C543,27.76,536.66,35.13,536.59,44.13Zm1.08-18.56-1.46-1.34c-1.54,1.37-3.37,2.53-4.58,4.15-6.68,9-8.68,18.91-5.46,29.68,1.8,6,5.41,10.73,11.68,12.62,1.82.54,3.95.08,5.93.08l.52-1.68c-12.22-.57-15.89-8.38-16.73-18.56C526.75,40.62,530.59,32.48,537.67,25.57Zm-33.88,7.65c-1.5,1.32-3.5,2.37-4.42,4C492.3,49.8,494.72,68,504.7,78.41a15.78,15.78,0,0,0,2.58,1.78l1.44-.43c-11.65-14.35-15.36-29.18-4.93-46.54ZM569,59.29c6.36-3.43,9.55-12.51,6.31-16.53Z" transform="translate(0 0)"/><path class="cls-27" d="M571,117.28c1.18.9,3.15,1.61,3.41,2.72,2.36,9.85,3,19.6-3.42,28.43-9.29-.35-18.53-.27-27.14,3.9-9.38,4.55-18.35,10.36-29.5,9.32h0c-4.66-2.28-10.43.53-14.77-3.24h-2.91l-3.88-.06-1.08-26.9c2.53-3.47,4.81-7.17,7.7-10.31,1.77-1.93,4.39-3.9,6.79-4.11,1.31-.12,3.4,3.19,4.32,5.31,1.4,3.26,3.09,5.17,7,5.15a10.16,10.16,0,0,1,5.84,2.12c7.88,6.12,13.1,5.82,19.51-2,3-3.73,6.3-4.91,10.32-2.35,5.18,3.3,9.06,1.45,12.68-2.49C567.53,120.88,569.26,119.09,571,117.28Z" transform="translate(0 0)"/><path class="cls-25" d="M571,117.28c-1.72,1.81-3.45,3.6-5.14,5.44-3.62,3.94-7.5,5.79-12.68,2.49-4-2.56-7.29-1.38-10.32,2.35-6.41,7.86-11.63,8.16-19.51,2a10.16,10.16,0,0,0-5.84-2.12c-3.87,0-5.56-1.89-7-5.15-.92-2.12-3-5.43-4.32-5.31-2.4.21-5,2.18-6.79,4.11-2.89,3.14-5.17,6.84-7.7,10.31a36.22,36.22,0,0,1-.91-4.73c-.4-6.12-.68-12.26-1-18.38,4-5,7.77-10.26,12.07-15A73.81,73.81,0,0,1,511.57,85c3-2.34,5.74-1.24,7.65,1.6,4,5.9,7.76,11.93,11.61,17.92.36.56.48,1.36.95,1.74,2.22,1.77,4.59,4.85,6.77,4.74s4.49-3.24,6.42-5.33c.95-1,1.2-2.7,1.76-4.08l3,1.8Z" transform="translate(0 0)"/><path class="cls-27" d="M563.88,164.39q-1.86,14.4-3.74,28.8l-11.22-.82c-.1-1.58-.2-3.16-.31-4.79h-5.55v4.77H531.64c-.21-1.71-.42-3.41-.67-5.41l-5.12.29c-.14,2-.26,3.54-.38,5.14l-3.92-3.77.65-1h-5c-.34,1.52-.65,2.91-1.07,4.77H510.6a25.69,25.69,0,0,0,.59-3.38c.21-4.58.33-9.16.48-13.75l1.07-1.93c7.69-1,15.44-1.57,23-2.94C545.25,168.74,554.54,166.43,563.88,164.39Zm-26.41,21.4c-1.41,2.09-2.72,3.18-2.59,4.05a3.89,3.89,0,0,0,2.55,2.43c.54.15,2.16-1.34,2.22-2.16.06-1-1-2.11-2.18-4.32Z" transform="translate(0 0)"/><path class="cls-19" d="M583.13,77.08c-2.54-4.75-2.45-9.65-.89-14.64l3.41-4.23c10.1,7.76,11.49,14.18,5.9,25.8a8.35,8.35,0,0,0-.54,5.63,6.24,6.24,0,0,1-2.27,7.44l-6.19-5.91,1.36-1.61c4.22-1.7,5.59-5.29,4.67-9.16C588.23,78.94,585,78.17,583.13,77.08Z" transform="translate(0 0)"/><path class="cls-20" d="M511.72,175.3c-.15,4.59-.27,9.17-.48,13.75a25.69,25.69,0,0,1-.59,3.38l-6.95-.08q-1-8.49-1.93-17l3.13-.11,5,.12Z" transform="translate(0 0)"/><path class="cls-27" d="M501.77,175.37q1,8.49,1.93,17h-1.48c-7.28.06-7.21.06-7.51-7.29-.14-3.59-.59-7.17-.9-10.75h7.08Z" transform="translate(0 0)"/><path class="cls-29" d="M500.89,174.31h-7.08q-.51-8-1-16l3.89.06Z" transform="translate(0 0)"/><path class="cls-4" d="M543.06,192.35v-4.77h5.55c.11,1.63.21,3.21.31,4.79Z" transform="translate(0 0)"/><path class="cls-1" d="M525.47,192.41c.12-1.6.24-3.19.38-5.14L531,187c.25,2,.46,3.7.67,5.41Z" transform="translate(0 0)"/><path class="cls-29" d="M563.88,164.39c-9.34,2-18.63,4.35-28,6-7.61,1.37-15.36,2-23,2.94q.76-5.87,1.54-11.72c11.15,1,20.12-4.77,29.5-9.32,8.61-4.17,17.85-4.25,27.14-3.9Q567.42,156.42,563.88,164.39Z" transform="translate(0 0)"/><path class="cls-19" d="M549.77,103.36l-3-1.8c-4.51-3.4-9-6.75-13.53-10.2-7.55-5.81-12.49-13.51-16.76-22-2.87-5.68-7.29-10.55-10.5-16.09a18.56,18.56,0,0,1-2.08-8.49c0-.72,3.24-1.54,5-2.32l4.44,11.69c5.46,6.23,11.86,11.9,16.13,18.87,4.88,7.94,11,12.69,20,14.32a39.62,39.62,0,0,1,4.28,1.26l2.13,1.65Q552.79,96.84,549.77,103.36Z" transform="translate(0 0)"/><path class="cls-25" d="M555.81,90.3l-2.13-1.65c3.2-6.74,6.14-13.63,9.78-20.13,1.08-1.94,4.24-4,6.24-3.78,1.84.18,3.57,3.16,5,5.14,3,4,5.75,8.24,8.61,12.37.19,2.43.37,4.87.56,7.31l-1.36,1.61c-7,4.37-14.34,3.7-21.72,1C559.15,91.59,557.48,90.94,555.81,90.3Z" transform="translate(0 0)"/><path class="cls-2" d="M1305.77,310.35h-23c-7.12-.06-11-4-11-11.2q-.07-22.71,0-45.43c0-7.48,3.87-11.3,11.41-11.32q22.71-.06,45.42,0c7.15,0,11.09,4,11.11,11.11q.09,23,0,45.93c0,6.54-4.39,10.84-11,10.9C1321.08,310.4,1313.43,310.35,1305.77,310.35Zm0-20,1.08-.91,1-.95,1.07-.94,8-8c.32-.34.65-.67,1-1l1-1,.94-1.08.42-.61-.61.42-1.13.89-1,1-1,1-8,8c-.31.36-.62.72-.92,1.09s-.63.71-.93,1.08l-.87,1.12a.93.93,0,0,0-.4.12c-.07.05-.06.2-.09.3Zm-15-14a1.31,1.31,0,0,0-.37.15c-.06,0-.05.17-.08.26l.41-.46,1-.95,15-15.05a1.71,1.71,0,0,0,.38-.13c.06,0,.06-.18.09-.27l-.42.45-15,15Zm7,6.95,16.3-14.51-1.75-1.74-14.51,16.29a1.31,1.31,0,0,0-.37.15c-.06.05-.06.18-.08.27Zm24.16-9.64-.34.1a1.12,1.12,0,0,0,.08.26,2,2,0,0,0,.35-.09Z" transform="translate(0 0)"/><path class="cls-19" d="M604.75,464.33c3-4.69,3.33-9.24-.39-13.8a5.42,5.42,0,0,1-.88-3.52c.18-2.74,1.1-5.48,1-8.19-.22-4.12,1.07-6.62,5.19-7.81,2.34-.68,4.47-2.07,6.7-3.14.93.89,2.06,2.08,3.32,3.11,7.75,6.34,8.1,11.78,1.8,19.91-1.82,2.34-2.8,5.48-3.53,8.42-.28,1.15,1.17,2.74,1.83,4.13C614.21,470.27,612.2,470.39,604.75,464.33Zm5.7-19.74-.75,1.35c1.76,1,3.51,2.85,5.28,2.88,1.53,0,3.1-2,4.65-3.07-.2-.39-.41-.77-.62-1.16Z" transform="translate(0 0)"/><path class="cls-20" d="M595.83,530.6a33.09,33.09,0,0,0,4.32.76c.29,0,.66-1.11,1-1.71l7.73,1.91c-.65,1.23-1.3,2.47-2,3.7l-4.06-1.8-6,.93Z" transform="translate(0 0)"/><path class="cls-18" d="M624.53,538.35l-2.62.06,3.88-4.25-.81,2Z" transform="translate(0 0)"/><path class="cls-27" d="M606.91,535.26c.66-1.23,1.31-2.47,2-3.7v4.34l-1.56,1.1Z" transform="translate(0 0)"/><path class="cls-26" d="M625,536.17l.81-2,2.12,1.1-1.17,1.14Z" transform="translate(0 0)"/><path class="cls-23" d="M592,527.5l-3.27-1.07Z" transform="translate(0 0)"/><path class="cls-22" d="M1204,235.85c2-.16,4-.39,6-.48,4.3-.22,8.6-.42,12.9-.48a7.28,7.28,0,0,1,2.45,1c-.48.75-.94,2.12-1.43,2.13-6.62.15-13.25.1-19.88.1Z" transform="translate(0 0)"/><path class="cls-22" d="M1203.12,310.69c4.31-3.3,19.42-3,22.36,0Z" transform="translate(0 0)"/><path class="cls-19" d="M883.08,266.47l-7.68-4c2-7.88,4.52-15.66,5.92-23.64,2.08-11.9,4.4-23.55,12.24-33.28A14.63,14.63,0,0,0,895.3,202c1.05-2.56.22-4.25-2.54-4.75a26.57,26.57,0,0,0-5.41-.56c-7.48.2-15,.54-22.42.82q6-13.55,11.92-27.1c7.7,2.2,15.53,4.06,23.08,6.73,6.2,2.2,11.06,6.33,12.78,13.19l.31.41v5.7h-.18l-16.05,44.45-1,.56c-.33.71-.65,1.42-1,2.14Z" transform="translate(0 0)"/><path class="cls-2" d="M904.64,273c-1.06-27.64,21.85-51.36,50.43-51.42,28.88-.07,51.47,22.26,51.46,51.21,0,29.63-24.12,50.72-51.21,50.9C927.08,323.82,903.48,299.05,904.64,273Zm49.93,46.29,2.19.12A45.5,45.5,0,0,0,985,308.6c1-.89,1.2-2.81,1.77-4.25,1.21-.31,2.88-.22,3.58-1,7.45-8.34,11.54-18,11.47-29.7H958.51c.08.84.17,1.8.27,2.75l-2.2-1.49c-1.44-1.14-3.19-2.27-.24-3.71l2.43-.86c1.65.43,3.3,1.22,5,1.24,9.47.12,19,.06,28.42.06h9.67c.16-12-4.34-21.34-11.33-29.69-.47-.56-1.82-.39-2.75-.56-.89-1.61-1.4-3.66-2.72-4.76a47.86,47.86,0,0,0-23.22-10.41c-3-2.59-9-2.61-12.09,0-8.21,1.41-16,4-22.47,9.36-1.65,1.36-2.34,3.88-3.46,5.86-.9-.16-2.39-.73-2.61-.41-2.83,4-5.64,8.07-8.06,12.34-.73,1.3.41,3.94-.46,4.85-3.7,3.83-3.76,8.51-3.92,13.25l.11,2.07c0,12.33,4.9,22.69,13,31.72l2.09,2.08c8.88,7.24,18.81,12,30.6,11.9Z" transform="translate(0 0)"/><path class="cls-20" d="M912.84,196.37q-3.35,23.38-6.71,46.76c-.75,1.11-1.5,2.21-2.26,3.31l-7-1v-4.66Z" transform="translate(0 0)"/><path class="cls-16" d="M898.35,257.72c-3.23,0-4.53-1.47-3.62-4.68.71-2.52,1.42-5,2.11-7.56l7,1Z" transform="translate(0 0)"/><path class="cls-19" d="M913.41,185.44c0,1.69.07,3.38.11,5.07a1.43,1.43,0,0,1-.5.18l-.31-.41C912.94,188.67,913.18,187.05,913.41,185.44Z" transform="translate(0 0)"/><path class="cls-28" d="M928.25,222l-1.13.28.47-1A3.77,3.77,0,0,1,928.25,222Z" transform="translate(0 0)"/><path class="cls-22" d="M1226.1,273.11c-4.1,2.88-18.64,3-23.26,0Z" transform="translate(0 0)"/><path class="cls-4" d="M629.69,537.4l4-1.8,4.15-.07c.59,7.34,4.12,13.3,7.74,19.6,5.91,10.29,8.32,21.63,3.2,33.33l-3-8.12c.75-2.17,1.57-4.32,2.24-6.52,1.86-6.11-.68-11.78-6.39-14.36-5.22-2.36-11-.16-14.16,5.48-1.35,2.42-2.5,5-3.74,7.45l-1,1h0c-13-2.18-26.31,13.93-19.11,27.58h-10c1.83-5.08,3.34-10.31,5.58-15.2,1.86-4.06,4-8.26,7.06-11.45,4.53-4.78,10.28-8.39,14.82-13.15,2.69-2.83,4.24-6.85,5.95-10.49a48.2,48.2,0,0,0,3-8.84C630.41,540.49,629.84,538.89,629.69,537.4Z" transform="translate(0 0)"/><path class="cls-4" d="M589.23,601.36l-8.75-6.92a32.22,32.22,0,0,0,13-17.15c3.17-10,10.44-16.4,19-21.62a65.32,65.32,0,0,1,12.7-6.23c-1.37,2.75-2.2,6-4.22,8.12a124.08,124.08,0,0,1-14.1,12.62c-5.67,4.35-9.26,9.37-10.71,16.66C595.17,591.94,591.64,596.54,589.23,601.36Z" transform="translate(0 0)"/><path class="cls-4" d="M596.85,534.39l6-.93a8.1,8.1,0,0,1-.8,2.29c-3.36,4.66-6.64,9.39-10.28,13.83-1.74,2.13-4.23,3.65-6.35,5.49-2.58,2.25-5.12,4.55-7.68,6.83,1.25-3.35,2.49-6.7,3.76-10q2.16-5.74,4.36-11.49c.11-.08.32-.18.31-.26a3.78,3.78,0,0,0-.17-.74l.09-1.89a11.81,11.81,0,0,1,3.35.28C593.14,539.18,595.74,538.52,596.85,534.39Z" transform="translate(0 0)"/><path class="cls-2" d="M593.62,601h10l8.93-.41c-.33,1.68-.65,3.36-1,5l-21.83-.19Z" transform="translate(0 0)"/><path class="cls-4" d="M625,536.17l1.76.23-2.2,2C624.68,537.63,624.83,536.9,625,536.17Z" transform="translate(0 0)"/><path class="cls-2" d="M738.65,272.19a51,51,0,0,1,50.79-50.78c28.14,0,51.66,23.44,51.21,51.63a50.82,50.82,0,0,1-51.12,50.51h-.42C760.57,323.13,738.57,301,738.65,272.19Zm97.07-.86-1-2-1.08-.72c.68-1.09,2.12-2.31,2-3.24-2.51-13.43-8.57-24.56-21-31.33l-4.45-2.51c-5.75-4.49-12.46-5.42-19.46-5.25l-2.06.25c-10.73-.85-19.8,3.3-28,9.61-1.47,1.14-2,3.48-3.09,5.44-5.47-2.07-15.84,18.78-14.07,30.44H787.6l.19,1.15h-45c.39,10.43,3.25,19.12,9,26.72,1.6,2.11,4,3.62,6,5.41.64,1.09,1,2.48,2,3.22,8.41,6.81,18,10.67,28.89,10.75h2.17A47.11,47.11,0,0,0,819,308.82c1.84-1.45,3.08-2.89,1.59-5.25l.23-.25c1.61-.39,3.87-.24,4.73-1.27,6.66-8,10.47-17.13,10.24-27.72v-2a5.61,5.61,0,0,0-.07-1Z" transform="translate(0 0)"/><path class="cls-2" d="M1204,208.07h21.52v1.59c-7.13,1.36-14.3.83-21.47.28C1204,209.32,1204,208.69,1204,208.07Z" transform="translate(0 0)"/><path class="cls-28" d="M187.92,246.24a14.48,14.48,0,0,1,14.64,14c.12,7.7-7,15-14.56,14.9a14.57,14.57,0,0,1-14.34-14.8h0C173.71,252.07,179.63,246.23,187.92,246.24Zm-11.35,14.32a11.48,11.48,0,0,0,11.17,11.66c6.11.06,11.84-5.59,11.89-11.75.05-6.41-5.22-11.43-11.9-11.33A11,11,0,0,0,176.56,260v.59Z" transform="translate(0 0)"/><path class="cls-28" d="M173.66,297.43c.06-8.22,6.32-14.22,14.7-14.09a14.62,14.62,0,0,1,14.21,14.39c.05,7.58-7.16,14.68-14.75,14.52a14.4,14.4,0,0,1-14.16-14.64h0Zm14.45-11.18a11.06,11.06,0,0,0-11.55,10.55h0v.54c-.14,6.69,4.81,12,11.25,12,6,0,11.62-5.3,11.85-11.22a11.71,11.71,0,0,0-11.55-11.87Z" transform="translate(0 0)"/><path class="cls-28" d="M188,238.39c-3.4,0-6.87-3.18-6.94-6.46a6.83,6.83,0,0,1,7-6.7h.18a6.43,6.43,0,0,1,6.52,6.34v.27a6.61,6.61,0,0,1-6.67,6.55H188Zm-.45-1.22c2-2.49,4-3.93,4-5.26s-2.13-2.77-3.32-4.15c-1.4,1.22-3.6,2.26-3.94,3.72-.29,1.23,1.56,3,3.25,5.69Z" transform="translate(0 0)"/><path class="cls-2" d="M1339.44,214c-2.92,4.33-3.84,4.36-7.71,0Z" transform="translate(0 0)"/><path class="cls-2" d="M1300.46,213.8h7.59C1306.37,218.34,1304.67,218.51,1300.46,213.8Z" transform="translate(0 0)"/><path class="cls-2" d="M1269.5,213.8h7.57C1275.31,218.34,1273.59,218.51,1269.5,213.8Z" transform="translate(0 0)"/><path class="cls-20" d="M913.41,185.44c-.23,1.61-.47,3.23-.7,4.84-1.72-6.86-6.58-11-12.78-13.19-7.55-2.67-15.38-4.53-23.08-6.73l-7.06-2,5.87-9.61c8.89.8,17.89.94,26.62,2.56,9.87,1.84,11.6,4.8,11.43,14.73C913.66,179.16,913.52,182.3,913.41,185.44Z" transform="translate(0 0)"/><path class="cls-16" d="M875.66,158.72l-5.87,9.61a14.34,14.34,0,0,1-12-5.91l4.06-5.22Z" transform="translate(0 0)"/><path class="cls-20" d="M1342.73,189.49q2.1-6.53,4.18-13.05c.3,3.39,1.2,6.86.74,10.13-.56,4-2.29,7.73-3.5,11.58l-2.69-4C1341.9,192.59,1342.32,191,1342.73,189.49Z" transform="translate(0 0)"/><path class="cls-7" d="M885.83,102.62,866.89,107l2.38,6.43c-11.81,3.79-23.79,5.48-35.92,3.55-.34-.83-.64-1.2-.55-1.41,4.76-10.9,8.61-22.34,14.62-32.51s15.92-11.92,26-6.83C884.08,81.57,888.84,91.72,885.83,102.62Z" transform="translate(0 0)"/><path class="cls-7" d="M881.94,74.42c.94.66,1.88,1.32,2.81,2C883.82,75.74,882.88,75.08,881.94,74.42Z" transform="translate(0 0)"/><path class="cls-3" d="M947,499.23l.81-.89Z" transform="translate(0 0)"/><path class="cls-19" d="M340.65,479.16c4.87-2.71,8.51-6.52,8.79-12.27.13-2.74-1-5.6-1.87-8.3s-2.2-5.44-3.33-8.15c-.41-8,2.16-10.65,9.67-10a10.45,10.45,0,0,0,3.93-.4c4.2-1.36,5.9,1.24,6.85,4.47.55,1.85.3,3.94.41,5.93-.7,2-.86,4.54-2.2,5.91A13.66,13.66,0,0,0,359.08,470c1.36,5.36,5.85,7.68,10.75,9.22-2.48,7.19-8.22,9.93-15.09,9.83C348.2,488.89,343,485.87,340.65,479.16Zm10.44-24.67c-.19.55-.37,1.1-.55,1.66,1.57.71,3.16,2,4.71,2,1.27,0,2.49-1.67,3.74-2.6l-.54-1Z" transform="translate(0 0)"/><path class="cls-20" d="M612.6,600.55l-8.93.41c-7.2-13.65,6.07-29.76,19.11-27.58Q617.69,587,612.6,600.55Z" transform="translate(0 0)"/><path class="cls-20" d="M622.78,573.38l1-1Z" transform="translate(0 0)"/><path class="cls-15" d="M123,429c-1.14.81-2.27,2.24-3.41,2.25-1.35,0-2.71-1.21-4.06-1.89l.4-1.49,6.33-.33Z" transform="translate(0 0)"/><path class="cls-23" d="M586,539.36a3.78,3.78,0,0,1,.17.74c0,.08-.2.18-.31.26C585.92,540,586,539.7,586,539.36Z" transform="translate(0 0)"/><path class="cls-3" d="M37.73,619.49l-2.22,3.45-.94-.55,2.13-3.65Z" transform="translate(0 0)"/><path class="cls-1" d="M536.59,44.13c.07-9,6.37-16.37,14.07-16.47,8.23-.1,17,7.29,16.8,14.1-.25,7.26-10.39,15.71-18.8,15.68C540.94,57.41,536.51,52.53,536.59,44.13Z" transform="translate(0 0)"/><path class="cls-1" d="M537.67,25.57c-7.08,6.91-10.92,15-10.1,25,.84,10.18,4.51,18,16.73,18.56l-.52,1.68c-2,0-4.11.46-5.93-.08-6.27-1.89-9.88-6.57-11.68-12.62C523,47.29,525,37.34,531.63,28.38c1.21-1.62,3-2.78,4.58-4.15Z" transform="translate(0 0)"/><path class="cls-1" d="M503.79,33.22c-10.43,17.36-6.72,32.19,4.93,46.54l-1.44.43a15.78,15.78,0,0,1-2.58-1.78c-10-10.45-12.4-28.61-5.33-41.18C500.29,35.59,502.29,34.54,503.79,33.22Z" transform="translate(0 0)"/><path class="cls-1" d="M513.29,54.2l-4.44-11.69,7.3-10.4Q514.73,43.14,513.29,54.2Z" transform="translate(0 0)"/><path class="cls-2" d="M583.91,89.56c-.19-2.44-.37-4.88-.56-7.31-.07-1.72-.14-3.44-.22-5.17,1.9,1.09,5.1,1.86,5.45,3.32C589.5,84.27,588.13,87.86,583.91,89.56Z" transform="translate(0 0)"/><path class="cls-1" d="M569,59.29l6.31-16.53C578.52,46.78,575.33,55.86,569,59.29Z" transform="translate(0 0)"/><path class="cls-29" d="M509.87,175.38l-5-.12q-2.64-8.43-5.3-16.86c4.34,3.77,10.11,1,14.77,3.24Z" transform="translate(0 0)"/><path class="cls-22" d="M499.59,158.4q2.66,8.43,5.3,16.86l-3.12.11-.88-1.05-4.2-15.92Z" transform="translate(0 0)"/><path class="cls-3" d="M509.87,175.38q2.25-6.87,4.49-13.74h0q-.76,5.85-1.54,11.72l-1.07,1.93Z" transform="translate(0 0)"/><path class="cls-7" d="M537.47,185.79c1.19,2.21,2.24,3.3,2.18,4.32-.06.82-1.68,2.31-2.22,2.16a3.89,3.89,0,0,1-2.55-2.43C534.75,189,536.06,187.88,537.47,185.79Z" transform="translate(0 0)"/><path class="cls-15" d="M1297.78,283.38l14.51-16.29,1.75,1.74-16.3,14.51Z" transform="translate(0 0)"/><path class="cls-15" d="M1306.73,260.34q-7.47,7.53-15,15.05v-.05l15-14.95Z" transform="translate(0 0)"/><path class="cls-15" d="M1317,279.55l-8,8-.48-.48,8-8Z" transform="translate(0 0)"/><path class="cls-15" d="M1321.9,273.7l.09.27a2,2,0,0,1-.35.09,1.12,1.12,0,0,1-.08-.26Z" transform="translate(0 0)"/><path class="cls-15" d="M1290.74,276.34l-.41.46c0-.09,0-.22.08-.26a1.2,1.2,0,0,1,.37-.15Z" transform="translate(0 0)"/><path class="cls-15" d="M1319.84,276.43l-.94,1.08-.38-.39,1.13-.88Z" transform="translate(0 0)"/><path class="cls-15" d="M1306.78,260.39l.42-.45c0,.09,0,.22-.09.27a1.71,1.71,0,0,1-.38.13Z" transform="translate(0 0)"/><path class="cls-15" d="M1318.9,277.51l-1,1-.45-.45,1-1Z" transform="translate(0 0)"/><path class="cls-15" d="M1317.94,278.55l-1,1-.48-.47,1-1Z" transform="translate(0 0)"/><path class="cls-15" d="M1297.74,283.34l-.41.46c0-.09,0-.22.08-.27a1.2,1.2,0,0,1,.37-.15Z" transform="translate(0 0)"/><path class="cls-15" d="M1307.55,288.16l.93-1.08.47.48-1.07.94Z" transform="translate(0 0)"/><path class="cls-15" d="M1306.62,289.24c.31-.36.63-.71.93-1.07l.33.33-1,.95Z" transform="translate(0 0)"/><path class="cls-15" d="M1306.84,289.45l-1.08.91h0l.87-1.13Z" transform="translate(0 0)"/><path class="cls-15" d="M1305.76,290.36l-.49.43c0-.1,0-.25.09-.3a.93.93,0,0,1,.4-.12Z" transform="translate(0 0)"/><path class="cls-15" d="M1291.78,275.39l-1,.95v.05Z" transform="translate(0 0)"/><path class="cls-15" d="M1319.65,276.24l.61-.42-.42.61Z" transform="translate(0 0)"/><path class="cls-20" d="M895.78,241.38c-.33.71-.65,1.42-1,2.13C895.13,242.8,895.45,242.09,895.78,241.38Z" transform="translate(0 0)"/><path class="cls-24" d="M954.57,319.24c0-13.05.12-26.1,0-39.15,0-1.24-1.21-2.47-1.85-3.71.11-.81.23-1.61.41-2.88H908.84c0-.69-.07-1.38-.11-2.07,13.29,0,26.58.07,39.88,0a18.31,18.31,0,0,0,4.13-1l.06-1.19c.62-.48,1.79-1,1.8-1.43.1-13.55.08-27.1.08-41l-5-.65c3.1-2.57,9.09-2.55,12.09,0l-5.45.43v44.55c-3,1.44-1.2,2.57.24,3.71l.18,44.45Z" transform="translate(0 0)"/><path class="cls-24" d="M952.78,276.35a33.16,33.16,0,0,1-3.07,4.29c-7.55,7.66-15.2,15.22-22.77,22.86a43.92,43.92,0,0,0-3,3.8l-2.08-2.08c8.75-8.53,17.48-17.08,26.28-25.55A36,36,0,0,1,952.78,276.35Z" transform="translate(0 0)"/><path class="cls-3" d="M791.67,266.29q9.23-17.37,18.46-34.75l4.45,2.51q-7.58,14.8-15.16,29.59c-.87,1.68-1.9,3.29-2.86,4.93l-.2.24-1.6,2.57-4.21.26-1-.28Z" transform="translate(0 0)"/><path class="cls-24" d="M789.52,271.36l1,.28.21,2.69v45h-2.17V276.41c-1.5,1.24-2.6,2-3.54,2.94-7.67,7.64-15.29,15.33-23,22.93a34.18,34.18,0,0,1-4.36,3.11,31,31,0,0,1,3.11-4.35c7.93-8.05,16-16,23.92-24a38.32,38.32,0,0,0,3-3.83c-.07-.38-.13-.77-.19-1.16l-.93-1.62,1.13-.05a3.7,3.7,0,0,0,.94-.08Z" transform="translate(0 0)"/><path class="cls-22" d="M790.76,274.33l-.21-2.69,4.21-.26,2-.06h35l4,1v2Z" transform="translate(0 0)"/><path class="cls-10" d="M789.52,271.36l-.78-1.08q-.07-21.87-.13-43.74l2.06-.25c0,11.61,0,23.23.1,34.84a32.21,32.21,0,0,0,.9,5.16Z" transform="translate(0 0)"/><path class="cls-3" d="M835.73,272.33l-4-1v-2.41l2-.29,1.08.72,1,2A5.33,5.33,0,0,1,835.73,272.33Z" transform="translate(0 0)"/><path class="cls-26" d="M835.72,271.33l-1-2Z" transform="translate(0 0)"/><path class="cls-2" d="M176.57,260.56a11,11,0,0,1,10.57-11.41h.59c6.68-.1,12,4.92,11.9,11.33,0,6.16-5.78,11.81-11.89,11.75A11.48,11.48,0,0,1,176.57,260.56Zm16.61-1.4c-1.1-.9-2.69-3.17-4.71-3.65-3.15-.76-5.36,1.35-5.69,4.64-.31,3.12,1.38,5.06,4.5,5.34,3.31.31,5.32-1.27,5.9-6.33Z" transform="translate(0 0)"/><path class="cls-2" d="M188.11,286.25a11.71,11.71,0,0,1,11.54,11.86c-.23,5.92-5.86,11.25-11.85,11.22-6.44,0-11.39-5.3-11.25-12a11.05,11.05,0,0,1,11-11.09Zm6,12.24c0-.71,0-1.42-.07-2.14-2.14-1.31-4.35-3.73-6.39-3.58-1.75.12-4.28,3-4.71,5-.72,3.32,2.24,5.55,5.14,5.14,2.18-.33,4-2.91,6-4.42Z" transform="translate(0 0)"/><path class="cls-2" d="M187.54,237.17c-1.69-2.73-3.58-4.46-3.3-5.69.34-1.46,2.54-2.5,3.94-3.72,1.19,1.38,3.24,2.71,3.32,4.15S189.53,234.68,187.54,237.17Z" transform="translate(0 0)"/><path class="cls-16" d="M365.1,450.42c-.11-2,.14-4.08-.41-5.93-.95-3.23-2.65-5.83-6.85-4.47a10.45,10.45,0,0,1-3.93.4c-7.51-.63-10.08,2-9.67,10-4.72-1.43-5.34-5.45-5.63-9.43a9.39,9.39,0,0,1,5.32-9.41c1.45-.79,3.14-1.27,4.38-2.29,2.08-1.71,3.17-3.58.82-6.3-.91-1.06-1.14-4.12-.32-5,2.68-2.9,6.37-4.85,10.19-2.48,1.53,1,3.22,4.49,2.6,5.54-2.68,4.58-.29,6.78,2.78,9.61C369.72,435.59,369.86,445.4,365.1,450.42Z" transform="translate(0 0)"/><path class="cls-2" d="M943.79,261.39l-1.06-1.05Z" transform="translate(0 0)"/><path class="cls-2" d="M942.79,260.39l-1.06-1.05Z" transform="translate(0 0)"/><path class="cls-2" d="M941.79,259.39l-1.06-1.05Z" transform="translate(0 0)"/><path class="cls-2" d="M940.79,258.39l-1.06-1.05Z" transform="translate(0 0)"/><path class="cls-2" d="M939.79,257.39l-1.06-1.05Z" transform="translate(0 0)"/><path class="cls-2" d="M938.79,256.39l-1.06-1Z" transform="translate(0 0)"/><path class="cls-2" d="M951.79,269.39l-1.06-1.05Z" transform="translate(0 0)"/><path class="cls-2" d="M937.79,255.39l-1.06-1Z" transform="translate(0 0)"/><path class="cls-2" d="M936.79,254.39l-1.06-1Z" transform="translate(0 0)"/><path class="cls-2" d="M935.79,253.39l-1.06-1Z" transform="translate(0 0)"/><path class="cls-2" d="M934.79,252.39l-1.06-1Z" transform="translate(0 0)"/><path class="cls-2" d="M933.79,251.39l-1.06-1Z" transform="translate(0 0)"/><path class="cls-2" d="M950.79,268.39l-1.06-1.05Z" transform="translate(0 0)"/><path class="cls-2" d="M932.79,250.39l-1.06-1Z" transform="translate(0 0)"/><path class="cls-2" d="M931.79,249.39l-1.06-1Z" transform="translate(0 0)"/><path class="cls-2" d="M930.79,248.39l-1.06-1Z" transform="translate(0 0)"/><path class="cls-2" d="M949.79,267.39l-1.06-1.05Z" transform="translate(0 0)"/><path class="cls-2" d="M929.79,247.39l-1.06-1Z" transform="translate(0 0)"/><path class="cls-2" d="M928.79,246.39l-1.06-1Z" transform="translate(0 0)"/><path class="cls-2" d="M948.79,266.39l-1.06-1.05Z" transform="translate(0 0)"/><path class="cls-2" d="M947.79,265.39l-1.06-1.05Z" transform="translate(0 0)"/><path class="cls-2" d="M927.79,245.39l-1.06-1Z" transform="translate(0 0)"/><path class="cls-2" d="M926.79,244.39l-1.06-1Z" transform="translate(0 0)"/><path class="cls-2" d="M925.79,243.39l-1.06-1Z" transform="translate(0 0)"/><path class="cls-2" d="M946.79,264.39l-1.06-1.05Z" transform="translate(0 0)"/><path class="cls-2" d="M945.79,263.39l-1.06-1.05Z" transform="translate(0 0)"/><path class="cls-2" d="M924.79,242.39l-1.06-1Z" transform="translate(0 0)"/><path class="cls-2" d="M952.8,269.29l-.06,1.19c-.34-.37-.67-.75-1-1.13Z" transform="translate(0 0)"/><path class="cls-2" d="M944.79,262.39l-1.06-1.05Z" transform="translate(0 0)"/><path class="cls-2" d="M960.79,278.39l-1.06-1.05Z" transform="translate(0 0)"/><path class="cls-2" d="M961.79,279.39l-1.06-1.05Z" transform="translate(0 0)"/><path class="cls-2" d="M962.79,280.39l-1.06-1.05Z" transform="translate(0 0)"/><path class="cls-2" d="M963.79,281.39l-1.06-1.05Z" transform="translate(0 0)"/><path class="cls-2" d="M964.79,282.39l-1.06-1.05Z" transform="translate(0 0)"/><path class="cls-2" d="M965.79,283.39l-1.06-1.05Z" transform="translate(0 0)"/><path class="cls-2" d="M966.79,284.39l-1.06-1.05Z" transform="translate(0 0)"/><path class="cls-2" d="M967.79,285.39l-1.06-1.05Z" transform="translate(0 0)"/><path class="cls-2" d="M968.79,286.39l-1.06-1.05Z" transform="translate(0 0)"/><path class="cls-2" d="M969.79,287.39l-1.06-1.05Z" transform="translate(0 0)"/><path class="cls-2" d="M970.79,288.39l-1.06-1.05Z" transform="translate(0 0)"/><path class="cls-2" d="M971.79,289.39l-1.06-1.05Z" transform="translate(0 0)"/><path class="cls-2" d="M972.79,290.39l-1.06-1.05Z" transform="translate(0 0)"/><path class="cls-2" d="M973.79,291.39l-1.06-1.05Z" transform="translate(0 0)"/><path class="cls-2" d="M974.79,292.39l-1.06-1.05Z" transform="translate(0 0)"/><path class="cls-2" d="M975.79,293.39l-1.06-1.05Z" transform="translate(0 0)"/><path class="cls-2" d="M976.79,294.39l-1.06-1.05Z" transform="translate(0 0)"/><path class="cls-2" d="M977.79,295.39l-1.06-1.05Z" transform="translate(0 0)"/><path class="cls-2" d="M978.79,296.39l-1.06-1.05Z" transform="translate(0 0)"/><path class="cls-2" d="M980.79,298.39l-1.06-1.05Z" transform="translate(0 0)"/><path class="cls-2" d="M981.79,299.39l-1.06-1.05Z" transform="translate(0 0)"/><path class="cls-2" d="M982.79,300.39l-1.06-1.05Z" transform="translate(0 0)"/><path class="cls-2" d="M983.79,301.39l-1.06-1.05Z" transform="translate(0 0)"/><path class="cls-2" d="M984.79,302.39l-1.06-1.05Z" transform="translate(0 0)"/><path class="cls-2" d="M985.79,303.39l-1.06-1.05Z" transform="translate(0 0)"/><path class="cls-2" d="M986.79,304.39l-1.06-1.05Z" transform="translate(0 0)"/><path class="cls-2" d="M979.79,297.39l-1.06-1.05Z" transform="translate(0 0)"/><path class="cls-2" d="M959.79,277.39l-1.06-1.05Z" transform="translate(0 0)"/><path class="cls-2" d="M968.78,260.34l-1,1.05Z" transform="translate(0 0)"/><path class="cls-2" d="M969.78,259.34l-1,1.05Z" transform="translate(0 0)"/><path class="cls-2" d="M970.78,258.34l-1,1.05Z" transform="translate(0 0)"/><path class="cls-2" d="M961.78,267.34l-1,1.05Z" transform="translate(0 0)"/><path class="cls-2" d="M971.78,257.34l-1,1.05Z" transform="translate(0 0)"/><path class="cls-2" d="M972.78,256.34l-1,1.05Z" transform="translate(0 0)"/><path class="cls-2" d="M960.78,268.34l-1,1.05Z" transform="translate(0 0)"/><path class="cls-2" d="M973.78,255.34l-1,1Z" transform="translate(0 0)"/><path class="cls-2" d="M975.78,253.34l-1,1Z" transform="translate(0 0)"/><path class="cls-2" d="M976.78,252.34l-1,1Z" transform="translate(0 0)"/><path class="cls-2" d="M977.78,251.34l-1,1Z" transform="translate(0 0)"/><path class="cls-2" d="M978.78,250.34l-1,1Z" transform="translate(0 0)"/><path class="cls-2" d="M979.78,249.34l-1,1Z" transform="translate(0 0)"/><path class="cls-2" d="M980.78,248.34l-1,1Z" transform="translate(0 0)"/><path class="cls-2" d="M962.78,266.34l-1,1.05Z" transform="translate(0 0)"/><path class="cls-2" d="M981.78,247.34l-1,1Z" transform="translate(0 0)"/><path class="cls-2" d="M963.78,265.34l-1,1.05Z" transform="translate(0 0)"/><path class="cls-2" d="M982.78,246.34l-1,1Z" transform="translate(0 0)"/><path class="cls-2" d="M983.78,245.34l-1,1Z" transform="translate(0 0)"/><path class="cls-2" d="M964.78,264.34l-1,1.05Z" transform="translate(0 0)"/><path class="cls-2" d="M959.79,269.34l-1,1.05Z" transform="translate(0 0)"/><path class="cls-2" d="M984.78,244.34l-1,1Z" transform="translate(0 0)"/><path class="cls-2" d="M985.78,243.34l-1,1Z" transform="translate(0 0)"/><path class="cls-2" d="M986.78,242.34l-1,1Z" transform="translate(0 0)"/><path class="cls-2" d="M965.78,263.34l-1,1.05Z" transform="translate(0 0)"/><path class="cls-2" d="M987.78,241.34l-1,1Z" transform="translate(0 0)"/><path class="cls-2" d="M966.78,262.34l-1,1.05Z" transform="translate(0 0)"/><path class="cls-2" d="M967.78,261.34l-1,1.05Z" transform="translate(0 0)"/><path class="cls-2" d="M974.78,254.34l-1,1Z" transform="translate(0 0)"/><path class="cls-2" d="M787.8,270.36l-1.13.05-1-1.23,1.17-1.15Z" transform="translate(0 0)"/><path class="cls-2" d="M793.35,276c-.1.13-.25.38-.3.36a9.33,9.33,0,0,1-.83-.43c.12-.12.27-.35.35-.32A4.06,4.06,0,0,1,793.35,276Z" transform="translate(0 0)"/><path class="cls-2" d="M820.57,303.57l-.68-.52.91.27Z" transform="translate(0 0)"/><path class="cls-26" d="M831.71,268.91v2.41h-27c0-.8,0-1.61.07-2.41Z" transform="translate(0 0)"/><path class="cls-3" d="M804.84,268.91c0,.8-.05,1.61-.07,2.41h-8c-.13-.84-.26-1.67-.4-2.51l.2-.24Z" transform="translate(0 0)"/><path class="cls-26" d="M796.36,268.81c.14.84.27,1.67.4,2.51l-2,.06Z" transform="translate(0 0)"/></g></g></svg>