<svg xmlns="http://www.w3.org/2000/svg" viewBox="0 0 260.72 384"><defs><style>.cls-1{fill:#fecf59;}.cls-2{fill:#fd872b;}.cls-3{fill:#d81f3b;}.cls-4{fill:#fe4c67;}.cls-5{fill:#cdd3e5;}.cls-6{fill:#8ad7ec;}.cls-7{fill:#feea98;}.cls-8{fill:#27b4d0;}.cls-9{fill:#fdcf59;}.cls-10{fill:#fece58;}</style></defs><g id="Layer_2" data-name="Layer 2"><g id="Layer_1-2" data-name="Layer 1"><path class="cls-1" d="M87.52,306.05c-14.7-2.28-25.35-10.51-33-22.85a42.42,42.42,0,0,1-6.65-23.09C48,242.39,41.74,227.37,30.4,214a126.06,126.06,0,0,1-30-73.61c-2.59-34.7,7-65.77,29-92.62,21.27-26,48.78-41.47,82.13-46.33,2-.29,4-.92,6-1.39h12.75q0,19.5,0,39c-7.21.54-11.24,4.84-11.26,12.09q0,10.44,0,20.88c0,7.22,4,11.48,11.3,12.08q0,10.11-.05,20.22c-5.07.42-8.43,3.17-10.61,7.66Q106,140.11,92.29,168.29a19.46,19.46,0,0,0-1,3.52v0l-.74.87c-1,3.51-2.89,7-2.92,10.51-.23,29.83-.13,59.66-.11,89.48,0,8.61.08,17.22.12,25.83ZM109.23,86c-1.11-2.41-1.7-5.29-3.41-7.15-5.4-5.88-11.1-11.5-16.9-17-4.07-3.86-11.28-3.45-15.36.52S69,73.82,73,78c5.43,5.69,11,11.29,16.7,16.67a10.74,10.74,0,0,0,12.19,2C106.28,94.75,108.62,91.26,109.23,86Z"/><path class="cls-2" d="M130.28,39q0-19.49,0-39h12c5.44,1,10.92,1.88,16.33,3,49.91,10.65,90.64,52.14,99.71,102.3,7.55,41.73-2.7,78.92-30.16,111.26C218,228.51,212.66,242.31,212.9,257.8a49.13,49.13,0,0,1-39.28,48.54c-.24-2.64-.49-5.28-.73-7.91,0-1.25.12-2.49.12-3.74,0-37.39.07-74.78-.13-112.18,0-3.25-1.86-6.49-2.85-9.74a8.12,8.12,0,0,0-.4-1.8q-14.53-30.24-29.14-60.47c-2-4.16-5.61-6.14-10.23-6.24h0L130.31,84h0c6.88-.26,11.2-4.55,11.25-11.31q.09-11.24,0-22.48c-.05-6.75-4.46-11.09-11.29-11.26Zm33.29,59.29c2.49-1.23,5.41-2,7.37-3.76,5.71-5.23,11.12-10.79,16.48-16.37a11.47,11.47,0,0,0-.29-15.63C183,58.35,175.75,58,171.51,62c-5.69,5.43-11.29,11-16.68,16.71a10.7,10.7,0,0,0-2,12.2C154.78,95.28,158.3,97.58,163.57,98.28Z"/><path class="cls-3" d="M172.94,333.87c-.18,8.35.61,16.86-.75,25-2.17,13-10.16,21.61-23.44,24.61-.19,0-.32.33-.48.51h-18V342.06l-.05-.22c9.18,0,18.37-.2,27.54.19C164.67,342.33,169.82,340.2,172.94,333.87Z"/><path class="cls-4" d="M130.28,342.06V384H111.52a15.53,15.53,0,0,0-2.22-1.14,31.29,31.29,0,0,1-21.68-29.35c-.17-6.75,0-13.5,0-20.25,2.66,6.4,7.42,9,14.35,8.77C111.39,341.74,120.84,342,130.28,342.06Z"/><path class="cls-5" d="M130.23,341.84l0-34.71,0-.37c9.68.06,19.36-.1,29,.24,6.71.25,11.19-2.33,13.59-8.58.24,2.64.49,5.28.73,7.92-.2,2.83-.53,5.65-.58,8.48-.11,6.35-.08,12.7-.1,19.05-3.12,6.33-8.27,8.46-15.17,8.16C148.6,341.64,139.41,341.88,130.23,341.84Z"/><path class="cls-6" d="M130.25,307.13c-9.73-.1-19.48-.5-29.2-.2-6.68.2-11-2.4-13.38-8.46,0-8.61-.11-17.22-.12-25.83,0-29.82-.12-59.65.11-89.48,0-3.51,1.9-7,2.92-10.51l.74-.87v0c2.32-.78,4.62-2.18,7-2.23,10.66-.2,21.33,0,32,0q0,68.58,0,137.16Z"/><path class="cls-7" d="M130.25,169.6c-10.66,0-21.33-.22-32,0-2.33,0-4.63,1.45-7,2.23a19.46,19.46,0,0,1,1-3.52q13.63-28.2,27.36-56.37c2.18-4.49,5.54-7.24,10.61-7.66h0q0,32.54,0,65.06Z"/><path class="cls-7" d="M109.23,86c-.61,5.24-3,8.73-7.34,10.63a10.74,10.74,0,0,1-12.19-2C84,89.31,78.43,83.71,73,78c-4-4.2-3.6-11.59.56-15.63S84.85,58,88.92,61.87c5.8,5.5,11.5,11.12,16.9,17C107.53,80.73,108.12,83.61,109.23,86Z"/><path class="cls-7" d="M130.31,84C123,83.44,119,79.18,119,72q0-10.44,0-20.88c0-7.25,4-11.55,11.26-12.09h0q0,22.53,0,45.05Z"/><path class="cls-8" d="M130.27,306.76q0-68.58,0-137.16l.05-.28c9.55,0,19.11.19,28.67,0,4.16-.06,7.85.73,11.06,3.42,1,3.25,2.83,6.49,2.85,9.74.2,37.4.14,74.79.13,112.18,0,1.25-.08,2.49-.12,3.74-2.4,6.24-6.88,8.82-13.59,8.57C149.63,306.66,140,306.82,130.27,306.76Z"/><path class="cls-9" d="M170,172.77c-3.21-2.69-6.9-3.48-11.06-3.42-9.56.16-19.12,0-28.67,0q0-32.53,0-65.06c4.62.1,8.21,2.08,10.23,6.24Q155.14,140.7,169.63,171A8.12,8.12,0,0,1,170,172.77Z"/><path class="cls-10" d="M163.57,98.28c-5.27-.7-8.79-3-10.69-7.39a10.7,10.7,0,0,1,2-12.2c5.39-5.73,11-11.28,16.68-16.71,4.24-4,11.5-3.63,15.62.54a11.47,11.47,0,0,1,.29,15.63c-5.36,5.58-10.77,11.14-16.48,16.37C169,96.31,166.06,97.05,163.57,98.28Z"/><path class="cls-1" d="M130.31,84q0-22.52,0-45.05c6.83.17,11.24,4.51,11.29,11.26q.09,11.24,0,22.48C141.51,79.49,137.19,83.78,130.31,84Z"/></g></g></svg>