<svg xmlns="http://www.w3.org/2000/svg" viewBox="0 0 384 384"><defs><style>.cls-1{fill:#fb1c5c;}.cls-2{fill:#fd5957;}.cls-3{fill:#fcbe00;}.cls-4{fill:#fed92d;}.cls-5{fill:#1a3459;}.cls-6{fill:#1b3459;}.cls-7{fill:#35569a;}.cls-8{fill:#36569a;}</style></defs><g id="Layer_2" data-name="Layer 2"><g id="Layer_1-2" data-name="Layer 1"><path class="cls-1" d="M384,192V330.75c-2,4.7-5.6,7.21-10.39,8.78q-48,15.72-95.9,31.72c-12.59,4.18-25.14,8.5-37.71,12.75h-6c-6.1-2.65-8.58-7.16-8.35-13.9.34-10.36,0-20.73,0-31.1,0-1.5.12-3,.12-4.49q0-53.43,0-106.86c0-11.87.07-23.74.11-35.61h44.78q0,11,.11,22.09c.05,6.72,4.66,11.55,11.06,11.62,6.62.07,11.38-4.75,11.44-11.61q.08-11.05.11-22.1Z"/><path class="cls-2" d="M384,192l-90.64,0-.23-.06c0-7.62.23-15.24.05-22.86a11.19,11.19,0,0,0-22.37,0c-.16,7.61,0,15.24.06,22.86l-.23.06H225.86l-.23-.06q.06-42.37.11-84.74c0-13.25-.07-26.49-.12-39.74,0-17.47.32-34.94,0-52.4C225.51,8.1,227.46,3,234,0h6c.16.18.27.44.47.54Q307.58,33.85,374.74,67.1c4.07,2,7.27,4.59,9.26,8.65Z"/><path class="cls-3" d="M113.13,248.79c-8.82,6.51-17.6,13.09-26.48,19.52-6.77,4.9-15.56,2.2-17.93-5.43a15.21,15.21,0,0,1-.45-4.43c0-10.72,0-21.45,0-32.7H64.11c-16.61,0-33.23-.22-49.83.11C7.48,226,2.73,223.76,0,217.5V192H106.06q37.27,0,74.57.08c.42,4.22-1.78,7.15-4.88,9.49-9.14,6.91-18.37,13.7-27.51,20.59Q130.64,235.44,113.13,248.79Z"/><path class="cls-4" d="M180.63,192.09q-37.29,0-74.57-.09H0V166.5c3-6.46,8.14-8.5,15.14-8.36,17.48.33,35,.11,53.11.11v-4.07c0-9.37.08-18.74,0-28.11-.06-5,1.54-9.08,6.17-11.5,4.83-2.52,9.1-1.2,13.21,1.91,8.47,6.39,17,12.67,25.55,19,1.06.86,2.1,1.76,3.2,2.58q29.16,21.88,58.36,43.73c3.52,2.62,5.81,5.74,6.17,10.16Z"/><path class="cls-5" d="M113.13,248.79q17.55-13.32,35.11-26.63c9.14-6.89,18.37-13.68,27.51-20.59,3.1-2.34,5.3-5.27,4.88-9.49l.25-.14,44.75,0,.23.06c0,11.87-.1,23.74-.11,35.61q0,53.43,0,106.86c0,1.5-.07,3-.12,4.49h-99.7c-8.3,0-12.66-4.35-12.67-12.63Z"/><path class="cls-6" d="M293.36,192q0,11-.11,22.1c-.06,6.86-4.82,11.68-11.44,11.61-6.4-.07-11-4.9-11.06-11.62q-.08-11-.11-22.09l.23-.06h22.26Z"/><path class="cls-7" d="M225.63,192l-44.75,0c-.36-4.42-2.65-7.54-6.17-10.16Q145.46,160,116.35,138.05c-1.1-.82-2.14-1.72-3.2-2.58q0-27.36.1-54.74c0-9,4.33-13.23,13.38-13.23h99c0,13.25.13,26.49.12,39.74Q225.72,149.62,225.63,192Z"/><path class="cls-8" d="M293.13,192H270.87c0-7.62-.22-15.25-.06-22.86a11.19,11.19,0,0,1,22.37,0C293.36,176.74,293.16,184.36,293.13,192Z"/></g></g></svg>