<?xml version="1.0" encoding="utf-8"?>
<!-- Generator: Adobe Illustrator 25.1.0, SVG Export Plug-In . SVG Version: 6.00 Build 0)  -->
<svg version="1.1" id="Layer_1" xmlns="http://www.w3.org/2000/svg" xmlns:xlink="http://www.w3.org/1999/xlink" x="0px" y="0px"
	 viewBox="0 0 375.4 62.1" style="enable-background:new 0 0 375.4 62.1;" xml:space="preserve">
<style type="text/css">
	.st0{fill:#FF2E63;}
	.st1{fill:#EE470D;}
</style>
<g id="SvgjsG2206" transform="matrix(2.4947745997485167,0,0,2.4947745997485167,-7.049152204312134,-33.42998344335406)">
	<path class="st0" d="M25.4,28.2c-4.1,0-7.4-3.3-7.4-7.4s3.3-7.4,7.4-7.4s7.4,3.3,7.4,7.4S29.5,28.2,25.4,28.2z M25.4,17.4
		c-1.9,0-3.4,1.5-3.4,3.4s1.5,3.4,3.4,3.4s3.4-1.5,3.4-3.4S27.3,17.4,25.4,17.4z M16.9,37.4c1.7-2.3,5-3.7,8.6-3.7
		c3.5,0,6.8,1.4,8.5,3.6c0.7,0.9,1.9,1,2.8,0.4c0.9-0.7,1-1.9,0.4-2.8c-2.5-3.3-6.9-5.2-11.7-5.2c-4.9,0-9.4,2.1-11.8,5.4
		c-0.7,0.9-0.5,2.1,0.4,2.8c0.4,0.3,0.8,0.4,1.2,0.4C15.9,38.2,16.5,37.9,16.9,37.4z M39.2,23.3c-2.6,0-4.7-2.1-4.7-4.7
		s2.1-4.7,4.7-4.7c2.6,0,4.7,2.1,4.7,4.7C43.9,21.2,41.8,23.3,39.2,23.3z M39.2,15.9c-1.5,0-2.7,1.2-2.7,2.7s1.2,2.7,2.7,2.7
		s2.7-1.2,2.7-2.7S40.7,15.9,39.2,15.9z M33,28.7c1.2-1.7,3.6-2.7,6.2-2.7c2.5,0,4.9,1,6.2,2.7c0.3,0.4,1,0.5,1.4,0.2s0.5-1,0.2-1.4
		c-1.6-2.2-4.5-3.4-7.7-3.4s-6.2,1.4-7.8,3.5c-0.3,0.4-0.2,1.1,0.2,1.4c0.2,0.1,0.4,0.2,0.6,0.2C32.5,29.2,32.8,29,33,28.7z
		 M10.8,23.3c-2.6,0-4.7-2.1-4.7-4.7s2.1-4.7,4.7-4.7s4.7,2.1,4.7,4.7C15.5,21.2,13.4,23.3,10.8,23.3z M10.8,15.9
		c-1.5,0-2.7,1.2-2.7,2.7s1.2,2.7,2.7,2.7s2.7-1.2,2.7-2.7S12.3,15.9,10.8,15.9z M4.6,28.7C5.8,27,8.2,26,10.8,26
		c2.5,0,4.9,1,6.2,2.7c0.3,0.4,1,0.5,1.4,0.2s0.5-1,0.2-1.4C16.9,25.3,14,24,10.8,24S4.6,25.4,3,27.5C2.7,28,2.8,28.6,3.2,29
		c0.2,0.1,0.4,0.2,0.6,0.2C4.1,29.2,4.4,29,4.6,28.7z"/>
</g>
<g id="SvgjsG2207" transform="matrix(3.49107011515607,0,0,3.49107011515607,132.50892988484392,-13.131062632970188)">
	<path class="st1" d="M10.4,14.4V20h-3v-5.6c0-1.5-0.4-2.2-1.6-2.2c-1.2,0-1.9,0.6-1.9,2.2V20H1V5.5h3v5.7C4.3,10.1,5.8,10,6.6,10
		C9.4,10,10.4,11.3,10.4,14.4z M16.8,12.4c-1.2,0-2.2,1.1-2.2,2.7c0,1.6,1,2.6,2.2,2.6c1.2,0,2.3-1.1,2.3-2.6
		C19,13.5,18,12.4,16.8,12.4z M16.8,10c2.9,0,5.2,2.2,5.2,5.1s-2.3,5.1-5.2,5.1c-2.9,0-5.2-2.2-5.2-5.1S13.9,10,16.8,10z M28.5,10
		c2.9,0,4.8,2.2,4.8,5.1s-2.1,5.1-5,5.1c-0.6,0-1.7-0.4-2-0.8V20h-3V5.5h3v5.3C26.6,10.3,27.9,10,28.5,10z M28.1,17.9
		c1.2,0,2.3-1.3,2.3-2.8c0-1.6-1-2.9-2.3-2.9c-1.4,0-2.2,1.5-2.2,2.9S26.7,17.9,28.1,17.9z M40.1,10c2.9,0,4.8,2.2,4.8,5.1
		s-2.1,5.1-5,5.1c-0.6,0-1.7-0.4-2-0.8V20h-3V5.5h3v5.3C38.2,10.3,39.4,10,40.1,10z M39.7,17.9c1.2,0,2.3-1.3,2.3-2.8
		c0-1.6-1-2.9-2.3-2.9c-1.4,0-2.2,1.5-2.2,2.9S38.3,17.9,39.7,17.9z M49.3,10.1V20h-3v-9.9H49.3z M49.4,7.3c0,0.8-0.7,1.5-1.6,1.5
		c-0.9,0-1.6-0.7-1.6-1.5c0-0.8,0.7-1.5,1.6-1.5C48.7,5.8,49.4,6.5,49.4,7.3z M60.8,15.1v0.7h-7c0,1.2,1.2,2,2.2,2
		c1,0,1.8-0.4,2.3-1.2l2,1.8c-0.8,1.1-2,1.8-4.3,1.8c-3.2,0-5.2-2.2-5.2-5.1s1.9-5.1,5-5.1S60.8,12.1,60.8,15.1z M53.9,13.9h3.9
		c-0.2-0.9-0.8-1.4-2-1.4C54.7,12.4,54,13,53.9,13.9L53.9,13.9z M64.6,13.2c0,1.2,5,0.6,5,3.7c0,2-1.8,3.2-4,3.2
		c-1.4,0-2.8-0.7-4-1.8l1.9-1.9c0.6,0.7,1.4,1.2,2,1.3s1.2-0.2,1.3-0.5c0.2-0.8-1.1-0.8-1.6-0.9c-1.6-0.5-3.4-1.1-3.4-3.1
		c0-2.3,2.4-3.1,3.7-3.1c1.4,0,2.8,0.6,4,1.8l-1.9,1.9c-0.5-0.7-1.4-1.2-2-1.2C65.2,12.5,64.6,12.6,64.6,13.2L64.6,13.2z"/>
</g>
</svg>
