<svg id="Layer_1" data-name="Layer 1" xmlns="http://www.w3.org/2000/svg" viewBox="0 0 365 66.1"><defs><style>.cls-1{fill:#ed7ca9;}.cls-2{fill:#ee470d;}</style></defs><g id="SvgjsG1370"><path class="cls-1" d="M37.56,0A132.74,132.74,0,0,0,23.82,2a41,41,0,0,1-5,.64,20.07,20.07,0,0,0-2.46.25c-.76.31-.9,1.76-.54,5.65a53.58,53.58,0,0,0,1.48,9.22,123.25,123.25,0,0,0,3.3,12.66c.39.81,1.21,1.84,1.45,1.84a10.67,10.67,0,0,0,.09-1.95l0-1.93-1.36-4.13c-2.78-8.49-3.48-11-4-14.37-.47-2.76-.62-5.6-.36-6.11l.18-.32,1.9,0a43.28,43.28,0,0,0,5.72-.34c7.77-.79,8.09-.8,12.07-.79s4.83.1,7.44.78c1.68.44,1.88.45,2.25.15a1.85,1.85,0,0,0,.67-1.57C46.61.63,46.45.5,44.74.27A61.33,61.33,0,0,0,37.56,0Z" transform="translate(0 0)"/><path class="cls-1" d="M50.12,1.46A71.24,71.24,0,0,0,43.69,5.9C41.53,7.59,31.5,17.09,30.61,18.31a6.28,6.28,0,0,0-1.07,2.31c0,.22.21.26.32.07a4.62,4.62,0,0,1,1-.55c1.4-.66,2.17-1.34,4.69-4.16,3.38-3.79,6.35-7,8.07-8.65,3.21-3.11,7.35-6.06,8.1-5.77A9.76,9.76,0,0,1,52.77,3.3a48.63,48.63,0,0,0,2.77,4.25c2.68,3.73,5.83,8.21,6.12,8.77.14.27.84,1.56,1.55,2.85a20,20,0,0,1,2.4,5.71,7.53,7.53,0,0,0,.68,1.82c.52.54,1.75.37,2.53-.33.39-.37.35-.71-.24-2.1-1.92-4.49-4.29-8-10-14.9-3.85-4.62-4.12-5-5.2-6.68A9.46,9.46,0,0,0,52.26,1.2C51.83.85,51.15.92,50.12,1.46Z" transform="translate(0 0)"/><path class="cls-1" d="M12.4,8.29a40.27,40.27,0,0,0-3.65,5.44A110.78,110.78,0,0,0,3,27.62C2.51,29.08,1.58,31.31,1,32.54-.28,35.11-.28,35.16.73,36a45.41,45.41,0,0,0,6.63,3.34c3,1.29,16.44,5.35,18.37,5.55,1.27.14,3.05-.26,2.34-.52a5,5,0,0,1-.81-.53c-1.28-1-2.08-1.22-6.87-2.24-8.09-1.7-10.86-2.4-13.48-3.36C3,36.85.81,35.72.61,35.07c0-.18.22-.71.9-1.81a41,41,0,0,0,2.15-4.17c3.44-7.64,4.19-9.18,6.13-12.4a21.23,21.23,0,0,1,3.86-5.21c1.28-1.35,1.4-1.5,1.4-2a1.53,1.53,0,0,0-.89-1.42C13.34,7.56,13,7.59,12.4,8.29Z" transform="translate(0 0)"/><path class="cls-1" d="M44.32,21.21c-1.14.19-1.14.25,0,1,1.68,1.11,2.09,1.23,6.81,2.24C59.62,26.23,62.2,26.88,65.22,28,68.55,29.26,71,30.56,71,31.09a8.74,8.74,0,0,1-.92,1.68,40.82,40.82,0,0,0-1.92,3.69c-4.11,9.08-4.35,9.57-6.49,13.1A23.93,23.93,0,0,1,57.56,55c-1.1,1.14-1.19,1.33-.91,2.12a2.42,2.42,0,0,0,1.74,1.17c.34,0,.5-.11,1-.74a41.65,41.65,0,0,0,3.84-6,99,99,0,0,0,4.95-12.08,53.52,53.52,0,0,1,2.48-6,14.46,14.46,0,0,0,1-2.34c0-.64-1-1.45-3.33-2.55-4.49-2.2-5.93-2.74-12.82-4.8C47.13,21.3,45.75,21,44.32,21.21Z" transform="translate(0 0)"/><path class="cls-1" d="M34,28.06c-.83.3-1.29.59-1.29.8s-.28.37-.62.64a3.84,3.84,0,0,0-1.5,2.58c-.18.89-.18,1,0,1.41a2,2,0,0,1,.21.73,3.7,3.7,0,0,0,1,2.29,3.32,3.32,0,0,0,1.92,1.28,7.42,7.42,0,0,1,1.18.32A3.57,3.57,0,0,0,37.71,38a7.87,7.87,0,0,0,3.07-3.12,3.52,3.52,0,0,0,.16-2.39,1.49,1.49,0,0,1-.2-.68,3.49,3.49,0,0,0-.21-1c-.35-1-1.88-2.5-2.59-2.5a2.8,2.8,0,0,1-.9-.26A4.75,4.75,0,0,0,34,28.06Z" transform="translate(0 0)"/><path class="cls-1" d="M49.45,35.72v2l1.35,4.07c1.3,3.91,2.72,8.5,3.27,10.49.94,3.47,1.58,9,1.16,10.12l-.14.34-1.87-.07a28.93,28.93,0,0,0-4.86.23c-9,.91-8.6.89-13,.85s-4.51,0-7.41-.75c-1.78-.45-1.87-.46-2.18-.26A1.76,1.76,0,0,0,25,64.16c-.08.79.1,1.27.53,1.42a37.16,37.16,0,0,0,6,.52c3.61,0,7.17-.43,15.6-1.93a44.41,44.41,0,0,1,5.72-.74c2.44-.14,2.65-.23,3-1.17s0-5.17-.55-9.14c-.23-1.57-1.59-7.52-2.93-12.85-1-4-1.42-5.08-2.27-6a2.12,2.12,0,0,0-.55-.47A9.91,9.91,0,0,0,49.45,35.72Z" transform="translate(0 0)"/><path class="cls-1" d="M3.29,39.36c-.86.49-.94.72-.58,1.7a38.8,38.8,0,0,0,3,5.94,108.72,108.72,0,0,0,9,11.7C16,60.24,17.41,62.08,18,63s1.11,1.67,1.25,1.82c.42.45,1.17.39,2.25-.17a65.54,65.54,0,0,0,7.76-5.51C31.69,56.92,40,49,40.78,48A5.75,5.75,0,0,0,42,45.67c.08-.48.06-.49-.16-.3s-.76.43-1.37.74c-1.36.66-1.89,1.16-5.67,5.39-1.49,1.66-3.67,4.06-4.88,5.33-4,4.25-9.26,8.22-10.09,7.65-.07-.07-.53-.84-1-1.76a49.25,49.25,0,0,0-2.72-4.2c-2.33-3.21-5-7-5.67-8.07-.28-.46-1.17-2-2-3.5a24.28,24.28,0,0,1-2.63-6.52c-.21-1-.56-1.31-1.27-1.38A1.76,1.76,0,0,0,3.29,39.36Z" transform="translate(0 0)"/></g><g id="SvgjsG1371"><path class="cls-2" d="M123,8h11.42V57.6H123V38H104.18V57.6H92.76V8h11.42v19.5H123Zm37.58,12.13c8.37,0,19.44,6.31,19.44,19.21s-11.07,19-19.44,19-19.43-6-19.43-19S152.19,20.09,160.55,20.09Zm0,9.85c-4.25,0-8.58,3.27-8.58,9.36,0,5.89,4.33,9.15,8.58,9.15a8.71,8.71,0,0,0,8.66-9.15C169.21,33.21,164.81,29.94,160.55,29.94Zm46.24-9.85c8.44,0,18.15,6.31,18.15,19,0,13.19-9.71,19.22-18.15,19.22-5.67,0-9-3.12-9.5-4.4V57.6H186.08V7.46h11.21V24.13A12.21,12.21,0,0,1,206.79,20.09Zm-1.63,28.36c4.82,0,8.94-3.26,8.94-9.36,0-5.88-4.12-9.15-8.94-9.15-4.61,0-8.37,3.19-8.37,9.15C196.79,45.26,200.55,48.45,205.16,48.45Zm46.59-28.36c8.44,0,18.15,6.31,18.15,19,0,13.19-9.71,19.22-18.15,19.22-5.67,0-9-3.12-9.5-4.4V57.6H231V7.46h11.21V24.13A12.21,12.21,0,0,1,251.75,20.09Zm-1.63,28.36c4.82,0,8.93-3.26,8.93-9.36,0-5.88-4.11-9.15-8.93-9.15-4.61,0-8.37,3.19-8.37,9.15C241.75,45.26,245.51,48.45,250.12,48.45Zm37.09-41V16.9H276V7.46Zm0,13.26V57.6H276V20.72Zm25.53-.63c8.36,0,20.07,6.31,17.72,23H304.72c1.28,3.83,4.61,5.82,9.08,5.82s6-1,8.51-2.06l6.17,6c-3.26,3.19-7.66,5.53-15.11,5.53-9.14,0-20.06-6.31-20.06-19,0-12.9,11.06-19.21,19.43-19.21Zm0,9.57a8.39,8.39,0,0,0-7.88,5.53h15.68A8,8,0,0,0,312.74,29.66Zm41.62,2.69c-1-2.55-2.48-3.4-4.11-3.4s-3,.85-3,2.27.85,2.13,2.48,2.69l4.68,1.64c5.25,1.91,10.57,3.82,10.57,11.2s-7.45,11.7-15.1,11.7c-6.88,0-13.34-4-14.9-10.49l8.8-2.77c.92,2.06,2.55,4.4,6.1,4.4,2.41,0,4-1.56,4-3,0-.71-.57-1.63-2.34-2.34l-4.33-1.56c-7.37-2.7-10.85-6.46-10.85-11.7,0-6.88,6.38-10.92,13.4-10.92,7.17,0,11.92,3.9,14,9.78Z" transform="translate(0 0)"/></g></svg>